<svg width="128" height="146" viewBox="0 0 128 146" fill="none" xmlns="http://www.w3.org/2000/svg">
<g opacity="0.6">
<path d="M128 0L116.339 130.634L63.9217 145.166L11.6488 130.655L0 0H128Z" fill="white"/>
<path d="M106.356 122.316L116.321 10.6829H64V134.058L106.356 122.316Z" fill="#DDDDDD"/>
<path d="M26.7046 59.141L28.1408 75.1651H64V59.141H26.7046Z" fill="black"/>
<path d="M64.0021 26.7073H63.9467H23.8208L25.2775 42.7317H64.0021V26.7073Z" fill="black"/>
<path d="M63.9997 117.429V100.758L63.9295 100.776L46.0831 95.9573L44.9423 83.1772H36.2704H28.8564L31.1014 108.338L63.9259 117.45L63.9997 117.429Z" fill="black"/>
<path d="M83.6789 75.1649L81.8189 95.9471L63.9468 100.771V117.442L96.7974 108.338L97.0384 105.63L100.804 63.4437L101.195 59.1408L104.088 26.7073H63.9468V42.7317H86.5266L85.0685 59.1408H63.9468V75.1649H83.6789Z" fill="black"/>
</g>
</svg>
