<svg width="200" height="227" viewBox="0 0 200 227" fill="none" xmlns="http://www.w3.org/2000/svg">
<g opacity="0.6">
<path d="M200 0L181.779 204.116L99.8775 226.822L18.2011 204.148L-0.00012207 0H200Z" fill="#264DE4"/>
<path d="M166.181 191.118L181.751 16.692H99.9999V209.466L166.181 191.118Z" fill="#2965F1"/>
<path d="M41.7257 92.4076L43.9698 117.445H99.9998V92.4076H41.7257Z" fill="#EBEBEB"/>
<path d="M99.9997 41.73H99.9132H37.2166L39.4926 66.7682H99.9997V41.73Z" fill="#EBEBEB"/>
<path d="M99.9998 183.484V157.434L99.8901 157.463L72.0052 149.933L70.2226 129.965H56.6728H45.0885L48.5963 169.278L99.8846 183.516L99.9998 183.484Z" fill="#EBEBEB"/>
<path d="M130.745 117.445L127.838 149.917L99.9133 157.455V183.503L151.242 169.277L151.619 165.047L157.503 99.1308L158.114 92.4074L162.634 41.73H99.9133V66.7682H135.194L132.916 92.4074H99.9133V117.445H130.745Z" fill="white"/>
</g>
</svg>
