<svg width="165" height="165" viewBox="0 0 165 165" fill="none" xmlns="http://www.w3.org/2000/svg">
<g opacity="0.6">
<path d="M33.6506 131.344L5.43344 103.127C2.07363 99.6849 0 94.8223 0 90.091C0 87.896 1.23696 84.4607 2.17207 82.4954L28.2172 28.2167L33.6506 131.344Z" fill="white"/>
<path d="M130.256 33.6506L102.039 5.43344C99.5752 2.95296 94.4436 0 90.0994 0C86.3656 0 82.7006 0.751364 80.335 2.17207L28.2383 28.2172L130.256 33.6506Z" fill="#BEBEBE"/>
<path d="M67.2933 164.987H135.684V135.68L84.6633 119.39L37.9868 135.68L67.2933 164.987Z" fill="#BEBEBE"/>
<path d="M28.2227 116.149C28.2227 124.857 29.3153 126.993 33.6463 131.347L37.9871 135.691H135.694L87.938 81.4159L28.2227 28.2167V116.149Z" fill="#BEBEBE"/>
<path d="M115.072 28.2167H28.2227L135.694 135.675H165V68.3769L130.264 33.637C125.382 28.7482 121.051 28.2167 115.072 28.2167Z" fill="white"/>
<path opacity="0.2" d="M34.7381 132.423C30.3972 128.069 29.3178 123.774 29.3178 116.149V29.306L28.2383 28.2167V116.149C28.2383 123.778 28.2383 125.891 34.7381 132.427L37.9896 135.678L34.7381 132.423Z" fill="white"/>
<path opacity="0.2" d="M163.895 67.2925V134.59H134.588L135.668 135.683H164.974V68.3719L163.895 67.2925Z" fill="#BEBEBE"/>
<path opacity="0.2" d="M130.257 33.6501C124.879 28.2626 120.476 28.2167 113.986 28.2167H28.2383L29.3178 29.2961H113.986C117.224 29.2961 125.401 28.7515 130.263 33.6403L130.257 33.6501Z" fill="white"/>
<path opacity="0.2" d="M163.916 67.298L130.258 33.6506L102.041 5.43345C99.5771 2.95296 94.4455 0 90.1014 0C86.3675 0 82.7026 0.751364 80.3369 2.17207L28.2401 28.2172L2.18191 82.4959C1.25009 84.4743 0 87.9063 0 90.0915C0 94.8327 2.08676 99.6723 5.42032 103.117L31.4425 128.946C32.1349 129.786 32.872 130.587 33.6506 131.348L34.7301 132.427L37.9783 135.679L66.1955 163.896L67.275 164.975H135.652V135.675H164.959V68.3774L163.916 67.298Z" fill="url(#paint0_radial_1201_896)"/>
</g>
<defs>
<radialGradient id="paint0_radial_1201_896" cx="0" cy="0" r="1" gradientUnits="userSpaceOnUse" gradientTransform="translate(82.4926 82.4893) scale(82.486 82.486)">
<stop stop-color="white" stop-opacity="0.1"/>
<stop offset="1" stop-color="white" stop-opacity="0"/>
</radialGradient>
</defs>
</svg>
