<svg width="257" height="58" viewBox="0 0 257 58" fill="none" xmlns="http://www.w3.org/2000/svg">
<path opacity="0.6" d="M79.7094 57.3496V1.12186H82.7593V9.96654C83.1194 9.57435 83.452 9.15777 83.7548 8.71975C86.302 3.4349 91.6747 0.0995396 97.5403 0.165417C104.494 -0.0419752 110.145 2.53213 113.466 8.71975C115.579 12.5638 116.742 16.8575 116.857 21.2426C116.972 25.6276 116.037 29.9766 114.129 33.9265C111.035 40.8607 103.394 44.3083 95.2126 43.042C92.6666 42.8255 90.2153 41.9748 88.0826 40.5675C85.9499 39.1602 84.2036 37.2411 83.0033 34.9854V57.3472L79.7094 57.3496ZM82.7593 21.012L83.4425 27.6144C84.6478 35.1293 89.0909 39.57 96.0666 40.4044C99.3424 40.943 102.704 40.3289 105.577 38.6667C108.451 37.0044 110.659 34.3971 111.826 31.2889C114.539 24.8232 114.339 17.5034 111.289 11.1889C110.044 8.40275 107.926 6.09752 105.255 4.62158C102.584 3.14565 99.5052 2.57923 96.4838 3.00792C93.6477 3.21424 90.9463 4.2987 88.7548 6.11066C86.5633 7.92263 84.9905 10.3721 84.255 13.1189C83.6054 15.7183 83.1061 18.3528 82.7593 21.0096V21.012ZM179.131 28.6538C178.668 32.6128 176.784 36.269 173.827 38.9425C170.871 41.616 167.045 43.1248 163.059 43.1884C150.269 43.8325 144.267 35.3392 143.313 25.5381C142.65 20.2155 143.514 14.8141 145.804 9.9641C147.398 6.63701 150.01 3.90385 153.262 2.16055C156.513 0.417254 160.235 -0.24564 163.889 0.267893C167.362 0.563107 170.654 1.94311 173.3 4.21261C175.946 6.48211 177.81 9.52616 178.631 12.914C179.28 16 179.759 19.1198 180.063 22.2588H146.473C145.85 31.145 150.625 38.289 157.394 40.0116C165.824 42.0855 173.029 38.433 175.644 30.4179C176.225 28.361 177.284 28.0707 179.153 28.6538H179.131ZM146.448 19.4139H176.493C176.305 9.94702 170.411 3.06647 162.415 2.98839C153.387 2.842 146.841 9.44684 146.448 19.4139ZM185.34 28.8612H188.285C188.394 31.0308 189.098 33.1286 190.322 34.9237C191.545 36.7187 193.24 38.1416 195.22 39.0356C197.706 40.1544 200.412 40.6981 203.137 40.6263C205.862 40.5545 208.536 39.869 210.959 38.6209C212.281 38.026 213.387 37.0399 214.13 35.7959C214.873 34.5519 215.215 33.1098 215.112 31.6647C215.188 30.2709 214.808 28.8904 214.028 27.7324C213.249 26.5744 212.113 25.7021 210.794 25.2477C207.553 24.0424 204.108 23.3787 200.807 22.3198C197.372 21.3418 194.013 20.1137 190.757 18.6453C185.438 16.0492 185.109 5.93825 191.13 2.73709C194.214 0.997209 197.684 0.0571066 201.224 0.00255421C204.763 -0.0519982 208.261 0.780735 211.396 2.42478C215.285 4.5719 217.435 8.90762 216.796 13.3068H214.27C214.27 13.1848 214.041 13.0774 214.041 12.953C213.729 4.90128 206.96 2.3833 199.694 3.09087C197.498 3.33486 195.417 3.99852 193.465 4.97936C192.292 5.51521 191.314 6.40252 190.667 7.5185C190.02 8.63447 189.736 9.92393 189.854 11.2085C189.857 12.4939 190.257 13.7471 191.001 14.7957C191.745 15.8443 192.795 16.6368 194.007 17.0642C197.179 18.2281 200.546 18.9747 203.828 19.8872L211.757 21.9611C213.56 22.5527 215.14 23.6775 216.289 25.1866C217.439 26.6958 218.103 28.5182 218.194 30.413C218.828 34.6706 216.657 38.8551 212.816 40.7948C205.882 44.7182 194.461 43.6812 189.374 38.7209C186.77 36.1029 185.318 32.5479 185.348 28.8588L185.34 28.8612ZM255.561 13.3092H252.799C252.799 12.9359 252.653 12.5772 252.611 12.2918C252.567 10.2214 251.813 8.22921 250.474 6.64909C249.136 5.06897 247.295 3.99704 245.26 3.61301C241.421 2.51205 237.327 2.70932 233.612 4.17419C232.143 4.59458 230.849 5.47915 229.925 6.69563C229 7.91211 228.495 9.39514 228.483 10.923C228.43 12.4232 228.897 13.8955 229.805 15.091C230.713 16.2865 232.006 17.1318 233.465 17.4839L246.089 20.7241C247.455 21.0515 248.799 21.4605 250.115 21.9489C254.141 23.4129 256.874 27.1508 256.996 31.4231C257.056 33.5143 256.482 35.5749 255.35 37.3341C254.218 39.0934 252.58 40.469 250.652 41.2804C247.722 42.6113 244.546 43.3155 241.328 43.3479C238.11 43.3802 234.921 42.74 231.965 41.4682C229.534 40.4199 227.482 38.6519 226.086 36.4023C224.69 34.1527 224.017 31.5294 224.157 28.8856H226.855C227.87 33.7776 231.23 37.8523 235.839 39.7798C240.448 41.7073 245.711 41.234 249.903 38.5208C251.161 37.8668 252.204 36.8661 252.911 35.6372C253.618 34.4082 253.957 33.0026 253.89 31.5866C253.952 30.1919 253.558 28.8148 252.767 27.6642C251.977 26.5137 250.832 25.6524 249.508 25.2111C246.267 24.0058 242.822 23.3641 239.521 22.2832C236.067 21.3203 232.687 20.106 229.41 18.6502C224.218 16.0956 223.803 6.06756 229.722 2.86884C232.844 1.05594 236.382 0.0820093 239.991 0.041818C243.601 0.00162664 247.159 0.896547 250.32 2.63949C252.128 3.71855 253.583 5.30006 254.509 7.19142C255.434 9.08279 255.79 11.2024 255.532 13.2921L255.561 13.3092ZM74.6905 42.1734C73.6033 42.5845 72.4032 42.5834 71.3168 42.1703C70.2303 41.7572 69.3327 40.9607 68.7933 39.9311L58.0577 25.0842L56.501 23.0103L44.0428 39.9531C43.535 40.9384 42.6859 41.7051 41.6541 42.1102C40.6223 42.5152 39.4783 42.5307 38.4359 42.1539L54.4856 20.6216L39.5534 1.16578C41.7688 0.36549 44.238 1.2341 45.4702 3.23971L56.5961 18.2696L67.788 3.29826C68.2996 2.32983 69.1492 1.58318 70.1754 1.20034C71.2015 0.817505 72.3326 0.825177 73.3534 1.2219L67.5587 8.91006L59.7095 19.126C59.4916 19.3205 59.3173 19.5589 59.198 19.8254C59.0786 20.092 59.0169 20.3808 59.0169 20.6729C59.0169 20.9649 59.0786 21.2537 59.198 21.5203C59.3173 21.7869 59.4916 22.0252 59.7095 22.2198L74.6588 42.1734H74.6905ZM142.837 0.95839V3.88628C140.737 3.74854 138.631 4.05266 136.656 4.77903C134.681 5.5054 132.88 6.63787 131.369 8.10334C129.859 9.56882 128.672 11.3347 127.886 13.2871C127.101 15.2395 126.733 17.335 126.807 19.4383C126.807 26.2765 126.807 33.1148 126.807 39.9531V42.2783H123.838V1.14138H126.766V9.57127C130.357 3.4227 135.901 1.14138 142.857 0.975469L142.837 0.95839ZM0.00488063 20.3532L1.31267 13.8948C4.90422 1.1243 19.5437 -4.18982 29.6156 3.72037C35.5129 8.35132 36.9842 14.9122 36.6962 22.3052H3.47199C2.93521 35.51 12.4631 43.4836 24.6504 39.4138C28.6665 37.9499 31.6895 34.6121 32.685 30.4642C33.3292 28.3903 34.393 28.0341 36.34 28.6343C36.0153 31.1624 35.1216 33.5839 33.7261 35.7168C32.3307 37.8497 30.4698 39.6384 28.2834 40.9485C24.6713 42.924 20.527 43.7067 16.4432 43.1848C12.3594 42.6628 8.54514 40.863 5.54592 38.0426C2.57899 34.7072 0.788092 30.4911 0.439184 26.0382C0.439184 25.3063 0.195193 24.6231 0.0243997 23.9643C0.00813359 22.733 0 21.5293 0 20.3532H0.00488063ZM3.51347 19.4602H33.5585C33.3706 9.88846 27.3294 3.09819 19.2728 3.03475C10.3037 2.91276 3.88678 9.5542 3.49151 19.4188L3.51347 19.4602Z" fill="white"/>
</svg>
