<svg width="352" height="236" viewBox="0 0 352 236" fill="none" xmlns="http://www.w3.org/2000/svg">
<path opacity="0.6" d="M108.897 169.349V92.5327H113.063V104.616C113.555 104.08 114.01 103.511 114.423 102.913C117.903 95.6927 125.243 91.136 133.257 91.226C142.757 90.9427 150.477 94.4593 155.013 102.913C157.9 108.164 159.489 114.03 159.647 120.021C159.804 126.012 158.527 131.953 155.92 137.349C151.693 146.823 141.253 151.533 130.077 149.803C126.598 149.507 123.25 148.345 120.336 146.422C117.422 144.499 115.037 141.878 113.397 138.796V169.346L108.897 169.349ZM113.063 119.706L113.997 128.726C115.643 138.993 121.713 145.059 131.243 146.199C135.719 146.935 140.311 146.096 144.237 143.825C148.163 141.554 151.18 137.992 152.773 133.746C156.48 124.913 156.207 114.913 152.04 106.286C150.339 102.48 147.446 99.3302 143.796 97.3139C140.147 95.2975 135.941 94.5237 131.813 95.1093C127.939 95.3912 124.248 96.8728 121.254 99.3482C118.26 101.824 116.112 105.17 115.107 108.923C114.219 112.474 113.537 116.073 113.063 119.703V119.706ZM244.723 130.146C244.091 135.555 241.517 140.55 237.478 144.202C233.439 147.855 228.211 149.916 222.767 150.003C205.293 150.883 197.093 139.279 195.79 125.889C194.884 118.618 196.064 111.239 199.193 104.613C201.371 100.067 204.94 96.3333 209.382 93.9517C213.824 91.57 218.909 90.6644 223.9 91.366C228.645 91.7693 233.143 93.6546 236.757 96.7551C240.372 99.8557 242.919 104.014 244.04 108.643C244.928 112.859 245.581 117.121 245.997 121.409H200.107C199.257 133.549 205.78 143.309 215.027 145.663C226.543 148.496 236.387 143.506 239.96 132.556C240.753 129.746 242.2 129.349 244.753 130.146H244.723ZM200.073 117.523H241.12C240.863 104.589 232.81 95.1893 221.887 95.0827C209.553 94.8827 200.61 103.906 200.073 117.523ZM253.207 130.429H257.23C257.378 133.393 258.34 136.259 260.012 138.712C261.683 141.164 263.999 143.108 266.703 144.329C270.1 145.858 273.797 146.601 277.52 146.502C281.243 146.404 284.896 145.468 288.207 143.763C290.012 142.95 291.523 141.603 292.538 139.903C293.553 138.204 294.021 136.234 293.88 134.259C293.984 132.355 293.464 130.469 292.399 128.887C291.335 127.305 289.783 126.113 287.98 125.493C283.553 123.846 278.847 122.939 274.337 121.493C269.644 120.157 265.055 118.479 260.607 116.473C253.34 112.926 252.89 99.1127 261.117 94.7393C265.329 92.3624 270.07 91.078 274.906 91.0035C279.742 90.929 284.52 92.0666 288.803 94.3127C294.117 97.246 297.053 103.169 296.18 109.179H292.73C292.73 109.013 292.417 108.866 292.417 108.696C291.99 97.696 282.743 94.256 272.817 95.2227C269.817 95.556 266.973 96.4627 264.307 97.8027C262.704 98.5347 261.368 99.7469 260.484 101.272C259.6 102.796 259.212 104.558 259.373 106.313C259.377 108.069 259.924 109.781 260.94 111.213C261.956 112.646 263.39 113.729 265.047 114.313C269.38 115.903 273.98 116.923 278.463 118.169L289.297 121.003C291.759 121.811 293.918 123.347 295.488 125.409C297.058 127.471 297.966 129.961 298.09 132.549C298.957 138.366 295.99 144.083 290.743 146.733C281.27 152.093 265.667 150.676 258.717 143.899C255.16 140.323 253.177 135.466 253.217 130.426L253.207 130.429ZM349.14 109.183H345.367C345.367 108.673 345.167 108.183 345.11 107.793C345.05 104.964 344.019 102.242 342.19 100.084C340.362 97.9251 337.847 96.4606 335.067 95.936C329.823 94.4319 324.229 94.7014 319.153 96.7027C317.147 97.277 315.38 98.4854 314.117 100.147C312.854 101.809 312.163 103.835 312.147 105.923C312.075 107.972 312.713 109.984 313.953 111.617C315.194 113.25 316.96 114.405 318.953 114.886L336.2 119.313C338.065 119.76 339.902 120.319 341.7 120.986C347.2 122.986 350.933 128.093 351.1 133.929C351.182 136.786 350.399 139.601 348.852 142.005C347.305 144.408 345.068 146.288 342.433 147.396C338.43 149.214 334.092 150.176 329.695 150.221C325.299 150.265 320.942 149.39 316.903 147.653C313.582 146.22 310.779 143.805 308.872 140.732C306.965 137.658 306.045 134.075 306.237 130.463H309.923C311.31 137.146 315.9 142.713 322.197 145.346C328.493 147.979 335.683 147.333 341.41 143.626C343.128 142.732 344.554 141.365 345.52 139.686C346.485 138.007 346.949 136.087 346.857 134.153C346.942 132.247 346.404 130.366 345.323 128.794C344.243 127.222 342.68 126.046 340.87 125.443C336.443 123.796 331.737 122.919 327.227 121.443C322.507 120.127 317.891 118.468 313.413 116.479C306.32 112.989 305.753 99.2893 313.84 94.9193C318.104 92.4426 322.938 91.112 327.869 91.0571C332.8 91.0022 337.661 92.2248 341.98 94.606C344.45 96.0802 346.438 98.2408 347.702 100.825C348.967 103.409 349.452 106.304 349.1 109.159L349.14 109.183ZM102.04 148.616C100.555 149.178 98.9152 149.176 97.4309 148.612C95.9466 148.047 94.7203 146.959 93.9833 145.553L79.3167 125.269L77.19 122.436L60.17 145.583C59.4763 146.929 58.3163 147.976 56.9067 148.53C55.497 149.083 53.9342 149.104 52.51 148.589L74.4367 119.173L54.0367 92.5927C57.0633 91.4993 60.4367 92.686 62.12 95.426L77.32 115.959L92.61 95.506C93.3089 94.1829 94.4696 93.1629 95.8715 92.6399C97.2734 92.1169 98.8187 92.1273 100.213 92.6693L92.2967 103.173L81.5733 117.129C81.2757 117.395 81.0376 117.721 80.8745 118.085C80.7115 118.449 80.6272 118.844 80.6272 119.243C80.6272 119.642 80.7115 120.036 80.8745 120.4C81.0376 120.765 81.2757 121.09 81.5733 121.356L101.997 148.616H102.04ZM195.14 92.3093V96.3093C192.271 96.1211 189.394 96.5366 186.696 97.529C183.997 98.5213 181.537 100.068 179.473 102.071C177.409 104.073 175.788 106.485 174.715 109.152C173.641 111.82 173.139 114.683 173.24 117.556C173.24 126.898 173.24 136.24 173.24 145.583V148.759H169.183V92.5593H173.183V104.076C178.09 95.676 185.663 92.5593 195.167 92.3327L195.14 92.3093ZM0.00666777 118.806L1.79333 109.983C6.7 92.536 26.7 85.276 40.46 96.0827C48.5167 102.409 50.5267 111.373 50.1333 121.473H4.74333C4.01 139.513 17.0267 150.406 33.6767 144.846C39.1633 142.846 43.2933 138.286 44.6533 132.619C45.5333 129.786 46.9867 129.299 49.6467 130.119C49.203 133.573 47.9821 136.881 46.0757 139.795C44.1692 142.709 41.627 145.153 38.64 146.943C33.7052 149.641 28.0434 150.711 22.4642 149.998C16.885 149.285 11.6741 146.826 7.57667 142.973C3.52333 138.416 1.07667 132.656 0.600001 126.573C0.600001 125.573 0.266667 124.639 0.0333341 123.739C0.0111119 122.057 0 120.413 0 118.806H0.00666777ZM4.8 117.586H45.8467C45.59 104.509 37.3367 95.2327 26.33 95.146C14.0767 94.9793 5.31 104.053 4.77 117.529L4.8 117.586Z" fill="black"/>
</svg>
