<svg width="215" height="285" viewBox="0 0 215 285" fill="none" xmlns="http://www.w3.org/2000/svg">
<path d="M20.6768 279.92H195.538C195.538 279.92 201.805 280.709 206.798 274.12C208.237 272.271 209.151 270.069 209.444 267.744C209.737 265.42 209.397 263.06 208.462 260.912L140.799 113.044V21.8098H150.565V5.28877L62.8718 5.22937V21.8098H72.3751V113.044L5.85176 260.916C5.85176 260.916 3.30307 267.604 8.76004 274.124C14.217 280.643 20.6768 279.92 20.6768 279.92Z" fill="#CFCFCF" stroke="#CFCFCF" stroke-width="10"/>
<path d="M55.7839 170.553L79.9986 175.001L93.3415 170.553H113.109L122.992 180.93L140.288 170.553H159.561L196.13 259.01C196.439 259.753 196.599 260.55 196.599 261.355C196.599 262.16 196.439 262.957 196.13 263.7C195.121 266.608 192.668 266.917 192.668 266.917H20.696C20.696 266.917 17.6183 266.608 16.2483 264.306C14.8784 262.004 16.2483 259.01 16.2483 259.01L55.7839 170.553Z" fill="#C73240"/>
<path d="M139.834 227.122C150.038 227.122 158.31 218.851 158.31 208.647C158.31 198.444 150.038 190.172 139.834 190.172C129.631 190.172 121.359 198.444 121.359 208.647C121.359 218.851 129.631 227.122 139.834 227.122Z" fill="white"/>
<path d="M76.2235 259.863C81.7774 259.863 86.2797 255.361 86.2797 249.807C86.2797 244.253 81.7774 239.751 76.2235 239.751C70.6697 239.751 66.1674 244.253 66.1674 249.807C66.1674 255.361 70.6697 259.863 76.2235 259.863Z" fill="white"/>
<path d="M118.553 106.917C123.461 106.917 127.44 102.833 127.44 97.7958C127.44 92.7586 123.461 88.6752 118.553 88.6752C113.645 88.6752 109.666 92.7586 109.666 97.7958C109.666 102.833 113.645 106.917 118.553 106.917Z" fill="#C73240"/>
<path d="M92.1263 44.4749C97.2927 44.4749 101.481 40.2868 101.481 35.1204C101.481 29.954 97.2927 25.7659 92.1263 25.7659C86.96 25.7659 82.7718 29.954 82.7718 35.1204C82.7718 40.2868 86.96 44.4749 92.1263 44.4749Z" fill="#C8AE22"/>
</svg>
