<svg width="238" height="238" viewBox="0 0 238 238" fill="none" xmlns="http://www.w3.org/2000/svg">
<path d="M232.943 108.454L129.544 5.0593C123.59 -0.896883 113.933 -0.896883 107.974 5.0593L86.5052 26.5335L113.74 53.7681C120.07 51.6289 127.327 53.0645 132.371 58.1108C137.446 63.1882 138.869 70.5078 136.675 76.8609L162.928 103.111C169.281 100.92 176.606 102.338 181.678 107.418C188.766 114.505 188.766 125.99 181.678 133.083C174.585 140.173 163.101 140.173 156.005 133.083C150.675 127.747 149.356 119.912 152.059 113.345L127.575 88.8634V153.289C129.302 154.144 130.933 155.284 132.371 156.722C139.459 163.809 139.459 175.294 132.371 182.389C125.284 189.474 113.791 189.474 106.709 182.389C99.6212 175.291 99.6212 163.807 106.709 156.722C108.461 154.972 110.49 153.647 112.655 152.76V87.7346C110.49 86.848 108.467 85.5361 106.709 83.7732C101.34 78.4072 100.049 70.5258 102.802 63.933L75.9537 37.0799L5.05161 107.974C-0.904574 113.936 -0.904574 123.593 5.05161 129.549L108.456 232.946C114.41 238.902 124.064 238.902 130.026 232.946L232.943 130.028C238.9 124.072 238.9 114.41 232.943 108.454Z" fill="#F05133" fill-opacity="0.6"/>
</svg>
