<svg width="237" height="237" viewBox="0 0 237 237" fill="none" xmlns="http://www.w3.org/2000/svg">
<path d="M232.359 107.861L128.959 4.46714C123.006 -1.48905 113.349 -1.48905 107.39 4.46714L85.9207 25.9414L113.155 53.1759C119.485 51.0367 126.743 52.4723 131.787 57.5187C136.861 62.596 138.284 69.9156 136.091 76.2687L162.343 102.519C168.697 100.328 176.021 101.745 181.093 106.825C188.181 113.913 188.181 125.398 181.093 132.49C174.001 139.581 162.516 139.581 155.421 132.49C150.091 127.155 148.771 119.32 151.475 112.753L126.99 88.2713V152.697C128.717 153.552 130.349 154.691 131.787 156.13C138.874 163.217 138.874 174.702 131.787 181.797C124.699 188.882 113.207 188.882 106.124 181.797C99.0367 174.699 99.0367 163.215 106.124 156.13C107.877 154.38 109.905 153.055 112.07 152.168V87.1424C109.905 86.2558 107.882 84.9439 106.124 83.1811C100.756 77.8151 99.4645 69.9336 102.217 63.3409L75.3692 36.4878L4.46714 107.382C-1.48905 113.343 -1.48905 123.001 4.46714 128.957L107.872 232.354C113.825 238.31 123.48 238.31 129.441 232.354L232.359 129.436C238.315 123.48 238.315 113.818 232.359 107.861Z" fill="white" fill-opacity="0.6"/>
</svg>
