<svg width="230" height="225" viewBox="0 0 230 225" fill="none" xmlns="http://www.w3.org/2000/svg">
<path fill-rule="evenodd" clip-rule="evenodd" d="M115 0C51.4625 0 0 51.4625 0 115C0 165.887 32.9187 208.869 78.6312 224.106C84.3812 225.113 86.5375 221.663 86.5375 218.644C86.5375 215.913 86.3938 206.856 86.3938 197.225C57.5 202.544 50.025 190.181 47.725 183.712C46.4312 180.406 40.825 170.2 35.9375 167.469C31.9125 165.312 26.1625 159.994 35.7938 159.85C44.85 159.706 51.3188 168.187 53.475 171.637C63.825 189.031 80.3563 184.144 86.9688 181.125C87.975 173.65 90.9937 168.619 94.3 165.744C68.7125 162.869 41.975 152.95 41.975 108.962C41.975 96.4562 46.4313 86.1062 53.7625 78.0562C52.6125 75.1812 48.5875 63.3937 54.9125 47.5812C54.9125 47.5812 64.5438 44.5625 86.5375 59.3688C95.7375 56.7813 105.513 55.4875 115.288 55.4875C125.063 55.4875 134.838 56.7813 144.038 59.3688C166.031 44.4188 175.663 47.5812 175.663 47.5812C181.988 63.3937 177.963 75.1812 176.813 78.0562C184.144 86.1062 188.6 96.3125 188.6 108.962C188.6 153.094 161.719 162.869 136.131 165.744C140.3 169.337 143.894 176.238 143.894 187.019C143.894 202.4 143.75 214.763 143.75 218.644C143.75 221.663 145.906 225.256 151.656 224.106C197.081 208.869 230 165.744 230 115C230 51.4625 178.538 0 115 0Z" fill="#B8B8B8"/>
</svg>
