<svg width="1920" height="813" viewBox="0 0 1920 813" fill="none" xmlns="http://www.w3.org/2000/svg">
<path d="M0 0.496216H1920V812.496H0V0.496216Z" fill="#2A2A2F"/>
<path d="M908 216.496V236.496" stroke="#C0C0C0"/>
<path d="M898 226.496H918" stroke="#C0C0C0"/>
<path d="M1687 504V524" stroke="#C0C0C0"/>
<path d="M1677 514H1697" stroke="#C0C0C0"/>
<path d="M1487 651V671" stroke="#C0C0C0"/>
<path d="M1477 661H1497" stroke="#C0C0C0"/>
<path d="M369 474V494" stroke="#C0C0C0"/>
<path d="M359 484H379" stroke="#C0C0C0"/>
<path d="M1793 676V696" stroke="#C0C0C0"/>
<path d="M1783 686H1803" stroke="#C0C0C0"/>
<path d="M292 206.496V226.496" stroke="#C0C0C0"/>
<path d="M282 216.496H302" stroke="#C0C0C0"/>
<path d="M641 610V630" stroke="#C0C0C0"/>
<path d="M631 620H651" stroke="#C0C0C0"/>
<path d="M1828 76.4962V106.496" stroke="#C0C0C0"/>
<path d="M1813 91.4962H1843" stroke="#C0C0C0"/>
<path d="M1547 331V361" stroke="#C0C0C0"/>
<path d="M1532 346H1562" stroke="#C0C0C0"/>
<path d="M403 720V750" stroke="#C0C0C0"/>
<path d="M388 735H418" stroke="#C0C0C0"/>
<path d="M913 479V509" stroke="#C0C0C0"/>
<path d="M898 494H928" stroke="#C0C0C0"/>
<path d="M1828 297V327" stroke="#C0C0C0"/>
<path d="M1813 312H1843" stroke="#C0C0C0"/>
<path d="M631.5 297.496V322.496" stroke="#C0C0C0"/>
<path d="M619 309.996H644" stroke="#C0C0C0"/>
<path d="M1013.5 720V745" stroke="#C0C0C0"/>
<path d="M1001 732.5H1026" stroke="#C0C0C0"/>
<path d="M1534.5 103V128" stroke="#C0C0C0"/>
<path d="M1522 115.5H1547" stroke="#C0C0C0"/>
<path d="M1172.5 293.496V318.496" stroke="#C0C0C0"/>
<path d="M1160 305.996H1185" stroke="#C0C0C0"/>
<path d="M1191.5 546V571" stroke="#C0C0C0"/>
<path d="M1179 558.5H1204" stroke="#C0C0C0"/>
<path d="M101.5 349V374" stroke="#C0C0C0"/>
<path d="M89 361.5H114" stroke="#C0C0C0"/>
<path d="M105 661V691" stroke="#C0C0C0"/>
<path d="M90 676H120" stroke="#C0C0C0"/>
</svg>
