<svg width="145" height="145" viewBox="0 0 145 145" fill="none" xmlns="http://www.w3.org/2000/svg">
<g opacity="0.6">
<path d="M145 0H0V145H145V0Z" fill="white"/>
<path d="M97.4065 113.282C100.327 118.05 104.127 121.556 110.848 121.556C116.494 121.556 120.1 118.734 120.1 114.835C120.1 110.163 116.395 108.508 110.18 105.79L106.774 104.328C96.9416 100.139 90.4097 94.8918 90.4097 83.7982C90.4097 73.5792 98.196 65.7998 110.364 65.7998C119.028 65.7998 125.256 68.8149 129.744 76.7093L119.134 83.522C116.797 79.3331 114.277 77.6829 110.364 77.6829C106.374 77.6829 103.844 80.2146 103.844 83.522C103.844 87.6096 106.376 89.2645 112.222 91.7962L115.628 93.2554C127.205 98.2199 133.742 103.281 133.742 114.66C133.742 126.928 124.105 133.648 111.163 133.648C98.509 133.648 90.3338 127.618 86.3336 119.714L97.4065 113.282ZM49.2735 114.462C51.4139 118.26 53.3611 121.471 58.0425 121.471C62.5191 121.471 65.3432 119.719 65.3432 112.909V66.5777H78.9685V113.093C78.9685 127.201 70.6966 133.623 58.6225 133.623C47.713 133.623 41.3951 127.977 38.1821 121.177L49.2735 114.462Z" fill="black"/>
</g>
</svg>
