<svg width="159" height="216" viewBox="0 0 159 216" fill="none" xmlns="http://www.w3.org/2000/svg">
<g opacity="0.6">
<path d="M51.3997 166.703C51.3997 166.703 43.1114 171.744 57.1611 173.186C74.0748 175.342 83.0841 174.985 101.804 171.387C105.566 173.691 109.545 175.62 113.684 177.148C71.568 195.153 18.2666 176.07 51.393 166.703H51.3997ZM46.0089 143.301C46.0089 143.301 37.0063 150.14 51.0493 151.589C69.4117 153.388 83.8119 153.745 108.663 148.712C111.08 151.163 114.039 153.012 117.302 154.109C66.5344 169.23 9.64803 155.551 46.0089 143.307V143.301ZM145.382 184.338C145.382 184.338 151.5 189.378 138.542 193.341C114.418 200.551 37.3702 202.707 15.7666 193.341C8.20599 190.106 22.6062 185.423 27.222 184.702C31.9053 183.624 34.4322 183.624 34.4322 183.624C26.1439 177.862 -20.655 195.504 10.6723 200.537C96.7228 214.58 167.652 194.419 145.328 184.338H145.382ZM55.2946 118.813C55.2946 118.813 16.0496 128.179 41.2516 131.414C52.0534 132.856 73.2931 132.492 93.0975 131.057C109.297 129.615 125.51 126.744 125.51 126.744C125.51 126.744 119.748 129.264 115.786 131.785C75.8268 142.229 -0.870758 137.546 21.0967 126.744C39.8163 117.742 55.3013 118.826 55.3013 118.826L55.2946 118.813ZM125.51 158.058C165.833 137.169 147.113 117.021 134.148 119.534C130.914 120.255 129.465 120.976 129.465 120.976C129.465 120.976 130.543 118.82 133.064 118.099C158.629 109.096 178.791 145.1 124.775 159.136C124.775 159.136 125.132 158.779 125.496 158.058H125.51ZM59.2703 214.944C98.1514 217.464 157.565 213.502 159 195.133C159 195.133 156.123 202.343 126.958 207.734C93.832 213.852 52.7879 213.125 28.6641 209.176C28.6641 209.176 33.7045 213.489 59.2703 214.937V214.944Z" fill="white"/>
<path d="M101.09 0C101.09 0 123.414 22.6818 79.85 56.8864C44.9244 84.6085 71.9323 100.451 79.85 118.456C59.3246 100.094 44.5673 83.8875 54.648 68.7731C69.4053 46.4417 110.092 35.7073 101.09 0ZM89.6343 103.335C100.079 115.215 86.757 126.017 86.757 126.017C86.757 126.017 113.401 112.337 101.157 95.4103C89.9982 79.211 81.346 71.2865 128.158 44.2854C128.158 44.2854 54.3515 62.6478 89.6343 103.335Z" fill="white"/>
</g>
</svg>
