<svg width="202" height="274" viewBox="0 0 202 274" fill="none" xmlns="http://www.w3.org/2000/svg">
<g opacity="0.7">
<path d="M65.3003 211.787C65.3003 211.787 54.7704 218.19 72.6198 220.022C94.1076 222.762 105.553 222.308 129.335 217.737C134.115 220.664 139.17 223.115 144.428 225.056C90.9229 247.931 23.2066 223.686 65.2917 211.787H65.3003ZM58.4516 182.055C58.4516 182.055 47.0143 190.744 64.8551 192.585C88.1834 194.871 106.478 195.324 138.05 188.929C141.121 192.043 144.88 194.392 149.025 195.787C84.528 214.997 12.2572 197.619 58.4516 182.064V182.055ZM184.699 234.19C184.699 234.19 192.472 240.594 176.009 245.628C145.361 254.788 47.4766 257.527 20.0305 245.628C10.4252 241.519 28.7198 235.569 34.584 234.653C40.5337 233.283 43.7441 233.283 43.7441 233.283C33.2142 225.963 -26.2409 248.376 13.5585 254.771C122.881 272.611 212.992 246.997 184.63 234.19H184.699ZM70.2485 150.945C70.2485 150.945 20.3901 162.844 52.4076 166.954C66.1307 168.786 93.1145 168.323 118.275 166.5C138.855 164.668 159.453 161.021 159.453 161.021C159.453 161.021 152.133 164.223 147.099 167.424C96.3334 180.694 -1.10625 174.744 26.8021 161.021C50.5842 149.584 70.257 150.962 70.257 150.962L70.2485 150.945ZM159.453 200.803C210.681 174.265 186.899 148.668 170.428 151.861C166.318 152.777 164.478 153.693 164.478 153.693C164.478 153.693 165.848 150.953 169.049 150.037C201.529 138.6 227.143 184.341 158.519 202.173C158.519 202.173 158.973 201.719 159.435 200.803H159.453ZM75.2994 273.074C124.695 276.276 200.177 271.242 202 247.905C202 247.905 198.345 257.065 161.293 263.914C119.208 271.687 67.0638 270.762 36.416 265.746C36.416 265.746 42.8195 271.225 75.2994 273.065V273.074Z" fill="#4E7896"/>
<path d="M128.428 0C128.428 0 156.79 28.8158 101.444 72.2707C57.0733 107.49 91.3852 127.617 101.444 150.491C75.3679 127.163 56.6196 106.574 69.4266 87.3721C88.1749 59.0014 139.865 45.364 128.428 0ZM113.875 131.281C127.144 146.373 110.219 160.096 110.219 160.096C110.219 160.096 144.069 142.718 128.514 121.213C114.337 100.633 103.345 90.5653 162.817 56.2619C162.817 56.2619 69.0499 79.5902 113.875 131.281V131.281Z" fill="#F58219"/>
</g>
</svg>
