<svg width="312" height="67" viewBox="0 0 312 67" fill="none" xmlns="http://www.w3.org/2000/svg">
<g opacity="0.6">
<path d="M35.0035 33.6625L42.0329 60.8078H36.7297L32.031 41.2589L23.2318 60.8078H18.7575L10.0019 41.3898L5.19102 60.8265H0L6.95459 33.6625H11.5598L21.0383 54.682L30.4544 33.6625H35.0035Z" fill="white"/>
<path d="M62.0335 44.1565V40.997H67.1435V60.8077H62.0335V57.5921C60.675 59.8916 57.8956 61.2065 54.5118 61.2065C47.445 61.2065 43.4941 56.2211 43.4941 50.4879C43.4941 44.9604 47.2332 40.5172 53.7578 40.5172C57.4719 40.5484 60.5566 41.8259 62.0335 44.1565ZM48.9469 50.7746C48.9469 54.4201 51.2402 57.536 55.6771 57.536C59.9646 57.536 62.2952 54.4949 62.2952 50.8868C62.2952 47.2786 59.8898 44.1939 55.4403 44.1939C51.1591 44.1939 48.9469 47.2724 48.9469 50.7746Z" fill="white"/>
<path d="M78.673 60.8078H73.563V40.9972H78.673V45.4342C79.2543 44.0089 80.2418 42.7858 81.5126 41.9172C82.7835 41.0485 84.2816 40.5726 85.8208 40.5485C86.9069 40.5331 87.9871 40.7104 89.0114 41.072L87.9208 44.811C87.038 44.5764 86.1297 44.4508 85.2163 44.4371C81.5333 44.4371 78.673 47.2165 78.673 51.292V60.8078Z" fill="white"/>
<path d="M91.571 35.7814C91.5618 35.4217 91.6273 35.064 91.7632 34.7309C91.8991 34.3978 92.1026 34.0964 92.3608 33.8458C92.619 33.5952 92.9263 33.4009 93.2634 33.275C93.6004 33.149 93.9599 33.0943 94.3191 33.1142C94.6842 33.1023 95.0478 33.1648 95.3879 33.2979C95.7281 33.431 96.0375 33.6319 96.2975 33.8884C96.5575 34.1449 96.7626 34.4517 96.9003 34.79C97.038 35.1282 97.1054 35.491 97.0985 35.8562C97.1064 36.2168 97.0389 36.5752 96.9001 36.9082C96.7613 37.2412 96.5544 37.5415 96.2926 37.7897C96.0309 38.038 95.7201 38.2287 95.3802 38.3497C95.0403 38.4707 94.6789 38.5192 94.3191 38.4922C93.9573 38.5078 93.5961 38.4486 93.2581 38.3183C92.9201 38.1881 92.6126 37.9896 92.3547 37.7353C92.0968 37.4809 91.8942 37.1761 91.7593 36.84C91.6245 36.5038 91.5603 36.1434 91.571 35.7814ZM91.7953 41.0098H96.9365V55.4736C96.9365 56.371 97.1234 57.0128 97.8774 57.0128C98.2062 57.0042 98.5336 56.9667 98.8558 56.9007L99.641 60.6397C98.5631 61.0613 97.4146 61.2729 96.2572 61.2629C94.1135 61.2629 91.8202 60.6397 91.8202 55.7727L91.7953 41.0098Z" fill="white"/>
<path d="M119.771 44.1566V40.9972H124.881V60.8078H119.771V57.5922C118.413 59.8917 115.633 61.2066 112.25 61.2066C105.183 61.2066 101.232 56.2212 101.232 50.4881C101.232 44.9605 104.971 40.5173 111.496 40.5173C115.222 40.5485 118.301 41.826 119.771 44.1566ZM106.685 50.7747C106.685 54.4203 108.978 57.5361 113.415 57.5361C117.702 57.5361 120.033 54.4951 120.033 50.8869C120.033 47.2787 117.628 44.194 113.178 44.194C108.903 44.194 106.685 47.2725 106.685 50.7747Z" fill="white"/>
<path d="M132.731 33.6625H144.989C155.29 33.6625 160.443 39.3458 160.369 47.2352C160.443 55.4361 154.76 60.8078 145.892 60.8078H132.731V33.6625ZM136.115 36.0741V58.4398H145.462C153.657 58.4398 156.779 52.9122 156.779 47.1604C156.779 40.6607 152.866 36.0741 145.462 36.0741H136.115Z" fill="white"/>
<path d="M181.258 60.8077H165.679V33.6624H179.701C185.079 33.6624 190.189 34.6781 190.114 40.698C190.114 44.9418 187.484 46.1071 184.698 46.562C188.649 46.8985 191.017 49.4161 191.017 53.4792C191.073 59.5676 185.733 60.8077 181.258 60.8077ZM180.093 45.5088C185.471 45.5088 186.674 43.4399 186.674 40.8101C186.674 36.8592 184.268 35.9556 180.093 35.9556H168.932V45.5088H180.093ZM180.243 47.8021H168.932V58.5144H180.735C184.044 58.5144 187.54 57.4239 187.54 53.2549C187.54 48.4377 183.514 47.8021 180.243 47.8021Z" fill="white"/>
<path d="M311.544 0.347931C311.269 0.114207 310.918 -0.00953686 310.557 0.000574106C309.571 0.000574106 308.3 0.6675 307.619 1.04265L307.344 1.18159C306.197 1.73773 304.947 2.05222 303.673 2.10556C302.367 2.14724 301.241 2.22366 299.775 2.37302C291.092 3.2692 287.219 9.92457 283.488 16.3611C281.459 19.8625 279.361 23.4819 276.485 26.2851C275.888 26.8613 275.255 27.3985 274.589 27.8934C271.612 30.113 267.874 31.6795 264.953 32.798C262.15 33.8679 259.096 34.8301 256.14 35.761C253.438 36.612 250.881 37.4144 248.533 38.2898C247.474 38.6823 246.574 38.9845 245.779 39.2485C243.643 39.9432 242.097 40.4746 239.846 42.0273C238.967 42.6282 238.085 43.2778 237.484 43.7641C235.695 45.191 234.112 46.8591 232.781 48.7209C231.635 50.4401 230.311 52.034 228.831 53.4762C228.359 53.9417 227.511 54.1709 226.25 54.1709C224.767 54.1709 222.975 53.8652 221.071 53.5422C219.168 53.2192 217.091 52.8475 215.354 52.8475C213.94 52.8475 212.863 53.0768 212.054 53.5422C212.054 53.5422 210.699 54.3342 210.123 55.3589L210.685 55.6125C211.558 56.0864 212.367 56.6701 213.092 57.3492C213.843 58.0491 214.683 58.647 215.59 59.1277C215.882 59.2388 216.147 59.4104 216.368 59.6314C216.128 59.9787 215.781 60.4268 215.416 60.9062C213.412 63.5287 212.245 65.1856 212.915 66.0887C213.236 66.2567 213.595 66.3381 213.957 66.325C218.331 66.325 220.675 65.1891 223.649 63.751C224.507 63.3342 225.385 62.9035 226.428 62.4658C228.164 61.7121 230.033 60.5102 232.013 59.2389C234.636 57.5542 237.348 55.8104 239.974 54.9664C242.138 54.3065 244.392 53.9901 246.654 54.0285C249.433 54.0285 252.358 54.4002 255.178 54.7614C257.283 55.0324 259.458 55.3103 261.594 55.4561C262.424 55.5048 263.192 55.5291 263.942 55.5291C264.941 55.5318 265.94 55.4796 266.933 55.3728L267.169 55.2894C268.67 54.3689 269.371 52.3925 270.049 50.482C270.486 49.2523 270.855 48.1478 271.438 47.4461C271.473 47.4109 271.511 47.3795 271.553 47.3523C271.58 47.3371 271.612 47.3316 271.643 47.3366C271.674 47.3416 271.702 47.357 271.723 47.3801C271.729 47.3981 271.729 47.4176 271.723 47.4357C271.376 54.9073 268.364 59.6487 265.325 63.8657L263.261 66.0297C263.261 66.0297 266.103 66.0297 267.721 65.4045C273.626 63.6399 278.087 59.7495 281.331 53.5457C282.13 51.9534 282.845 50.3197 283.471 48.6514C283.526 48.5125 284.04 48.2554 283.988 48.9745C283.988 49.1863 283.96 49.4226 283.943 49.6692C283.943 49.8151 283.922 49.9644 283.915 50.1138C283.828 51.1559 283.568 53.3581 283.568 53.3581L285.391 52.382C289.789 49.6032 293.179 43.9968 295.75 35.2747C296.823 31.6413 297.605 28.0323 298.296 24.854C299.122 21.033 299.835 17.7575 300.651 16.4861C301.933 14.4923 303.888 13.1446 305.781 11.835C306.042 11.6579 306.299 11.4877 306.552 11.3001C308.935 9.62932 311.301 7.70148 311.818 4.10634V4.02644C312.214 1.34485 311.891 0.677921 311.544 0.347931Z" fill="white"/>
</g>
</svg>
