<svg width="400" height="236" viewBox="0 0 400 236" fill="none" xmlns="http://www.w3.org/2000/svg">
<g opacity="0.6">
<path fill-rule="evenodd" clip-rule="evenodd" d="M55.5234 123.642H63.1743V93.3331L75.1228 119.759C76.4762 122.935 78.4206 124.112 82.1853 124.112C85.95 124.112 87.7783 122.934 89.1766 119.759L101.066 93.3331V123.642H108.776V93.3331C108.776 90.3915 107.598 88.9761 105.126 88.211C99.2994 86.446 95.4147 87.9762 93.6497 91.9177L81.9386 118.049L70.6378 91.9177C68.9309 87.9762 64.9867 86.446 59.1022 88.211C56.6882 88.9761 55.5116 90.3902 55.5116 93.3331L55.5103 123.642H55.5234ZM115.145 98.9829H122.855V115.639C122.797 116.58 123.149 118.7 127.34 118.756C129.516 118.816 143.937 118.756 144.053 118.756V98.8641H151.763V126.114C151.763 132.823 143.453 134.293 139.58 134.353H115.335V129.235H139.642C144.586 128.705 143.997 126.234 143.997 125.41V123.408H127.693C120.1 123.348 115.215 119.994 115.158 116.168V98.9802L115.145 98.9829Z" fill="#00678C"/>
<path fill-rule="evenodd" clip-rule="evenodd" d="M340.921 110.698C336.214 110.579 332.563 111.052 329.502 112.347C328.621 112.703 327.207 112.703 327.091 113.819C327.562 114.287 327.619 115.054 328.032 115.703C328.737 116.881 329.975 118.468 331.092 119.291C332.329 120.234 333.565 121.174 334.858 121.999C337.153 123.41 339.743 124.235 341.979 125.647C343.274 126.472 344.568 127.531 345.863 128.415C346.523 128.886 346.923 129.652 347.747 129.945V129.767C347.335 129.239 347.217 128.474 346.807 127.883C346.217 127.296 345.629 126.765 345.039 126.178C343.333 123.883 341.213 121.88 338.918 120.234C337.035 118.938 332.916 117.174 332.151 114.997L332.035 114.878C333.328 114.76 334.858 114.289 336.095 113.935C338.098 113.407 339.921 113.524 341.979 112.995C342.922 112.757 343.862 112.464 344.805 112.17V111.642C343.746 110.583 342.981 109.17 341.864 108.171C338.863 105.581 335.565 103.05 332.151 100.931C330.327 99.7547 327.972 98.9883 326.031 97.9897C325.322 97.6362 324.147 97.4594 323.735 96.8711C322.673 95.5784 322.086 93.8701 321.321 92.3386C319.616 89.1016 317.967 85.5122 316.496 82.0984C315.437 79.8031 314.788 77.5079 313.495 75.3894C307.432 65.384 300.839 59.3226 290.717 53.3774C288.54 52.1414 285.951 51.6098 283.198 50.9634L278.784 50.726C277.841 50.3144 276.9 49.1958 276.076 48.6655C272.721 46.5471 264.069 41.9565 261.596 48.0192C260.006 51.8446 263.951 55.6107 265.289 57.5537C266.292 58.9071 267.585 60.4373 268.293 61.9675C268.689 62.9673 268.821 64.0279 269.234 65.0871C270.174 67.6766 271.058 70.5615 272.294 72.9754C272.953 74.2114 273.646 75.5081 274.47 76.6254C274.941 77.2718 275.766 77.5672 275.941 78.6265C275.117 79.8045 275.06 81.5681 274.589 83.0416C272.469 89.6925 273.294 97.9317 276.295 102.815C277.238 104.286 279.461 107.524 282.476 106.287C285.125 105.228 284.534 101.873 285.299 98.9302C285.477 98.2245 285.358 97.7536 285.711 97.2813V97.4001L288.125 102.285C289.949 105.168 293.128 108.171 295.775 110.173C297.187 111.232 298.305 113.058 300.07 113.704V113.526H299.954C299.601 112.999 299.071 112.761 298.6 112.35C297.54 111.29 296.364 109.995 295.539 108.818C293.069 105.523 290.892 101.873 288.949 98.1071C288.006 96.2828 287.181 94.2817 286.419 92.4574C286.063 91.7503 286.063 90.6898 285.476 90.3389C284.592 91.6316 283.299 92.7528 282.649 94.3411C281.53 96.8711 281.414 99.9908 281.003 103.228C280.765 103.287 280.871 103.228 280.765 103.347C278.884 102.877 278.235 100.933 277.529 99.2864C275.765 95.1075 275.469 88.3985 276.999 83.5718C277.411 82.3358 279.178 78.451 278.473 77.2744C278.116 76.1558 276.942 75.5094 276.293 74.6256C275.528 73.507 274.707 72.0956 274.176 70.8596C272.765 67.5618 272.059 63.9145 270.528 60.618C269.819 59.0878 268.585 57.4983 267.583 56.0869C266.465 54.4973 265.231 53.3787 264.348 51.4964C264.053 50.85 263.642 49.7894 264.113 49.0824C264.229 48.6115 264.466 48.436 264.935 48.3173C265.7 47.6709 267.879 48.4941 268.644 48.8449C270.82 49.7287 272.645 50.5519 274.469 51.7866C275.294 52.3749 276.177 53.4935 277.237 53.789H278.474C280.358 54.2005 282.475 53.9077 284.238 54.4353C287.358 55.4379 290.182 56.9073 292.715 58.4982C300.424 63.3829 306.782 70.328 311.077 78.6278C311.783 79.9812 312.077 81.2172 312.726 82.63C313.963 85.5149 315.493 88.4565 316.727 91.2834C317.964 94.0495 319.141 96.8764 320.906 99.1716C321.79 100.408 325.32 101.054 326.908 101.702C328.086 102.229 329.909 102.704 330.971 103.351C332.97 104.587 334.971 105.999 336.854 107.353C337.794 108.057 340.739 109.529 340.914 110.703L340.921 110.698ZM280.901 59.5535C280.088 59.5463 279.277 59.6452 278.49 59.8476V59.9664H278.606C279.077 60.9082 279.901 61.5559 280.49 62.3803L281.844 65.2059L281.96 65.0871C282.785 64.4988 283.198 63.557 283.198 62.1455C282.844 61.734 282.786 61.3211 282.492 60.9095C282.138 60.3212 281.373 60.0257 280.901 59.5561V59.5535Z" fill="#00678C"/>
<path fill-rule="evenodd" clip-rule="evenodd" d="M157.638 123.642H179.768C182.357 123.642 184.83 123.115 186.83 122.171C190.185 120.641 191.774 118.583 191.774 115.875V110.225C191.774 108.049 189.95 105.987 186.303 104.576C184.419 103.87 182.064 103.457 179.769 103.457H170.469C167.35 103.457 165.879 102.514 165.466 100.456C165.408 100.221 165.408 99.9852 165.408 99.7504V96.2772C165.408 96.0991 165.408 95.8657 165.466 95.6309C165.877 94.0413 166.702 93.6284 169.423 93.3356H192.082V88.2135H170.541C167.421 88.2135 165.773 88.3916 164.301 88.8625C159.769 90.2739 157.768 92.5112 157.768 96.4527V100.928C157.768 104.398 161.652 107.343 168.244 108.049C168.95 108.108 169.715 108.108 170.48 108.108H178.426C178.72 108.108 179.013 108.108 179.248 108.168C181.662 108.402 182.721 108.814 183.427 109.695C183.898 110.166 184.017 110.579 184.017 111.109V115.581C184.017 116.109 183.663 116.818 182.957 117.405C182.252 117.992 181.13 118.405 179.66 118.465C179.365 118.465 179.191 118.524 178.894 118.524H157.638V123.642ZM239.68 114.757C239.68 119.994 243.638 122.935 251.513 123.526C252.278 123.585 252.984 123.642 253.749 123.642H273.76V118.524H253.573C249.098 118.524 247.392 117.405 247.392 114.699V88.2135H239.666V114.758L239.68 114.757ZM196.658 114.99V96.7468C196.658 92.097 199.953 89.2701 206.37 88.3889C207.076 88.3296 207.782 88.2702 208.428 88.2702H223.023C223.788 88.2702 224.437 88.3296 225.202 88.3889C231.617 89.2701 234.852 92.0956 234.852 96.7468V114.99C234.852 118.756 233.5 120.759 230.32 122.113L237.852 128.938H228.967L222.846 123.407L216.665 123.761H208.425C206.916 123.753 205.413 123.556 203.952 123.174C199.072 121.818 196.658 119.23 196.658 114.99ZM204.955 114.581C204.955 114.816 205.087 115.049 205.133 115.346C205.544 117.463 207.544 118.641 210.605 118.641H217.551L211.195 112.873H220.081L225.671 117.936C226.733 117.346 227.38 116.522 227.614 115.462C227.674 115.228 227.674 114.935 227.674 114.697V97.2164C227.674 96.9816 227.674 96.7481 227.614 96.5107C227.203 94.5109 225.203 93.3936 222.201 93.3936H210.606C207.192 93.3936 204.956 94.8645 204.956 97.2164L204.955 114.581Z" fill="#CE8B2C"/>
<path d="M44.8761 150.198L53.8881 184.999H47.0892L41.0652 159.937L29.7843 184.999H24.0479L12.8229 160.105L6.65512 185.023H0L8.91611 150.198H14.8202L26.972 177.146L39.0439 150.198H44.8761Z" fill="#231F20"/>
<path d="M79.5339 163.652V159.601H86.0852V185H79.5339V180.877C77.7922 183.825 74.229 185.511 69.8908 185.511C60.8309 185.511 55.7656 179.119 55.7656 171.769C55.7656 164.683 60.5592 158.986 68.9241 158.986C73.6857 159.026 77.6405 160.664 79.5339 163.652ZM62.7563 172.137C62.7563 176.81 65.6964 180.805 71.3848 180.805C76.8815 180.805 79.8695 176.906 79.8695 172.28C79.8695 167.655 76.7856 163.7 71.0812 163.7C65.5925 163.7 62.7563 167.647 62.7563 172.137Z" fill="#231F20"/>
<path d="M100.865 184.999H94.3142V159.601H100.865V165.29C101.611 163.462 102.877 161.894 104.506 160.781C106.135 159.667 108.056 159.057 110.029 159.026C111.422 159.006 112.807 159.234 114.12 159.697L112.722 164.491C111.59 164.19 110.425 164.029 109.254 164.011C104.533 164.011 100.865 167.575 100.865 172.8V184.999Z" fill="#231F20"/>
<path d="M117.395 152.914C117.384 152.453 117.468 151.995 117.642 151.568C117.816 151.141 118.077 150.754 118.408 150.433C118.739 150.112 119.133 149.862 119.565 149.701C119.997 149.54 120.458 149.469 120.919 149.495C121.387 149.48 121.853 149.56 122.289 149.731C122.725 149.901 123.122 150.159 123.455 150.488C123.788 150.816 124.051 151.21 124.228 151.643C124.404 152.077 124.491 152.542 124.482 153.01C124.492 153.473 124.405 153.932 124.228 154.359C124.05 154.786 123.784 155.171 123.449 155.489C123.113 155.807 122.715 156.052 122.279 156.207C121.843 156.362 121.38 156.424 120.919 156.39C120.455 156.41 119.992 156.334 119.558 156.167C119.125 156 118.731 155.745 118.4 155.419C118.07 155.093 117.81 154.703 117.637 154.272C117.464 153.841 117.382 153.379 117.395 152.914ZM117.683 159.617H124.274V178.161C124.274 179.311 124.514 180.134 125.481 180.134C125.902 180.123 126.322 180.075 126.735 179.99L127.742 184.784C126.36 185.325 124.887 185.596 123.403 185.583C120.655 185.583 117.715 184.784 117.715 178.544L117.683 159.617Z" fill="#231F20"/>
<path d="M153.547 163.652V159.601H160.099V185H153.547V180.877C151.806 183.825 148.242 185.511 143.904 185.511C134.844 185.511 129.779 179.119 129.779 171.769C129.779 164.683 134.573 158.986 142.937 158.986C147.715 159.026 151.662 160.664 153.547 163.652ZM136.77 172.137C136.77 176.81 139.71 180.805 145.398 180.805C150.895 180.805 153.883 176.906 153.883 172.28C153.883 167.655 150.799 163.7 145.095 163.7C139.614 163.7 136.77 167.647 136.77 172.137Z" fill="#231F20"/>
<path d="M170.165 150.198H185.88C199.086 150.198 205.694 157.484 205.598 167.599C205.694 178.113 198.407 184.999 187.039 184.999H170.165V150.198ZM174.503 153.29V181.964H186.487C196.993 181.964 200.996 174.877 200.996 167.503C200.996 159.17 195.979 153.29 186.487 153.29H174.503Z" fill="#231F20"/>
<path d="M232.386 184.999H212.413V150.198H230.389C237.284 150.198 243.835 151.5 243.739 159.218C243.739 164.659 240.367 166.153 236.796 166.736C241.861 167.167 244.897 170.395 244.897 175.604C244.969 183.41 238.122 184.999 232.386 184.999ZM230.892 165.386C237.787 165.386 239.329 162.733 239.329 159.362C239.329 154.296 236.245 153.138 230.892 153.138H216.583V165.386H230.892ZM231.084 168.326H216.583V182.059H231.715C235.957 182.059 240.439 180.661 240.439 175.316C240.439 169.141 235.278 168.326 231.084 168.326Z" fill="#231F20"/>
<path d="M399.415 107.487C399.063 107.187 398.612 107.029 398.15 107.042C396.885 107.042 395.255 107.897 394.383 108.378L394.031 108.556C392.559 109.269 390.957 109.672 389.324 109.74C387.649 109.794 386.206 109.892 384.327 110.083C373.194 111.232 368.228 119.765 363.446 128.017C360.845 132.506 358.155 137.146 354.468 140.74C353.702 141.478 352.89 142.167 352.036 142.801C348.22 145.647 343.428 147.656 339.683 149.09C336.089 150.461 332.175 151.695 328.385 152.888C324.92 153.979 321.643 155.008 318.632 156.13C317.274 156.633 316.121 157.021 315.101 157.359C312.362 158.25 310.38 158.931 307.494 160.922C306.368 161.692 305.237 162.525 304.466 163.149C302.172 164.978 300.143 167.117 298.437 169.503C296.967 171.708 295.27 173.751 293.373 175.6C292.767 176.197 291.681 176.491 290.064 176.491C288.163 176.491 285.865 176.099 283.425 175.685C280.984 175.27 278.321 174.794 276.094 174.794C274.282 174.794 272.901 175.088 271.864 175.685C271.864 175.685 270.127 176.7 269.388 178.014L270.109 178.339C271.229 178.946 272.266 179.695 273.195 180.565C274.158 181.463 275.235 182.229 276.397 182.845C276.772 182.988 277.112 183.208 277.395 183.491C277.087 183.936 276.642 184.511 276.175 185.126C273.605 188.488 272.109 190.612 272.968 191.77C273.38 191.985 273.84 192.089 274.304 192.073C279.911 192.073 282.917 190.616 286.729 188.773C287.829 188.238 288.955 187.686 290.291 187.125C292.518 186.159 294.914 184.618 297.452 182.988C300.815 180.828 304.293 178.593 307.659 177.51C310.433 176.664 313.323 176.259 316.223 176.308C319.786 176.308 323.535 176.785 327.151 177.248C329.85 177.595 332.638 177.951 335.377 178.138C336.441 178.201 337.425 178.232 338.387 178.232C339.668 178.235 340.948 178.168 342.221 178.031L342.524 177.925C344.448 176.744 345.347 174.211 346.216 171.761C346.777 170.185 347.249 168.769 347.997 167.869C348.042 167.824 348.091 167.784 348.144 167.749C348.179 167.729 348.22 167.722 348.259 167.729C348.299 167.735 348.335 167.755 348.362 167.784C348.37 167.808 348.37 167.833 348.362 167.856C347.917 177.435 344.056 183.513 340.159 188.92L337.514 191.694C337.514 191.694 341.157 191.694 343.232 190.893C350.803 188.63 356.521 183.643 360.68 175.689C361.705 173.648 362.621 171.553 363.423 169.414C363.495 169.236 364.154 168.907 364.087 169.828C364.087 170.1 364.051 170.403 364.029 170.719C364.029 170.906 364.002 171.098 363.993 171.289C363.882 172.625 363.548 175.449 363.548 175.449L365.886 174.197C371.524 170.635 375.87 163.447 379.166 152.265C380.542 147.607 381.544 142.98 382.43 138.905C383.49 134.006 384.403 129.807 385.449 128.177C387.093 125.621 389.6 123.893 392.027 122.214C392.361 121.987 392.69 121.769 393.015 121.528C396.07 119.386 399.103 116.915 399.767 112.305V112.203C400.274 108.765 399.86 107.91 399.415 107.487Z" fill="#231F20"/>
</g>
</svg>
