<svg width="228" height="70" viewBox="0 0 228 70" fill="none" xmlns="http://www.w3.org/2000/svg">
<g opacity="0.6">
<path fill-rule="evenodd" clip-rule="evenodd" d="M0.0102884 61.3413H5.97797V37.7L15.2978 58.3122C16.3535 60.7898 17.8701 61.7076 20.8066 61.7076C23.7431 61.7076 25.1692 60.7888 26.2598 58.3122L35.5334 37.7V61.3413H41.5474V37.7C41.5474 35.4055 40.6286 34.3015 38.7004 33.7047C34.1557 32.3281 31.1256 33.5216 29.7489 36.596L20.6142 56.9787L11.7995 36.596C10.4681 33.5216 7.39169 32.3281 2.80172 33.7047C0.918816 34.3015 0.00102834 35.4045 0.00102834 37.7L0 61.3413H0.0102884ZM46.515 42.1068H52.5289V55.0989C52.4837 55.8325 52.7584 57.4859 56.0272 57.5302C57.7249 57.5765 68.973 57.5302 69.0635 57.5302V42.0142H75.0775V63.2694C75.0775 68.5025 68.5954 69.6487 65.5745 69.696H46.6631V65.7038H65.6229C69.4792 65.2902 69.0203 63.3631 69.0203 62.72V61.1581H56.303C50.3806 61.1118 46.5695 58.4953 46.5253 55.5115V42.1048L46.515 42.1068Z" fill="white"/>
<path fill-rule="evenodd" clip-rule="evenodd" d="M222.62 51.2446C218.949 51.152 216.101 51.5204 213.713 52.5308C213.026 52.8086 211.923 52.8086 211.833 53.679C212.2 54.0443 212.244 54.6421 212.566 55.1483C213.117 56.0671 214.082 57.3049 214.953 57.9469C215.918 58.6826 216.883 59.4162 217.891 60.0593C219.681 61.1602 221.701 61.8033 223.445 62.9053C224.455 63.5483 225.465 64.3745 226.475 65.0639C226.989 65.4312 227.301 66.029 227.944 66.2574V66.1185C227.623 65.707 227.531 65.1102 227.211 64.6493C226.751 64.1914 226.292 63.7767 225.832 63.3189C224.502 61.5286 222.848 59.9667 221.058 58.6826C219.589 57.6722 216.376 56.2955 215.78 54.5978L215.689 54.5052C216.697 54.4126 217.891 54.0453 218.856 53.7696C220.418 53.358 221.84 53.4485 223.445 53.0359C224.181 52.8507 224.914 52.6223 225.65 52.3929V51.9813C224.824 51.1551 224.227 50.0531 223.355 49.2732C221.015 47.2535 218.442 45.279 215.78 43.6266C214.357 42.7088 212.52 42.111 211.005 41.3321C210.453 41.0564 209.536 40.9185 209.215 40.4596C208.387 39.4513 207.929 38.1188 207.332 36.9243C206.002 34.3993 204.716 31.5997 203.568 28.9368C202.742 27.1465 202.236 25.3562 201.228 23.7038C196.499 15.8995 191.356 11.1717 183.46 6.5344C181.763 5.57031 179.743 5.15566 177.596 4.65149L174.153 4.46629C173.417 4.14527 172.684 3.27276 172.041 2.85913C169.424 1.20671 162.675 -2.3739 160.746 2.35497C159.506 5.3388 162.583 8.27634 163.627 9.79192C164.409 10.8476 165.418 12.0411 165.97 13.2347C166.279 14.0146 166.382 14.8418 166.704 15.668C167.437 17.6878 168.127 19.938 169.091 21.8209C169.605 22.785 170.145 23.7964 170.788 24.6679C171.156 25.1721 171.799 25.4025 171.936 26.2287C171.293 27.1476 171.248 28.5232 170.881 29.6725C169.228 34.8603 169.871 41.2868 172.211 45.0959C172.947 46.2431 174.681 48.7691 177.033 47.8039C179.099 46.9777 178.638 44.3612 179.235 42.0657C179.374 41.5152 179.281 41.1479 179.556 40.7796V40.8722L181.439 44.6822C182.862 46.9314 185.341 49.2732 187.406 50.8351C188.507 51.6613 189.38 53.0853 190.756 53.5895V53.4506H190.666C190.39 53.039 189.977 52.8538 189.609 52.5328C188.783 51.7066 187.865 50.6962 187.222 49.7784C185.295 47.2082 183.597 44.3612 182.082 41.4237C181.346 40.0007 180.703 38.4398 180.108 37.0169C179.83 36.4654 179.83 35.6381 179.373 35.3644C178.683 36.3728 177.675 37.2473 177.168 38.4861C176.295 40.4596 176.205 42.893 175.884 45.4179C175.698 45.4642 175.781 45.4179 175.698 45.5105C174.231 45.1442 173.725 43.6276 173.174 42.3435C171.798 39.0839 171.567 33.8509 172.761 30.0861C173.082 29.122 174.461 26.0919 173.91 25.1741C173.632 24.3016 172.717 23.7974 172.21 23.1081C171.614 22.2356 170.973 21.1346 170.559 20.1705C169.458 17.5983 168.908 14.7533 167.713 12.1821C167.16 10.9885 166.197 9.74871 165.417 8.64778C164.544 7.40794 163.582 6.53543 162.893 5.06717C162.663 4.56301 162.342 3.73576 162.709 3.18427C162.8 2.81695 162.985 2.6801 163.35 2.5875C163.947 2.08334 165.647 2.72537 166.244 2.99906C167.941 3.68843 169.364 4.33048 170.787 5.29353C171.43 5.75243 172.12 6.62494 172.946 6.85542H173.911C175.38 7.17644 177.032 6.94802 178.408 7.35958C180.841 8.14155 183.044 9.28776 185.019 10.5286C191.032 14.3387 195.992 19.7559 199.342 26.2298C199.892 27.2854 200.122 28.2495 200.628 29.3515C201.593 31.6017 202.786 33.8962 203.749 36.1011C204.714 38.2588 205.631 40.4637 207.008 42.254C207.697 43.2181 210.451 43.7223 211.69 44.2275C212.608 44.639 214.03 45.0094 214.859 45.5136C216.418 46.4777 217.979 47.5796 219.448 48.6353C220.181 49.1847 222.478 50.333 222.615 51.2487L222.62 51.2446ZM175.804 11.3517C175.17 11.3461 174.538 11.4233 173.924 11.5812V11.6738H174.014C174.381 12.4084 175.024 12.9136 175.483 13.5567L176.54 15.7606L176.631 15.668C177.274 15.2091 177.596 14.4745 177.596 13.3736C177.32 13.0525 177.275 12.7305 177.045 12.4095C176.769 11.9506 176.173 11.7201 175.804 11.3538V11.3517Z" fill="white"/>
<path fill-rule="evenodd" clip-rule="evenodd" d="M79.6592 61.3412H96.9202C98.9399 61.3412 100.869 60.9297 102.429 60.194C105.045 59.0005 106.285 57.3954 106.285 55.283V50.8762C106.285 49.1785 104.862 47.5703 102.017 46.4694C100.548 45.9189 98.7115 45.5969 96.9212 45.5969H89.6674C87.234 45.5969 86.0868 44.8612 85.7647 43.2561C85.7195 43.0729 85.7195 42.8888 85.7195 42.7056V39.9965C85.7195 39.8576 85.7195 39.6755 85.7647 39.4923C86.0857 38.2525 86.7288 37.9305 88.8515 37.702H106.525V33.7068H89.7229C87.2896 33.7068 86.0045 33.8457 84.8562 34.213C81.3209 35.3139 79.76 37.059 79.76 40.1333V43.6244C79.76 46.3305 82.7902 48.628 87.9316 49.1785C88.4821 49.2248 89.0788 49.2248 89.6756 49.2248H95.8738C96.1032 49.2248 96.3316 49.2248 96.5148 49.2711C98.3977 49.4542 99.2239 49.7753 99.7744 50.4626C100.142 50.8299 100.234 51.1519 100.234 51.5656V55.0536C100.234 55.4651 99.9585 56.0187 99.4081 56.4765C98.8576 56.9344 97.983 57.2565 96.8358 57.3028C96.6063 57.3028 96.4705 57.3491 96.239 57.3491H79.6592V61.3412ZM143.652 54.4105C143.652 58.4953 146.739 60.7897 152.882 61.2507C153.478 61.297 154.029 61.3412 154.626 61.3412H170.234V57.3491H154.489C150.998 57.3491 149.667 56.4765 149.667 54.3652V33.7068H143.641V54.4115L143.652 54.4105ZM110.094 54.5926V40.3628C110.094 36.7359 112.665 34.5309 117.67 33.8436C118.221 33.7973 118.771 33.751 119.275 33.751H130.659C131.256 33.751 131.762 33.7973 132.359 33.8436C137.362 34.5309 139.886 36.7349 139.886 40.3628V54.5926C139.886 57.5301 138.832 59.092 136.351 60.1487L142.226 65.4723H135.295L130.521 61.1581L125.7 61.4338H119.273C118.096 61.428 116.923 61.2742 115.784 60.976C111.977 59.9183 110.094 57.8995 110.094 54.5926ZM116.566 54.2737C116.566 54.4568 116.669 54.6389 116.705 54.8704C117.026 56.5218 118.586 57.4406 120.973 57.4406H126.391L121.434 52.9412H128.365L132.725 56.8902C133.553 56.4302 134.058 55.7872 134.241 54.961C134.287 54.7778 134.287 54.5494 134.287 54.3642V40.7291C134.287 40.5459 134.287 40.3638 134.241 40.1786C133.92 38.6188 132.36 37.7473 130.018 37.7473H120.974C118.311 37.7473 116.567 38.8945 116.567 40.7291L116.566 54.2737Z" fill="white"/>
</g>
</svg>
