<svg width="155" height="171" viewBox="0 0 155 171" fill="none" xmlns="http://www.w3.org/2000/svg">
<path d="M70.5066 1.82227C74.7418 -0.601946 80.2582 -0.612896 84.4898 1.82227C105.779 13.8515 127.074 25.8619 148.359 37.8984C152.362 40.1535 155.04 44.609 155 49.222V121.594C155.029 126.399 152.087 130.96 147.863 133.164C126.644 145.127 105.437 157.105 84.2215 169.068C79.8987 171.539 74.2716 171.349 70.0838 168.675C63.7224 164.987 57.3501 161.318 50.9882 157.634C49.6881 156.859 48.2227 156.242 47.3047 154.981C48.1162 153.887 49.5671 153.751 50.746 153.274C53.4014 152.429 55.8402 151.074 58.2797 149.759C58.8965 149.336 59.6496 149.498 60.2409 149.876C65.6807 152.995 71.0724 156.205 76.5303 159.294C77.6947 159.966 78.8737 159.073 79.8689 158.519C100.691 146.75 121.539 135.027 142.357 123.255C143.128 122.884 143.555 122.065 143.492 121.22C143.507 97.3456 143.496 73.4672 143.5 49.5931C143.588 48.6343 143.033 47.7528 142.166 47.3605C121.021 35.4523 99.8868 23.5259 78.7453 11.6147C78.379 11.3628 77.9451 11.2277 77.5006 11.2271C77.0561 11.2264 76.6218 11.3603 76.2548 11.611C55.1133 23.5259 33.9827 35.4632 12.8413 47.3708C11.9774 47.7638 11.3977 48.6307 11.5005 49.5931C11.5041 73.4672 11.5005 97.3456 11.5005 121.223C11.4638 121.636 11.5544 122.049 11.76 122.409C11.9655 122.768 12.2762 123.055 12.6503 123.233C18.292 126.432 23.941 129.609 29.5863 132.797C32.7667 134.509 36.6716 135.526 40.1756 134.214C43.2678 133.105 45.4353 129.95 45.3763 126.667C45.4055 102.932 45.3617 79.1935 45.3982 55.4623C45.3209 54.4087 46.3204 53.5381 47.3448 53.6373C50.0556 53.619 52.77 53.6008 55.4807 53.6446C56.6122 53.619 57.3909 54.7536 57.251 55.8151C57.24 79.7002 57.2802 103.586 57.2327 127.471C57.24 133.837 54.6248 140.763 48.7367 143.878C41.4829 147.636 32.5173 146.839 25.3511 143.235C19.1473 140.139 13.227 136.485 7.13326 133.167C2.89863 130.976 -0.0292848 126.395 0.000523594 121.595V49.222C-0.0438849 44.5135 2.74047 39.9771 6.86863 37.7548C28.0837 25.7822 49.2952 13.8004 70.5066 1.82227Z" fill="white" fill-opacity="0.6"/>
<path d="M89.0178 51.9553C98.2706 51.3597 108.176 51.6024 116.502 56.1607C122.949 59.6537 126.523 66.9848 126.637 74.1467C126.457 75.1127 125.447 75.6456 124.525 75.5793C121.84 75.5757 119.155 75.6158 116.47 75.5611C115.331 75.6049 114.669 74.5549 114.527 73.5481C113.755 70.1214 111.886 66.7275 108.661 65.0746C103.71 62.5956 97.9688 62.7204 92.5699 62.7721C88.6285 62.9813 84.3902 63.3226 81.051 65.6404C78.4875 67.396 77.7088 70.9402 78.6238 73.7945C79.4864 75.844 81.8522 76.5052 83.7879 77.1148C94.9387 80.0311 106.755 79.741 117.693 83.5789C122.221 85.1436 126.651 88.1853 128.201 92.9266C130.229 99.2813 129.34 106.877 124.819 111.978C121.153 116.177 115.813 118.461 110.487 119.702C103.401 121.282 96.0483 121.322 88.8529 120.621C82.087 119.85 75.0461 118.072 69.823 113.462C65.3566 109.584 63.1751 103.541 63.3916 97.7093C63.4433 96.7244 64.424 96.0376 65.3675 96.1186C68.071 96.0967 70.7744 96.0894 73.4778 96.1222C74.5576 96.0449 75.3582 96.9781 75.4136 97.9959C75.9124 101.261 77.1394 104.688 79.9864 106.623C85.4809 110.168 92.3752 109.925 98.6666 110.024C103.879 109.793 109.73 109.723 113.983 106.278C116.227 104.313 116.892 101.026 116.286 98.1978C115.629 95.8101 113.131 94.6975 110.986 93.9699C99.9782 90.4878 88.0299 91.7513 77.1285 87.8136C72.7028 86.2495 68.4232 83.2924 66.7229 78.7457C64.3504 72.3108 65.4375 64.3513 70.4325 59.422C75.3029 54.5188 82.3334 52.6305 89.0178 51.9547V51.9553Z" fill="white" fill-opacity="0.6"/>
</svg>
