<svg width="200" height="220" viewBox="0 0 200 220" fill="none" xmlns="http://www.w3.org/2000/svg">
<path d="M90.9988 2.79627C96.4366 -0.316332 103.519 -0.330391 108.953 2.79627C136.287 18.2413 163.629 33.6622 190.958 49.1166C196.098 52.0121 199.537 57.7327 199.484 63.6556V156.579C199.523 162.747 195.745 168.605 190.322 171.434C163.078 186.794 135.848 202.173 108.608 217.533C103.058 220.706 95.8329 220.462 90.4559 217.028C82.2882 212.293 74.1064 207.582 65.9378 202.852C64.2687 201.857 62.387 201.065 61.2084 199.446C62.2504 198.042 64.1132 197.867 65.627 197.254C69.0364 196.17 72.1677 194.429 75.2998 192.741C76.0919 192.199 77.0588 192.406 77.818 192.891C84.8025 196.896 91.7252 201.017 98.733 204.983C100.228 205.846 101.742 204.701 103.02 203.988C129.754 188.878 156.522 173.825 183.252 158.711C184.242 158.234 184.79 157.183 184.71 156.098C184.728 125.444 184.714 94.7855 184.719 64.1321C184.832 62.9011 184.12 61.7693 183.007 61.2655C155.857 45.9759 128.722 30.6628 101.577 15.3693C101.107 15.046 100.549 14.8725 99.9788 14.8717C99.408 14.8708 98.8504 15.0427 98.3792 15.3646C71.2343 30.6628 44.1035 45.99 16.9587 61.2788C15.8496 61.7834 15.1052 62.8964 15.2372 64.1321C15.2419 94.7855 15.2372 125.444 15.2372 156.103C15.1901 156.632 15.3064 157.163 15.5703 157.624C15.8343 158.086 16.2332 158.455 16.7134 158.683C23.9572 162.79 31.2103 166.869 38.4587 170.963C42.5422 173.161 47.5559 174.467 52.0549 172.783C56.0252 171.359 58.8081 167.307 58.7324 163.092C58.7699 132.617 58.7136 102.138 58.7605 71.6679C58.6613 70.3151 59.9446 69.1974 61.2599 69.3247C64.7404 69.3013 68.2256 69.2778 71.7061 69.3341C73.1589 69.3013 74.1587 70.758 73.979 72.121C73.965 102.788 74.0165 133.457 73.9556 164.124C73.965 172.298 70.6071 181.191 63.0471 185.19C53.7335 190.015 42.2219 188.992 33.0208 184.365C25.0554 180.389 17.4539 175.698 9.62983 171.438C4.19274 168.624 0.433408 162.743 0.471681 156.58V63.6556C0.414662 57.6101 3.98966 51.7856 9.29006 48.9323C36.5294 33.5599 63.7641 18.1757 90.9988 2.79627Z" fill="#8CC84B" fill-opacity="0.6"/>
<path d="M114.762 67.1651C126.643 66.4004 139.361 66.712 150.052 72.5647C158.329 77.0496 162.917 86.4624 163.064 95.658C162.832 96.8984 161.536 97.5826 160.352 97.4975C156.905 97.4928 153.457 97.5443 150.01 97.4741C148.548 97.5303 147.698 96.1821 147.515 94.8895C146.524 90.4896 144.125 86.132 139.983 84.0098C133.626 80.8269 126.255 80.987 119.323 81.0534C114.262 81.3221 108.821 81.7603 104.533 84.7362C101.242 86.9904 100.242 91.541 101.417 95.2058C102.524 97.8373 105.562 98.6863 108.047 99.4689C122.365 103.213 137.536 102.841 151.58 107.769C157.394 109.778 163.082 113.683 165.072 119.771C167.676 127.93 166.535 137.682 160.73 144.233C156.022 149.623 149.166 152.557 142.327 154.15C133.23 156.178 123.789 156.23 114.551 155.329C105.863 154.339 96.8233 152.057 90.1169 146.138C84.3822 141.158 81.5813 133.4 81.8594 125.912C81.9258 124.647 83.1849 123.765 84.3963 123.869C87.8674 123.841 91.3385 123.832 94.8097 123.874C96.1961 123.775 97.224 124.973 97.2951 126.279C97.9355 130.472 99.511 134.871 103.166 137.357C110.221 141.908 119.073 141.596 127.151 141.724C133.843 141.427 141.356 141.337 146.817 136.914C149.698 134.391 150.552 130.17 149.773 126.539C148.93 123.473 145.723 122.044 142.969 121.11C128.835 116.639 113.494 118.262 99.4969 113.206C93.8146 111.198 88.3197 107.401 86.1366 101.563C83.0903 93.3008 84.4861 83.0811 90.8996 76.752C97.1529 70.4565 106.18 68.0321 114.762 67.1643V67.1651Z" fill="#8CC84B" fill-opacity="0.6"/>
</svg>
