<svg width="208" height="193" viewBox="0 0 208 193" fill="none" xmlns="http://www.w3.org/2000/svg">
<rect x="53.8577" y="3.5" width="100.285" height="185.053" rx="9.5" stroke="#B8B8B8" stroke-width="7"/>
<path d="M53.8577 151.844H154.142V179.053C154.142 184.3 149.889 188.553 144.642 188.553H63.3577C58.111 188.553 53.8577 184.3 53.8577 179.053V151.844Z" stroke="#B8B8B8" stroke-width="7"/>
<path d="M53.8577 13C53.8577 7.75329 58.111 3.5 63.3577 3.5H144.642C149.889 3.5 154.142 7.7533 154.142 13V21.6656H53.8577V13Z" stroke="#B8B8B8" stroke-width="7"/>
<circle cx="104" cy="170.199" r="9.93377" fill="#9E9E9E"/>
<path d="M190.755 59.6027C198.07 59.6027 204 47.7427 204 33.1126C204 18.4826 198.07 6.62256 190.755 6.62256" stroke="#B8B8B8" stroke-width="7"/>
<path d="M181.483 52.9802C186.97 52.9802 191.417 44.0852 191.417 33.1127C191.417 22.1401 186.97 13.2451 181.483 13.2451" stroke="#B8B8B8" stroke-width="7"/>
<path d="M172.212 46.3575C175.869 46.3575 178.834 40.4275 178.834 33.1125C178.834 25.7974 175.869 19.8674 172.212 19.8674" stroke="#B8B8B8" stroke-width="7"/>
<path d="M17.245 59.6027C9.92997 59.6027 3.99996 47.7427 3.99996 33.1126C3.99996 18.4826 9.92997 6.62256 17.245 6.62256" stroke="#B8B8B8" stroke-width="7"/>
<path d="M26.5166 52.9802C21.0303 52.9802 16.5828 44.0852 16.5828 33.1127C16.5828 22.1401 21.0303 13.2451 26.5166 13.2451" stroke="#B8B8B8" stroke-width="7"/>
<path d="M35.7881 46.3575C32.1306 46.3575 29.1656 40.4275 29.1656 33.1125C29.1656 25.7974 32.1306 19.8674 35.7881 19.8674" stroke="#B8B8B8" stroke-width="7"/>
</svg>
