<svg width="328" height="173" viewBox="0 0 328 173" fill="none" xmlns="http://www.w3.org/2000/svg">
<g opacity="0.6">
<path d="M0 86.2702C0 133.915 73.4268 172.54 164 172.54C254.573 172.54 328 133.915 328 86.2702C328 38.6256 254.573 0.000154494 164 0.000154494C73.4268 0.000154494 0 38.6256 0 86.2702Z" fill="white"/>
<path d="M89.1056 96.1726C96.2622 96.1726 101.605 94.8528 104.985 92.2511C108.33 89.6762 110.639 85.215 111.85 78.992C112.979 73.1754 112.549 69.114 110.572 66.9222C108.551 64.6836 104.182 63.5482 97.5861 63.5482H86.1492L79.8088 96.1726H89.1056ZM51.6985 136.36C51.1676 136.36 50.6634 136.123 50.3259 135.712C49.9878 135.302 49.8507 134.762 49.9522 134.241L66.7555 47.7859C66.918 46.9502 67.6506 46.3463 68.5024 46.3463H104.718C116.1 46.3463 124.571 49.4367 129.896 55.5327C135.249 61.6608 136.903 70.2267 134.809 80.9922C133.958 85.3781 132.492 89.4514 130.455 93.0982C128.415 96.7492 125.719 100.127 122.441 103.141C118.516 106.813 114.074 109.477 109.251 111.044C104.504 112.59 98.4071 113.375 91.1307 113.375H76.4663L72.2785 134.92C72.116 135.756 71.384 136.36 70.5322 136.36H51.6985Z" fill="black"/>
<path d="M87.6154 65.3268H97.5855C105.546 65.3268 108.312 67.0737 109.251 68.1147C110.81 69.8432 111.104 73.4876 110.103 78.6535C108.977 84.437 106.89 88.5375 103.899 90.8402C100.837 93.1975 95.8593 94.3921 89.1049 94.3921H81.9667L87.6154 65.3268ZM104.717 44.5658H68.5011C66.7975 44.5658 65.333 45.7735 65.008 47.4457L48.2046 133.901C48.0018 134.944 48.2758 136.023 48.9514 136.844C49.6276 137.664 50.6348 138.138 51.6978 138.138H70.531C72.2351 138.138 73.6997 136.931 74.0247 135.259L77.9325 115.153H91.13C98.5932 115.153 104.876 114.339 109.802 112.735C114.869 111.089 119.53 108.298 123.655 104.44C127.067 101.301 129.878 97.7774 132.007 93.9662C134.137 90.1539 135.668 85.9027 136.556 81.3305C138.759 69.9986 136.969 60.9243 131.235 54.3615C125.558 47.8615 116.635 44.5658 104.717 44.5658ZM77.649 97.9512H89.1049C96.6981 97.9512 102.354 96.521 106.07 93.6602C109.787 90.7987 112.294 86.0231 113.596 79.331C114.843 72.9057 114.275 68.3715 111.893 65.7302C109.509 63.0888 104.74 61.7678 97.5855 61.7678H84.6816L77.649 97.9512ZM104.717 48.1249C115.612 48.1249 123.56 50.9839 128.555 56.7027C133.551 62.4214 135.055 70.4037 133.062 80.6519C132.241 84.8735 130.854 88.7333 128.901 92.23C126.945 95.7291 124.391 98.9287 121.236 101.83C117.475 105.349 113.297 107.857 108.7 109.351C104.103 110.848 98.248 111.594 91.13 111.594H74.9981L70.531 134.579H51.6978L68.5011 48.1249H104.717Z" fill="white"/>
<path d="M177.989 113.375C177.457 113.375 176.954 113.138 176.616 112.728C176.278 112.318 176.141 111.778 176.242 111.256L183.675 73.0035C184.382 69.3656 184.208 66.7545 183.185 65.6512C182.558 64.9767 180.677 63.8455 175.113 63.8455H161.647L152.302 111.935C152.139 112.771 151.407 113.375 150.555 113.375H131.87C131.338 113.375 130.835 113.138 130.497 112.728C130.159 112.318 130.022 111.778 130.123 111.256L146.926 24.8013C147.089 23.9655 147.821 23.3617 148.673 23.3617H167.358C167.89 23.3617 168.393 23.599 168.731 24.0088C169.069 24.4193 169.206 24.9585 169.105 25.4805L165.05 46.347H179.537C190.572 46.347 198.056 48.2926 202.414 52.2953C206.857 56.3787 208.244 62.9077 206.535 71.7033L198.717 111.935C198.555 112.771 197.823 113.375 196.97 113.375H177.989Z" fill="black"/>
<path d="M167.357 21.5829H148.672C146.968 21.5829 145.503 22.7906 145.178 24.4628L128.375 110.918C128.172 111.961 128.446 113.04 129.122 113.861C129.799 114.681 130.806 115.156 131.869 115.156H150.554C152.257 115.156 153.722 113.948 154.047 112.276L163.113 65.6258H175.112C180.666 65.6258 181.832 66.8122 181.878 66.8632C182.215 67.2256 182.658 68.9043 181.927 72.665L174.494 110.918C174.291 111.961 174.565 113.04 175.241 113.861C175.918 114.681 176.925 115.156 177.988 115.156H196.969C198.673 115.156 200.138 113.948 200.463 112.276L208.28 72.0439C210.115 62.6001 208.546 55.5158 203.617 50.9864C198.915 46.6675 191.038 44.5683 179.535 44.5683H167.207L170.851 25.8211C171.053 24.7778 170.78 23.6982 170.103 22.8784C169.427 22.0581 168.42 21.5829 167.357 21.5829ZM167.357 25.142L162.89 48.1273H179.535C190.009 48.1273 197.233 49.9554 201.209 53.607C205.185 57.2609 206.376 63.1814 204.787 71.3653L196.969 111.596H177.988L185.421 73.3441C186.267 68.9926 185.956 66.0244 184.487 64.4418C183.018 62.8593 179.892 62.0668 175.112 62.0668H160.178L150.554 111.596H131.869L148.672 25.142H167.357Z" fill="white"/>
<path d="M236.103 96.1726C243.26 96.1726 248.602 94.8528 251.983 92.2511C255.327 89.6768 257.637 85.2156 258.848 78.992C259.977 73.1754 259.547 69.114 257.57 66.9222C255.549 64.6836 251.18 63.5482 244.584 63.5482H233.147L226.806 96.1726H236.103ZM198.697 136.36C198.166 136.36 197.661 136.123 197.324 135.712C196.986 135.302 196.848 134.762 196.95 134.241L213.753 47.7859C213.916 46.9502 214.648 46.3463 215.5 46.3463H251.715C263.098 46.3463 271.569 49.4367 276.894 55.5327C282.248 61.6602 283.9 70.2262 281.807 80.9922C280.954 85.3781 279.49 89.4514 277.452 93.0982C275.412 96.7492 272.716 100.127 269.438 103.141C265.514 106.813 261.072 109.477 256.248 111.044C251.501 112.59 245.405 113.375 238.128 113.375H223.463L219.277 134.92C219.114 135.756 218.382 136.36 217.53 136.36H198.697Z" fill="black"/>
<path d="M234.609 65.3268H244.579C252.54 65.3268 255.305 67.0737 256.245 68.1147C257.804 69.8432 258.099 73.4876 257.096 78.653C255.97 84.437 253.883 88.5375 250.893 90.8402C247.831 93.1975 242.853 94.3921 236.098 94.3921H228.961L234.609 65.3268ZM251.711 44.5658H215.495C213.792 44.5658 212.327 45.7735 212.002 47.4457L195.199 133.901C194.996 134.944 195.27 136.023 195.946 136.844C196.622 137.664 197.629 138.138 198.692 138.138H217.525C219.229 138.138 220.694 136.931 221.019 135.259L224.926 115.153H238.124C245.587 115.153 251.87 114.339 256.796 112.735C261.862 111.089 266.525 108.297 270.65 104.439C274.062 101.3 276.871 97.7774 279.001 93.9662C281.131 90.1539 282.661 85.9027 283.549 81.3305C285.753 69.998 283.963 60.9237 278.229 54.3609C272.551 47.8615 263.629 44.5658 251.711 44.5658ZM224.643 97.9512H236.098C243.692 97.9512 249.347 96.521 253.064 93.6602C256.781 90.7987 259.287 86.0231 260.59 79.331C261.837 72.9057 261.269 68.3715 258.887 65.7302C256.502 63.0888 251.734 61.7678 244.579 61.7678H231.675L224.643 97.9512ZM251.711 48.1249C262.605 48.1249 270.553 50.9839 275.549 56.7027C280.545 62.4214 282.048 70.4037 280.055 80.6519C279.235 84.8735 277.848 88.7333 275.894 92.23C273.939 95.7291 271.385 98.9287 268.229 101.83C264.469 105.349 260.291 107.857 255.694 109.351C251.097 110.848 245.242 111.594 238.124 111.594H221.992L217.525 134.579H198.692L215.495 48.1249H251.711Z" fill="white"/>
</g>
</svg>
