<svg width="178" height="159" viewBox="0 0 178 159" fill="none" xmlns="http://www.w3.org/2000/svg">
<g opacity="0.6">
<path d="M178 79.2763C178 67.4846 163.233 56.3098 140.593 49.3799C145.818 26.3045 143.496 7.94577 133.264 2.06808C130.906 0.689358 128.148 0.0362815 125.137 0.0362815V8.12718C126.806 8.12718 128.148 8.45372 129.273 9.07052C134.208 11.9005 136.348 22.6763 134.679 36.536C134.28 39.9465 133.627 43.5385 132.829 47.203C125.717 45.4614 117.953 44.119 109.79 43.2482C104.892 36.536 99.8121 30.4406 94.6963 25.1072C106.524 14.1137 117.627 8.0909 125.173 8.0909V0C115.196 0 102.134 7.11129 88.9274 19.4472C75.7207 7.18385 62.6592 0.145129 52.6816 0.145129V8.23603C60.192 8.23603 71.3306 14.2226 83.1586 25.1435C78.0791 30.4769 72.9996 36.536 68.1741 43.2482C59.9743 44.119 52.2099 45.4614 45.0987 47.2392C44.2642 43.611 43.6474 40.0917 43.212 36.7174C41.5067 22.8577 43.6111 12.0819 48.5092 9.21564C49.5976 8.56257 51.0126 8.27231 52.6816 8.27231V0.18141C49.6339 0.18141 46.8765 0.834487 44.4819 2.21321C34.2866 8.0909 32.0008 26.4133 37.2617 49.4162C14.6943 56.3823 0 67.5209 0 79.2763C0 91.068 14.7668 102.243 37.4068 109.173C32.1822 132.248 34.5043 150.607 44.7358 156.485C47.0942 157.863 49.8516 158.516 52.8993 158.516C62.8769 158.516 75.9384 151.405 89.1451 139.069C102.352 151.332 115.413 158.371 125.391 158.371C128.439 158.371 131.196 157.718 133.591 156.339C143.786 150.462 146.072 132.139 140.811 109.136C163.306 102.207 178 91.0317 178 79.2763ZM130.761 55.0762C129.418 59.7566 127.749 64.5821 125.863 69.4076C124.375 66.505 122.815 63.6025 121.11 60.6999C119.441 57.7973 117.663 54.9673 115.885 52.2099C121.037 52.9718 126.008 53.9151 130.761 55.0762ZM114.143 93.7166C111.313 98.6146 108.411 103.259 105.4 107.576C99.9935 108.048 94.5149 108.302 89 108.302C83.5214 108.302 78.0428 108.048 72.6731 107.613C69.6616 103.295 66.7228 98.6872 63.8928 93.8254C61.1353 89.0725 58.6319 84.2469 56.3461 79.3851C58.5956 74.5234 61.1354 69.6616 63.8565 64.9086C66.6865 60.0105 69.5891 55.3664 72.6005 51.0489C78.0065 50.5772 83.4851 50.3232 89 50.3232C94.4786 50.3232 99.9572 50.5772 105.327 51.0126C108.338 55.3301 111.277 59.938 114.107 64.7998C116.865 69.5527 119.368 74.3782 121.654 79.24C119.368 84.1018 116.865 88.9636 114.143 93.7166ZM125.863 88.9999C127.822 93.8617 129.491 98.7235 130.87 103.44C126.117 104.601 121.11 105.581 115.921 106.343C117.699 103.549 119.477 100.683 121.146 97.7439C122.815 94.8413 124.375 91.9025 125.863 88.9999ZM89.0726 127.713C85.6983 124.23 82.3241 120.348 78.9861 116.103C82.2515 116.248 85.5895 116.357 88.9637 116.357C92.3742 116.357 95.7485 116.284 99.0501 116.103C95.7848 120.348 92.4105 124.23 89.0726 127.713ZM62.0787 106.343C56.9266 105.581 51.956 104.637 47.203 103.476C48.5455 98.7961 50.2144 93.9705 52.1011 89.145C53.5887 92.0476 55.1488 94.9502 56.8541 97.8527C58.5593 100.755 60.3009 103.585 62.0787 106.343ZM88.8912 30.8398C92.2654 34.3228 95.6396 38.205 98.9776 42.45C95.7122 42.3049 92.3742 42.196 89 42.196C85.5895 42.196 82.2153 42.2686 78.9136 42.45C82.179 38.205 85.5532 34.3228 88.8912 30.8398ZM62.0424 52.2099C60.2646 55.0036 58.4867 57.8699 56.8178 60.8087C55.1488 63.7113 53.5887 66.6139 52.1011 69.5164C50.1419 64.6546 48.4729 59.7928 47.0942 55.0762C51.8471 53.9514 56.8541 52.9718 62.0424 52.2099ZM29.2071 97.635C16.3632 92.1564 8.05463 84.9726 8.05463 79.2763C8.05463 73.58 16.3632 66.3599 29.2071 60.9176C32.3274 59.5751 35.7379 58.3778 39.2572 57.2531C41.3253 64.3644 44.0465 71.7659 47.4207 79.3489C44.0828 86.8955 41.3979 94.2608 39.3661 101.336C35.7742 100.211 32.3636 98.9775 29.2071 97.635ZM48.7269 149.482C43.7925 146.652 41.6519 135.876 43.3208 122.017C43.7199 118.606 44.373 115.014 45.1712 111.35C52.2825 113.091 60.0469 114.434 68.2104 115.304C73.1084 122.017 78.1879 128.112 83.3037 133.445C71.4757 144.439 60.3734 150.462 52.8267 150.462C51.194 150.425 49.8153 150.099 48.7269 149.482ZM134.788 121.835C136.493 135.695 134.389 146.471 129.491 149.337C128.402 149.99 126.987 150.28 125.318 150.28C117.808 150.28 106.669 144.294 94.8414 133.373C99.9209 128.039 105 121.98 109.826 115.268C118.026 114.397 125.79 113.055 132.901 111.277C133.736 114.942 134.389 118.461 134.788 121.835ZM148.757 97.635C145.636 98.9775 142.226 100.175 138.706 101.3C136.638 94.1882 133.917 86.7867 130.543 79.2037C133.881 71.6571 136.566 64.2918 138.598 57.2168C142.19 58.3416 145.6 59.5751 148.793 60.9176C161.637 66.3962 169.945 73.58 169.945 79.2763C169.909 84.9726 161.6 92.1927 148.757 97.635Z" fill="white"/>
<path d="M88.9618 95.8574C98.1192 95.8574 105.543 88.4339 105.543 79.2765C105.543 70.1191 98.1192 62.6956 88.9618 62.6956C79.8044 62.6956 72.3809 70.1191 72.3809 79.2765C72.3809 88.4339 79.8044 95.8574 88.9618 95.8574Z" fill="white"/>
</g>
</svg>
