<svg width="250" height="223" viewBox="0 0 250 223" fill="none" xmlns="http://www.w3.org/2000/svg">
<g opacity="0.6">
<path d="M250 111.343C250 94.7819 229.26 79.0868 197.462 69.3539C204.8 36.9446 201.539 11.1598 187.169 2.90461C183.856 0.968201 179.984 0.0509572 175.754 0.0509572V11.4146C178.098 11.4146 179.984 11.8732 181.563 12.7395C188.494 16.7142 191.5 31.8488 189.156 51.3147C188.595 56.1048 187.678 61.1496 186.557 66.2964C176.569 63.8504 165.664 61.9649 154.199 60.742C147.319 51.3147 140.185 42.7538 133 35.2629C149.613 19.8227 165.206 11.3636 175.805 11.3636V0C161.792 0 143.447 9.98777 124.898 27.3135C106.349 10.0897 88.0044 0.203833 73.9909 0.203833V11.5675C84.5392 11.5675 100.183 19.9755 116.796 35.3139C109.662 42.8047 102.527 51.3147 95.75 60.742C84.2335 61.9649 73.3285 63.8504 63.3407 66.3473C62.1687 61.2515 61.3024 56.3086 60.6909 51.5695C58.2958 32.1035 61.2514 16.969 68.1307 12.9433C69.6595 12.0261 71.6468 11.6184 73.9909 11.6184V0.25479C69.7104 0.25479 65.8376 1.17203 62.4744 3.10844C48.1552 11.3636 44.9448 37.0974 52.3338 69.4048C20.6379 79.1888 -0.00012207 94.8329 -0.00012207 111.343C-0.00012207 127.905 20.7398 143.6 52.5376 153.333C45.1996 185.742 48.4609 211.527 62.8311 219.782C66.1434 221.718 70.0162 222.636 74.2967 222.636C88.3101 222.636 106.655 212.648 125.204 195.322C143.752 212.546 162.097 222.432 176.111 222.432C180.391 222.432 184.264 221.514 187.627 219.578C201.946 211.323 205.157 185.589 197.768 153.282C229.362 143.549 250 127.854 250 111.343ZM183.653 77.3543C181.767 83.9278 179.423 90.7053 176.773 97.4827C174.684 93.406 172.493 89.3294 170.098 85.2528C167.754 81.1761 165.257 77.2014 162.76 73.3286C169.996 74.3987 176.977 75.7236 183.653 77.3543ZM160.314 131.625C156.339 138.504 152.262 145.027 148.033 151.091C140.44 151.753 132.745 152.11 125 152.11C117.305 152.11 109.611 151.753 102.069 151.141C97.8393 145.077 93.7117 138.606 89.7369 131.777C85.8641 125.102 82.348 118.325 79.1377 111.496C82.2971 104.668 85.8641 97.8394 89.686 91.1639C93.6607 84.2846 97.7373 77.7619 101.967 71.6979C109.56 71.0355 117.254 70.6788 125 70.6788C132.695 70.6788 140.389 71.0355 147.931 71.647C152.161 77.711 156.288 84.1826 160.263 91.011C164.136 97.6865 167.652 104.464 170.862 111.292C167.652 118.121 164.136 124.949 160.314 131.625ZM176.773 125C179.525 131.828 181.869 138.657 183.805 145.281C177.13 146.912 170.098 148.288 162.811 149.358C165.308 145.434 167.805 141.408 170.149 137.281C172.493 133.204 174.684 129.077 176.773 125ZM125.102 179.372C120.363 174.48 115.624 169.028 110.935 163.066C115.522 163.269 120.21 163.422 124.949 163.422C129.739 163.422 134.478 163.32 139.115 163.066C134.529 169.028 129.79 174.48 125.102 179.372ZM87.189 149.358C79.953 148.288 72.9717 146.963 66.2962 145.332C68.1817 138.759 70.5258 131.981 73.1756 125.204C75.2649 129.28 77.4561 133.357 79.8511 137.434C82.2461 141.51 84.6921 145.485 87.189 149.358ZM124.847 43.3143C129.586 48.2063 134.325 53.6588 139.013 59.6209C134.427 59.417 129.739 59.2642 125 59.2642C120.21 59.2642 115.471 59.3661 110.834 59.6209C115.42 53.6588 120.159 48.2063 124.847 43.3143ZM87.1381 73.3286C84.6411 77.2523 82.1442 81.278 79.8001 85.4056C77.4561 89.4823 75.2649 93.5589 73.1756 97.6356C70.4239 90.8072 68.0798 83.9788 66.1434 77.3543C72.8189 75.7746 79.8511 74.3987 87.1381 73.3286ZM41.0211 137.128C22.9819 129.433 11.3126 119.344 11.3126 111.343C11.3126 103.343 22.9819 93.2022 41.0211 85.5585C45.4035 83.6731 50.1935 81.9914 55.1364 80.4117C58.0411 90.3995 61.8629 100.795 66.602 111.445C61.9139 122.044 58.143 132.389 55.2893 142.326C50.2445 140.746 45.4544 139.013 41.0211 137.128ZM68.4365 209.947C61.5062 205.972 58.4997 190.838 60.8438 171.372C61.4043 166.582 62.3215 161.537 63.4426 156.39C73.4304 158.836 84.3354 160.722 95.8009 161.945C102.68 171.372 109.814 179.933 116.999 187.424C100.387 202.864 84.794 211.323 74.1947 211.323C71.9016 211.272 69.9652 210.813 68.4365 209.947ZM189.309 171.117C191.704 190.583 188.748 205.717 181.869 209.743C180.34 210.66 178.353 211.068 176.009 211.068C165.461 211.068 149.816 202.66 133.204 187.322C140.338 179.831 147.472 171.321 154.25 161.894C165.766 160.671 176.671 158.785 186.659 156.288C187.831 161.435 188.748 166.378 189.309 171.117ZM208.928 137.128C204.545 139.013 199.755 140.695 194.812 142.275C191.908 132.287 188.086 121.892 183.347 111.241C188.035 100.642 191.806 90.2976 194.659 80.3608C199.704 81.9405 204.494 83.6731 208.979 85.5585C227.018 93.2532 238.687 103.343 238.687 111.343C238.636 119.344 226.967 129.484 208.928 137.128Z" fill="#61DAFB"/>
<path d="M124.949 134.631C137.81 134.631 148.237 124.205 148.237 111.343C148.237 98.4818 137.81 88.0555 124.949 88.0555C112.087 88.0555 101.661 98.4818 101.661 111.343C101.661 124.205 112.087 134.631 124.949 134.631Z" fill="#61DAFB"/>
</g>
</svg>
