<svg width="191" height="191" viewBox="0 0 191 191" fill="none" xmlns="http://www.w3.org/2000/svg">
<path opacity="0.6" d="M173.704 10.0889C171.032 16.4974 167.609 22.5669 163.509 28.1707C154.559 19.183 143.911 12.0643 132.185 7.22831C120.459 2.39236 107.889 -0.064257 95.2046 0.00127742C82.5207 0.0668118 69.9762 2.65319 58.3007 7.61005C46.6252 12.5669 36.0516 19.7953 27.1946 28.875C18.3376 37.9548 11.374 48.7046 6.70857 60.4996C2.04316 72.2946 -0.230935 84.8994 0.0185086 97.5811C0.267953 110.263 3.03596 122.768 8.16158 134.371C13.2872 145.973 20.6682 156.441 29.8754 165.165L33.4118 168.287C46.9073 179.659 63.2854 187.075 80.7341 189.716C98.1829 192.357 116.022 190.12 132.278 183.252C148.534 176.383 162.574 165.152 172.843 150.8C183.112 136.448 189.211 119.535 190.465 101.932C193.074 77.5708 185.921 46.7387 173.707 10.0919L173.704 10.0889ZM43.4875 165.72C42.4691 166.978 41.1005 167.906 39.5546 168.386C38.0087 168.867 36.3552 168.877 34.8031 168.418C33.2511 167.958 31.8703 167.048 30.8355 165.803C29.8006 164.559 29.1582 163.035 28.9896 161.425C28.821 159.815 29.1337 158.191 29.8881 156.759C30.6426 155.327 31.8049 154.151 33.2279 153.379C34.651 152.608 36.271 152.276 37.8828 152.425C39.4946 152.575 41.0258 153.199 42.2828 154.219C43.9665 155.585 45.039 157.564 45.2649 159.72C45.4908 161.877 44.8515 164.035 43.4875 165.72ZM173.311 137.064C149.695 168.523 99.2717 157.908 66.9426 159.434C66.9426 159.434 61.2115 159.771 55.4417 160.716C55.4417 160.716 57.6184 159.792 60.4005 158.739C83.1042 150.838 93.8358 149.317 107.627 142.22C133.593 129.019 159.278 100.111 164.616 70.0596C154.737 98.9685 124.74 123.828 97.4349 133.925C78.7209 140.822 44.9128 147.54 44.9128 147.54L43.5501 146.809C20.5482 135.627 19.8385 85.8097 61.6707 69.7435C79.9882 62.6885 97.5124 66.5619 117.294 61.8417C138.417 56.8232 162.856 40.9986 172.801 20.3464C183.923 53.3852 197.323 105.096 173.296 137.085L173.311 137.064Z" fill="white"/>
</svg>
