<svg width="203" height="203" viewBox="0 0 203 203" fill="none" xmlns="http://www.w3.org/2000/svg">
<path opacity="0.7" d="M184.618 10.7227C181.777 17.5339 178.14 23.9847 173.782 29.9406C164.27 20.3882 152.953 12.8222 140.49 7.68244C128.027 2.54267 114.667 -0.0682941 101.186 0.00135768C87.7052 0.0710094 74.3727 2.81989 61.9636 8.08817C49.5546 13.3564 38.3166 21.039 28.9032 30.6892C19.4897 40.3394 12.0886 51.7646 7.13005 64.3006C2.17152 76.8367 -0.245444 90.2334 0.0196714 103.712C0.284787 117.19 3.2267 130.482 8.67435 142.813C14.122 155.144 21.9667 166.27 31.7524 175.542L35.511 178.86C49.8543 190.946 67.2614 198.828 85.8064 201.635C104.351 204.442 123.312 202.064 140.589 194.765C157.866 187.465 172.788 175.528 183.702 160.275C194.617 145.021 201.099 127.045 202.432 108.337C205.205 82.4444 197.602 49.6751 184.621 10.7259L184.618 10.7227ZM46.2197 176.132C45.1374 177.469 43.6827 178.455 42.0397 178.966C40.3967 179.476 38.6393 179.488 36.9897 178.999C35.3402 178.51 33.8726 177.543 32.7728 176.22C31.6729 174.897 30.9902 173.278 30.8109 171.567C30.6317 169.856 30.9641 168.13 31.7659 166.608C32.5677 165.086 33.8031 163.836 35.3156 163.016C36.8281 162.196 38.5498 161.843 40.2628 162.002C41.9759 162.161 43.6034 162.824 44.9393 163.908C46.7288 165.36 47.8687 167.463 48.1088 169.755C48.3488 172.047 47.6694 174.34 46.2197 176.132V176.132ZM184.199 145.676C159.099 179.111 105.509 167.828 71.1484 169.451C71.1484 169.451 65.0573 169.809 58.9249 170.814C58.9249 170.814 61.2384 169.831 64.1952 168.713C88.3254 160.314 99.7312 158.698 114.389 151.155C141.986 137.125 169.285 106.4 174.958 74.4612C164.459 105.186 132.577 131.608 103.556 142.339C83.6667 149.669 47.7345 156.809 47.7345 156.809L46.2862 156.033C21.8392 144.148 21.0849 91.2008 65.5453 74.1253C85.0136 66.627 103.639 70.7438 124.663 65.727C147.114 60.3933 173.088 43.5744 183.657 21.6247C195.478 56.7392 209.721 111.699 184.183 145.698L184.199 145.676Z" fill="#68BD45"/>
</svg>
