<svg width="149" height="149" viewBox="0 0 149 149" fill="none" xmlns="http://www.w3.org/2000/svg">
<g opacity="0.6">
<path d="M134.449 0H14.5508C6.51461 0 0 6.51461 0 14.5508V134.449C0 142.485 6.51461 149 14.5508 149H134.449C142.485 149 149 142.485 149 134.449V14.5508C149 6.51461 142.485 0 134.449 0Z" fill="white"/>
<path fill-rule="evenodd" clip-rule="evenodd" d="M92.2519 118.443V132.994C94.6092 134.216 97.4902 135.119 100.691 135.73C103.893 136.341 107.385 136.632 110.877 136.632C114.369 136.632 117.57 136.312 120.771 135.642C123.973 134.973 126.592 133.867 128.92 132.441C131.277 130.899 133.285 128.949 134.449 126.33C135.613 123.711 136.515 120.801 136.515 117.017C136.515 114.369 136.108 112.07 135.322 110.033C134.536 107.996 133.402 106.25 131.83 104.795C130.346 103.252 128.629 101.885 126.592 100.721C124.555 99.5565 122.227 98.3342 119.607 97.2283C117.687 96.4426 116.115 95.686 114.369 94.9293C112.856 94.1727 111.546 93.416 110.586 92.6594C109.509 91.8736 108.694 91.0588 108.112 90.2149C107.53 89.3418 107.239 88.3815 107.239 87.3047C107.239 86.3152 107.498 85.4131 108.025 84.5983C108.552 83.7834 109.276 83.1141 110.208 82.532C111.139 81.95 112.303 81.5135 113.7 81.1934C115.068 80.8733 116.581 80.7277 118.356 80.7277C119.578 80.7277 120.859 80.818 122.139 81.0013C123.478 81.1846 124.846 81.4669 126.213 81.8452C127.581 82.2236 128.92 82.6892 130.288 83.2712C131.568 83.8533 132.761 84.5226 133.78 85.2792V71.6015C131.568 70.7575 129.124 70.1173 126.504 69.7099C123.885 69.3025 120.975 69.0988 117.483 69.0988C113.991 69.0988 110.79 69.4771 107.588 70.2046C104.387 70.9322 101.768 72.0962 99.44 73.6968C97.0828 75.2683 95.3658 77.189 93.9107 79.8081C92.5429 82.2527 91.8736 85.0464 91.8736 88.5386C91.8736 92.9038 93.125 96.687 95.6568 99.5972C98.1595 102.798 102.059 105.127 107.006 107.455C109.014 108.269 110.79 109.084 112.536 109.87C114.282 110.656 115.737 111.471 116.901 112.315C118.152 113.159 119.142 114.09 119.811 115.079C120.539 116.069 120.917 117.233 120.917 118.571C120.917 119.503 120.69 120.376 120.248 121.191C119.805 122.005 119.113 122.704 118.181 123.286C117.25 123.868 116.115 124.334 114.689 124.683C113.321 125.003 111.779 125.177 109.742 125.177C106.541 125.177 103.34 124.625 100.429 123.519C97.2283 122.413 94.3181 120.754 91.699 118.571L92.2519 118.443ZM67.8066 82.6484H86.4316V70.7168H34.3398V82.6484H52.9648V135.904H67.8066V82.6484Z" fill="black"/>
</g>
</svg>
