<svg width="200" height="200" viewBox="0 0 200 200" fill="none" xmlns="http://www.w3.org/2000/svg">
<g opacity="0.6">
<path d="M180.469 0H19.5311C8.74432 0 -0.00012207 8.74444 -0.00012207 19.5312V180.469C-0.00012207 191.256 8.74432 200 19.5311 200H180.469C191.255 200 200 191.256 200 180.469V19.5312C200 8.74444 191.255 0 180.469 0Z" fill="#3178C6"/>
<path fill-rule="evenodd" clip-rule="evenodd" d="M123.828 158.984V178.516C126.992 180.156 130.859 181.367 135.156 182.188C139.453 183.008 144.141 183.398 148.828 183.398C153.516 183.398 157.812 182.969 162.109 182.07C166.406 181.172 169.922 179.688 173.047 177.773C176.211 175.703 178.906 173.086 180.469 169.57C182.031 166.055 183.242 162.148 183.242 157.07C183.242 153.516 182.695 150.43 181.641 147.695C180.586 144.961 179.062 142.617 176.953 140.664C174.961 138.594 172.656 136.758 169.922 135.195C167.187 133.633 164.062 131.992 160.547 130.508C157.969 129.453 155.859 128.438 153.516 127.422C151.484 126.406 149.726 125.391 148.437 124.375C146.992 123.32 145.898 122.227 145.117 121.094C144.336 119.922 143.945 118.633 143.945 117.188C143.945 115.859 144.293 114.649 145 113.555C145.707 112.461 146.68 111.563 147.93 110.781C149.18 110 150.742 109.414 152.617 108.984C154.453 108.555 156.484 108.359 158.867 108.359C160.508 108.359 162.226 108.481 163.945 108.727C165.742 108.973 167.578 109.352 169.414 109.859C171.25 110.367 173.047 110.992 174.883 111.774C176.601 112.555 178.203 113.453 179.57 114.469V96.1094C176.601 94.9766 173.32 94.1172 169.805 93.5704C166.289 93.0235 162.383 92.7501 157.695 92.7501C153.008 92.7501 148.711 93.2579 144.414 94.2344C140.117 95.211 136.601 96.7735 133.476 98.9219C130.312 101.031 128.008 103.609 126.055 107.125C124.219 110.406 123.32 114.156 123.32 118.844C123.32 124.703 125 129.781 128.398 133.688C131.758 137.984 136.992 141.109 143.633 144.234C146.328 145.328 148.711 146.422 151.055 147.477C153.398 148.531 155.351 149.625 156.914 150.758C158.594 151.891 159.922 153.141 160.82 154.469C161.797 155.797 162.305 157.359 162.305 159.156C162.305 160.406 162 161.578 161.406 162.672C160.812 163.766 159.883 164.703 158.633 165.484C157.383 166.266 155.859 166.891 153.945 167.359C152.109 167.789 150.039 168.023 147.305 168.023C143.008 168.023 138.711 167.281 134.805 165.797C130.508 164.313 126.601 162.086 123.086 159.156L123.828 158.984ZM91.0155 110.938H116.016V94.9219H46.0936V110.938H71.0936V182.422H91.0155V110.938Z" fill="white"/>
</g>
</svg>
