<svg width="446" height="145" viewBox="0 0 446 145" fill="none" xmlns="http://www.w3.org/2000/svg">
<path d="M24.6793 124.633C26.0302 124.633 27.1263 123.531 27.1263 122.171C27.1263 120.812 26.0302 119.708 24.6793 119.708C23.3321 119.708 22.2358 120.812 22.2358 122.171C22.2358 123.531 23.3321 124.633 24.6793 124.633Z" fill="white"/>
<path d="M213.942 143.932C215.293 143.932 216.389 142.83 216.389 141.471C216.389 140.11 215.293 139.006 213.942 139.006C212.594 139.006 211.5 140.11 211.5 141.471C211.5 142.83 212.594 143.932 213.942 143.932Z" fill="white"/>
<path d="M98.1666 129.015L98.1657 129.006C98.1598 126.262 97.2075 123.947 95.4779 122.383L95.3564 122.274L95.3287 122.249H95.3226C93.6956 120.852 91.4929 120.115 88.8798 120.09C88.8705 120.088 88.8482 120.088 88.8235 120.088C88.7994 120.088 88.7746 120.088 88.7504 120.091L88.7317 120.09C88.6531 120.09 88.6003 120.092 88.5619 120.094C88.5312 120.092 88.4824 120.09 88.4248 120.09L88.3856 120.091C88.3654 120.089 88.3407 120.088 88.3088 120.088H88.2993C88.3023 120.088 88.2946 120.088 88.286 120.088C88.2725 120.088 88.2545 120.088 88.2352 120.09C85.629 120.119 83.4337 120.853 81.8116 122.249H81.804L81.6556 122.383C79.9325 123.94 78.9802 126.245 78.9678 128.975L78.9667 128.978L78.964 128.988L78.9507 143.12C78.9507 143.309 79.031 143.495 79.1719 143.626C79.3128 143.76 79.5102 143.838 79.7084 143.838H82.2237C82.4219 143.838 82.6167 143.76 82.7592 143.626C82.9018 143.495 82.9807 143.309 82.9807 143.12L82.9864 129.465C83.0017 127.464 83.5133 126.046 84.4371 125.109C85.3317 124.202 86.6975 123.689 88.5772 123.653C90.4389 123.689 91.8023 124.202 92.6973 125.109C93.6201 126.046 94.1319 127.464 94.1479 129.469L94.1443 143.12C94.1443 143.309 94.2244 143.495 94.3656 143.626C94.5073 143.76 94.7038 143.838 94.9022 143.838H97.4213C97.6196 143.838 97.8149 143.76 97.9568 143.626C98.1007 143.495 98.1792 143.309 98.1792 143.12L98.1666 129.015Z" fill="white"/>
<path d="M185.866 129.015L185.866 129.006C185.86 126.262 184.907 123.947 183.178 122.383L183.056 122.274L183.028 122.249H183.023C181.396 120.852 179.193 120.115 176.58 120.09C176.57 120.088 176.548 120.088 176.524 120.088C176.499 120.088 176.475 120.088 176.451 120.091L176.432 120.09C176.353 120.09 176.3 120.092 176.262 120.094C176.231 120.092 176.182 120.09 176.125 120.09L176.085 120.091C176.065 120.089 176.041 120.088 176.009 120.088H175.999C176.003 120.088 175.994 120.088 175.986 120.088C175.973 120.088 175.954 120.088 175.935 120.09C173.329 120.119 171.134 120.853 169.512 122.249H169.504L169.355 122.383C167.633 123.94 166.68 126.245 166.668 128.975L166.667 128.978L166.664 128.988L166.65 143.12C166.65 143.309 166.731 143.495 166.872 143.626C167.012 143.76 167.21 143.838 167.408 143.838H169.923C170.122 143.838 170.316 143.76 170.459 143.626C170.602 143.495 170.68 143.309 170.68 143.12L170.686 129.465C170.701 127.464 171.213 126.046 172.137 125.109C173.032 124.202 174.397 123.689 176.277 123.653C178.139 123.689 179.502 124.202 180.397 125.109C181.32 126.046 181.832 127.464 181.848 129.469L181.844 143.12C181.844 143.309 181.925 143.495 182.066 143.626C182.207 143.76 182.404 143.838 182.602 143.838H185.121C185.319 143.838 185.515 143.76 185.657 143.626C185.8 143.495 185.879 143.309 185.879 143.12L185.866 129.015Z" fill="white"/>
<path d="M138.841 132.029V132.078V132.084V132.136C138.835 134.386 138.596 136.586 137.74 138.16C136.899 139.674 135.546 140.685 132.919 140.725C132.902 140.723 132.874 140.723 132.821 140.725H132.777C130.132 140.698 128.761 139.685 127.916 138.157C127.053 136.577 126.811 134.36 126.811 132.095V131.959C126.813 129.709 127.053 127.903 127.916 126.33C128.761 124.802 130.132 123.788 132.777 123.763H132.795H132.838H132.879C135.525 123.788 136.891 124.8 137.743 126.333C138.601 127.903 138.841 129.709 138.841 131.959V132.029ZM139.586 122.501C139.572 122.485 139.559 122.469 139.541 122.453C138.108 121.131 135.817 120.313 133.163 120.31C133.127 120.305 133.072 120.305 133.02 120.305C130.838 120.304 128.685 120.76 126.813 122.362L126.811 122.364V120.958H126.815V113.837C126.815 113.649 126.735 113.464 126.594 113.333C126.453 113.2 126.256 113.122 126.057 113.122H123.579C123.381 113.122 123.186 113.2 123.043 113.333C122.9 113.464 122.822 113.649 122.822 113.837V120.958H122.824V136.076H122.822V143.159C122.822 143.347 122.903 143.531 123.043 143.662C123.185 143.796 123.381 143.872 123.58 143.872H126.058C126.256 143.872 126.452 143.796 126.594 143.662C126.738 143.531 126.816 143.347 126.816 143.159V141.694C128.47 143.544 130.843 144.181 133.02 144.18H133.174C135.822 144.172 138.113 143.353 139.541 142.034C142.211 139.506 142.821 135.631 142.83 132.029C142.823 128.447 142.211 125.02 139.586 122.501Z" fill="white"/>
<path d="M71.9863 135.253C71.9805 137.144 71.5668 138.188 71.011 138.675C69.6704 139.912 68.0109 140.098 65.9893 140.102H65.9673H65.9298C63.9828 140.104 62.7036 139.766 61.9781 139.241C61.2894 138.743 60.9338 138.031 60.9167 136.806V136.75C60.9299 135.534 61.2991 134.775 61.9956 134.24C62.7248 133.686 63.9521 133.325 65.7901 133.325H65.8059H71.9863V135.253ZM76.1477 127.968V127.952C76.1486 125.556 75.3516 123.501 73.6803 122.128C71.9969 120.746 69.5811 120.096 66.4712 120.095H66.359H66.3168C63.0516 120.085 60.4574 120.796 58.4828 122.898L58.4752 122.89L58.3621 123.025C58.2137 123.19 58.0681 123.359 57.9272 123.541C57.9272 123.541 57.9243 123.545 57.9232 123.546L57.7211 123.786C57.6003 123.929 57.541 124.121 57.5658 124.315C57.587 124.51 57.6857 124.697 57.8362 124.826L57.9503 124.925C57.9941 124.978 58.0421 125.027 58.0957 125.072L58.5375 125.434L59.7122 126.45C59.8625 126.582 60.061 126.652 60.2535 126.642C60.4443 126.634 60.6242 126.547 60.7442 126.403L61.4993 125.508C61.9691 124.997 62.4516 124.635 63.035 124.38C63.8591 124.018 64.9168 123.849 66.4444 123.835H66.4627L66.5144 123.832C68.6873 123.838 70.0393 124.279 70.8137 124.959C71.5858 125.627 71.9778 126.637 71.9836 128.208C71.9836 128.218 71.9836 128.246 71.9863 128.282V129.763H65.534C62.9308 129.769 60.7536 130.357 59.1825 131.583C57.6216 132.781 56.7514 134.627 56.7505 136.776L56.7514 136.857C56.7553 138.648 57.428 140.404 58.6506 141.624C60.3025 143.252 62.5022 143.843 65.8262 143.843H65.8636H67.5481C70.5922 143.846 72.7759 143.094 74.1826 141.577C75.5863 140.06 76.1486 137.867 76.1486 135.139V128.01L76.1477 127.968Z" fill="white"/>
<path d="M148.643 136.831V136.775C148.655 135.561 149.025 134.802 149.722 134.269C150.451 133.713 151.679 133.354 153.516 133.354H153.532H159.713V135.279C159.707 137.169 159.293 138.212 158.737 138.7C157.397 139.935 155.737 140.121 153.714 140.126H153.692H153.656C151.708 140.128 150.43 139.79 149.705 139.264C149.015 138.767 148.66 138.056 148.643 136.831ZM163.874 127.999V127.983C163.875 125.587 163.078 123.535 161.406 122.163C159.724 120.781 157.308 120.131 154.199 120.13H154.086H154.043C150.777 120.122 148.184 120.832 146.21 122.931L146.202 122.925L146.089 123.06C145.94 123.224 145.794 123.394 145.652 123.574C145.651 123.576 145.651 123.578 145.649 123.58L145.447 123.82C145.327 123.962 145.267 124.155 145.292 124.348C145.313 124.543 145.412 124.73 145.562 124.86L145.676 124.959C145.721 125.011 145.768 125.06 145.822 125.104L146.264 125.467L147.438 126.483C147.589 126.613 147.787 126.683 147.979 126.674C148.17 126.666 148.349 126.579 148.47 126.436L149.224 125.54C149.695 125.03 150.178 124.668 150.762 124.412C151.585 124.051 152.643 123.882 154.17 123.868L154.189 123.867L154.24 123.866C156.414 123.87 157.766 124.313 158.54 124.991C159.312 125.659 159.703 126.669 159.71 128.239C159.71 128.249 159.71 128.277 159.713 128.312V129.793H153.26C150.657 129.799 148.48 130.386 146.908 131.612C145.348 132.809 144.478 134.654 144.477 136.802L144.478 136.883C144.482 138.673 145.154 140.428 146.377 141.646C148.029 143.273 150.229 143.865 153.553 143.865H153.59H155.275C158.319 143.867 160.502 143.115 161.909 141.599C163.312 140.084 163.875 137.892 163.875 135.166V128.04L163.874 127.999Z" fill="white"/>
<path d="M37.3804 120.175H33.1301L33.1284 115.867H33.1265L33.1254 113.782C33.1254 113.408 32.7978 113.102 32.3934 113.102H29.838C29.6456 113.102 29.4557 113.174 29.3216 113.301C29.1844 113.428 29.104 113.605 29.104 113.782V117.623H29.106V137.817C29.1078 139.458 29.5802 140.935 30.6189 142.053C31.6086 143.136 33.2125 143.812 35.0659 143.812H35.0725H36.3037V143.796H37.3804C37.5676 143.796 37.7504 143.715 37.881 143.573C38.014 143.431 38.0896 143.234 38.0896 143.033V140.537C38.0896 140.337 38.014 140.14 37.881 139.997C37.7504 139.854 37.5676 139.774 37.3804 139.774H35.4052C35.0053 139.759 34.6843 139.71 34.4046 139.611C34.2262 139.55 34.1161 139.481 34.0136 139.416C33.9005 139.336 33.8383 139.298 33.7273 139.182C33.3467 138.784 33.136 138.155 33.1301 137.217V124.198H37.3804C37.5676 124.198 37.7504 124.117 37.881 123.975C38.014 123.832 38.0896 123.635 38.0896 123.434V120.937C38.0896 120.738 38.014 120.542 37.881 120.398C37.7504 120.254 37.5676 120.175 37.3804 120.175Z" fill="white"/>
<path d="M55.7091 123.126L55.4733 122.864C55.4638 122.833 55.4465 122.804 55.4178 122.774L55.2752 122.628L55.0795 122.425L54.9184 122.245L54.9119 122.252C53.466 120.731 51.6664 120.09 49.7503 120.088C49.711 120.088 49.6649 120.089 49.5999 120.09C48.2392 120.09 46.6331 120.701 45.6693 121.861L45.0053 122.65V122.32V120.887C45.0053 120.699 44.9249 120.514 44.7841 120.384C44.6423 120.25 44.4459 120.173 44.2464 120.173H41.7695C41.5704 120.173 41.3747 120.25 41.2329 120.384C41.0903 120.514 41.0117 120.699 41.0117 120.887V122.32V143.131C41.0117 143.32 41.0921 143.503 41.2329 143.635C41.3737 143.769 41.5704 143.845 41.7695 143.845H42.1969C42.2103 143.846 42.2247 143.849 42.2381 143.849H43.7988C43.8135 143.849 43.8268 143.846 43.8412 143.845H44.2476C44.4459 143.845 44.6411 143.769 44.7841 143.635C44.9267 143.503 45.0053 143.32 45.0053 143.131V142.746C45.0053 142.741 45.0062 142.736 45.0062 142.731V129.534C45.0062 129.517 45.0053 129.501 45.0053 129.483V128.415C45.0803 127.189 45.469 126.084 46.1073 125.282C46.7913 124.425 47.7935 123.869 49.1457 123.865C49.8611 123.865 50.3317 123.951 50.7392 124.12C51.1318 124.292 51.5325 124.585 52.0585 125.128L52.1774 125.25L52.7157 125.85C52.8424 125.992 53.0273 126.075 53.2217 126.077C53.417 126.081 53.6155 126.004 53.7652 125.868L55.6219 124.178C55.7704 124.043 55.8652 123.852 55.8818 123.654C55.9005 123.459 55.8354 123.267 55.7091 123.126Z" fill="white"/>
<path d="M118.14 131.674C118.13 131.667 118.118 131.661 118.11 131.654H118.107C116.66 130.644 114.828 130.293 112.855 130.124L109.157 129.812C107.618 129.683 106.664 129.363 106.111 128.928C105.641 128.57 105.35 127.992 105.341 127.104V127.084H105.338L105.341 127.038C105.35 125.987 105.758 125.223 106.483 124.705C107.257 124.147 108.496 123.792 110.25 123.79H110.264H110.267C112.504 123.794 114.355 124.315 115.898 125.307L115.896 125.31L116.834 125.969C116.984 126.074 117.175 126.113 117.359 126.07C117.546 126.03 117.716 125.914 117.827 125.753L119.209 123.739C119.32 123.577 119.368 123.374 119.341 123.185C119.327 123.081 119.286 122.983 119.229 122.897C119.178 122.8 119.105 122.712 119.009 122.643L118.851 122.53C116.645 120.958 113.571 120.076 110.257 120.072C107.603 120.073 105.338 120.711 103.695 121.933C102.065 123.134 101.107 124.951 101.106 127.019L101.107 127.047V127.061L101.106 127.116C101.106 128.945 101.783 130.56 103.136 131.661C104.503 132.779 106.427 133.375 108.85 133.57L112.651 133.878C114.044 134.006 114.915 134.315 115.428 134.744C115.875 135.108 116.161 135.683 116.164 136.601V136.651V136.659C116.153 137.816 115.687 138.614 114.817 139.168C113.884 139.76 112.366 140.122 110.257 140.122H110.242C110.234 140.122 110.221 140.123 110.203 140.125H110.184C107.4 140.112 105.422 139.486 103.882 138.214L103.08 137.536C102.936 137.414 102.745 137.356 102.553 137.382C102.36 137.407 102.176 137.509 102.049 137.663L100.457 139.587C100.329 139.741 100.262 139.943 100.273 140.139C100.282 140.333 100.371 140.514 100.515 140.635L101.27 141.274L101.267 141.278C101.282 141.29 101.297 141.299 101.312 141.311L101.411 141.393L101.418 141.386C103.754 143.078 106.671 143.887 110.242 143.887H110.305C113.25 143.884 115.734 143.246 117.547 141.995C119.339 140.761 120.407 138.856 120.405 136.659V136.549C120.408 134.334 119.55 132.664 118.14 131.674Z" fill="white"/>
<path d="M209.379 142.844L206.279 138.468L200.066 129.396L204.894 124.268L207.705 121.297L207.876 121.107C208.201 120.78 208.042 120.44 207.901 120.31C207.76 120.176 207.563 120.098 207.364 120.098H204.136C203.945 120.098 203.696 120.247 203.555 120.372C203.552 120.373 203.557 120.371 203.555 120.372L192.715 131.933V122.272V113.746C192.715 113.559 192.633 113.374 192.493 113.242C192.352 113.108 192.155 113.031 191.956 113.031H189.478C189.28 113.031 189.084 113.108 188.943 113.242C188.799 113.374 188.72 113.559 188.72 113.746V122.272V143.122C188.72 143.31 188.801 143.496 188.942 143.627C189.083 143.76 189.28 143.838 189.479 143.838H191.957C192.155 143.838 192.351 143.76 192.493 143.627C192.636 143.496 192.715 143.31 192.715 143.122V137.192L197.411 132.102L200.571 136.831H200.558L205 143.472C205.105 143.619 205.269 143.853 205.639 143.853H208.868C209.067 143.853 209.264 143.776 209.404 143.641C209.545 143.51 209.638 143.171 209.379 142.844Z" fill="white"/>
<path d="M181.627 113.257H182.065L182.716 115.172L183.367 113.257H183.8V115.523H183.508V114.182C183.508 114.136 183.51 114.065 183.51 113.954C183.51 113.846 183.517 113.737 183.517 113.612L182.867 115.523H182.561L181.913 113.612V113.678V113.93C181.918 114.05 181.918 114.132 181.918 114.182V115.523H181.627V113.257Z" fill="white"/>
<path d="M186.111 114.293C186.249 114.293 186.361 114.266 186.446 114.207C186.521 114.155 186.567 114.05 186.567 113.894C186.567 113.737 186.513 113.624 186.394 113.564C186.331 113.533 186.249 113.518 186.15 113.518H185.417V114.293H186.111ZM185.111 113.257H186.146C186.315 113.257 186.458 113.281 186.563 113.333C186.774 113.425 186.877 113.604 186.877 113.865C186.877 114 186.854 114.112 186.795 114.2C186.735 114.283 186.657 114.358 186.555 114.41C186.644 114.448 186.717 114.492 186.761 114.55C186.802 114.609 186.827 114.707 186.827 114.839L186.844 115.138C186.844 115.228 186.856 115.291 186.864 115.334C186.885 115.401 186.917 115.448 186.965 115.467V115.523H186.589C186.579 115.499 186.574 115.476 186.563 115.448C186.555 115.417 186.553 115.357 186.551 115.269L186.53 114.89C186.519 114.739 186.47 114.64 186.37 114.591C186.315 114.564 186.219 114.55 186.098 114.55H185.417V115.523H185.111V113.257Z" fill="white"/>
<path d="M184.457 115.492C184.376 115.492 184.32 115.431 184.32 115.339C184.32 115.246 184.378 115.183 184.466 115.183C184.549 115.183 184.608 115.246 184.608 115.339C184.608 115.431 184.549 115.492 184.457 115.492Z" fill="white"/>
<path d="M187.56 115.492C187.476 115.492 187.415 115.431 187.415 115.339C187.415 115.246 187.476 115.183 187.563 115.183C187.651 115.183 187.709 115.246 187.709 115.339C187.709 115.431 187.651 115.492 187.562 115.492H187.56Z" fill="white"/>
<path d="M235.722 56.4874V56.6363V56.6529V56.8091C235.703 63.5333 234.99 70.1037 232.432 74.8057C229.918 79.33 225.876 82.3512 218.026 82.4712C217.975 82.4641 217.891 82.4641 217.733 82.4712H217.603C209.7 82.3918 205.605 79.3637 203.079 74.7986C200.5 70.0771 199.777 63.4516 199.777 56.6868V56.2783C199.784 49.5565 200.5 44.1629 203.079 39.4633C205.605 34.8955 209.7 31.865 217.603 31.7929H217.656H217.786H217.906C225.814 31.865 229.894 34.891 232.442 39.4727C235.002 44.1629 235.722 49.5565 235.722 56.2783V56.4874ZM237.946 28.0227C237.905 27.9748 237.864 27.9243 237.811 27.8762C233.532 23.9283 226.688 21.4836 218.756 21.476C218.65 21.462 218.484 21.462 218.331 21.462C211.808 21.4596 205.375 22.8212 199.784 27.6073L199.777 27.612V23.4118H199.789V2.13491C199.789 1.57294 199.549 1.02051 199.128 0.628936C198.708 0.230257 198.122 0 197.524 0H190.118C189.53 0 188.946 0.230257 188.519 0.628936C188.094 1.02051 187.858 1.57294 187.858 2.13491V23.4118H187.863V68.5812H187.858V89.743C187.858 90.3048 188.101 90.8574 188.519 91.2461C188.944 91.6472 189.53 91.8755 190.125 91.8755H197.527C198.122 91.8755 198.706 91.6472 199.128 91.2461C199.558 90.8574 199.794 90.3048 199.794 89.743V85.3673C204.734 90.8933 211.825 92.7977 218.331 92.7951H218.787C226.7 92.7685 233.544 90.3241 237.811 86.3807C245.789 78.8282 247.612 67.2508 247.638 56.4898C247.617 45.7865 245.789 35.5465 237.946 28.0227Z" fill="white"/>
<path d="M303.94 57.9286C303.94 64.6502 303.219 70.0439 300.659 74.7341C298.112 79.316 294.031 82.3422 286.123 82.4138H286.003H285.874H285.821C277.917 82.3422 273.823 79.3113 271.296 74.7438C268.717 70.0439 268.002 64.6502 267.995 57.9286V57.5204C267.995 50.7555 268.717 44.1298 271.296 39.4085C273.823 34.8433 277.917 31.815 285.821 31.7358H285.95C286.109 31.743 286.193 31.743 286.243 31.7358C294.094 31.8558 298.136 34.8768 300.65 39.4014C303.207 44.1035 303.921 50.6737 303.94 57.398V57.5541V57.5709V57.7198V57.9286ZM306.164 86.1843C314.007 78.6603 315.834 68.4206 315.856 57.7174C315.829 46.9563 314.007 35.3789 306.029 27.8263C301.762 23.8829 294.918 21.4382 287.005 21.4119H286.548C280.043 21.4094 272.951 23.3138 268.011 28.8398V24.464C268.011 23.9021 267.776 23.3498 267.346 22.9608C266.924 22.5598 266.34 22.3317 265.745 22.3317H258.343C257.748 22.3317 257.162 22.5598 256.737 22.9608C256.319 23.3498 256.076 23.9021 256.076 24.464V45.6259H256.081V90.7953H256.076V112.072C256.076 112.634 256.312 113.186 256.737 113.578C257.164 113.976 257.748 114.207 258.336 114.207H265.742C266.34 114.207 266.926 113.976 267.346 113.578C267.767 113.186 268.007 112.634 268.007 112.072V90.7953H267.995V86.5952L268.002 86.5999C273.593 91.386 280.026 92.7476 286.548 92.7452C286.702 92.7452 286.868 92.7452 286.974 92.7306C294.905 92.7235 301.749 90.2787 306.029 86.3309C306.082 86.2828 306.123 86.2323 306.164 86.1843Z" fill="white"/>
<path d="M412.418 98.3374C411.766 100.101 410.599 102.948 409.819 104.659C409.819 104.659 408.41 107.76 406.415 109.76C404.588 111.583 402.504 112.843 400.154 113.54C397.809 114.235 396.267 114.344 396.267 114.344C394.39 114.474 391.651 114.582 390.182 114.582C388.713 114.582 387.509 113.043 387.509 111.164V106.138C387.509 104.258 388.274 102.719 389.205 102.719C390.139 102.719 392.431 102.56 394.301 102.367C394.301 102.367 395.724 102.217 397.027 101.218C398.332 100.215 398.991 98.7768 398.991 98.7768C399.775 97.0659 400.931 94.2165 401.558 92.4433L402.926 88.5783C403.553 86.8046 403.537 83.9094 402.892 82.1432L382.167 25.4976C381.52 23.7313 382.531 22.2861 384.413 22.2861H391.654C393.534 22.2861 395.567 23.7434 396.171 25.5239L409.747 65.5871C410.352 67.3702 411.327 67.3655 411.918 65.58L425.155 25.5338C425.746 23.7458 427.767 22.2861 429.65 22.2861H437.018C438.9 22.2861 439.906 23.7289 439.257 25.4949L412.418 98.3374Z" fill="white"/>
<path d="M333.508 71.4329V71.2697C333.545 67.6847 334.638 65.4448 336.695 63.8674C338.846 62.2281 342.471 61.1675 347.898 61.1675H347.945H366.196V66.854C366.179 72.4318 364.955 75.515 363.316 76.9537C359.357 80.6006 354.457 81.1494 348.484 81.1645H348.419H348.311C342.56 81.1692 338.784 80.1754 336.643 78.62C334.606 77.1516 333.56 75.0525 333.508 71.4329ZM378.484 45.3562V45.3067C378.486 38.2357 376.133 32.1732 371.196 28.1209C366.228 24.0413 359.093 22.1253 349.913 22.1203H349.579H349.455C339.808 22.0954 332.153 24.192 326.323 30.3907L326.299 30.3707L325.965 30.7712C325.527 31.2535 325.097 31.7577 324.677 32.2893C324.674 32.2943 324.672 32.3017 324.669 32.3067L324.073 33.0138C323.715 33.4365 323.539 34.0051 323.614 34.5763C323.675 35.1502 323.967 35.7014 324.412 36.0871L324.748 36.3787C324.877 36.532 325.02 36.6753 325.178 36.8066L326.482 37.877L329.953 40.8761C330.396 41.2617 330.981 41.4719 331.548 41.4424C332.114 41.4202 332.641 41.1629 332.999 40.7376L335.224 38.0945V38.0923C336.614 36.589 338.04 35.5183 339.764 34.7644C342.196 33.6986 345.319 33.1991 349.831 33.1571L349.886 33.1547L350.036 33.1498C356.455 33.1645 360.448 34.47 362.732 36.4752C365.012 38.4456 366.169 41.43 366.186 46.0634C366.186 46.0929 366.186 46.1768 366.196 46.2807V50.6522H347.144C339.455 50.6695 333.026 52.4052 328.388 56.0224C323.779 59.5603 321.208 65.0047 321.206 71.3489L321.208 71.5887C321.22 76.8749 323.205 82.0544 326.818 85.6546C331.693 90.4582 338.191 92.2037 348.007 92.2037H348.115H353.09C362.079 92.2138 368.528 89.9909 372.682 85.5157C376.825 81.0431 378.486 74.5678 378.486 66.5203V45.4773L378.484 45.3562Z" fill="white"/>
<path d="M111.362 22.4231C109.395 22.4231 107.351 23.9709 106.814 25.859L93.8696 71.5138C93.3333 73.4052 92.3916 73.4247 91.777 71.5575L76.7223 25.816C76.1098 23.9507 73.9999 22.4231 72.0337 22.4231H69.3338C67.3688 22.4231 65.2622 23.951 64.6522 25.8189L49.7164 71.5549C49.1061 73.4228 48.1635 73.4077 47.624 71.517L34.5636 25.8599C34.0228 23.9694 31.9717 22.4231 30.0054 22.4231H24.505C22.5414 22.4231 21.4193 23.9555 22.012 25.8287L41.9873 88.8303C42.5823 90.7009 44.6745 92.2362 46.6409 92.2362H50.4183C52.1725 92.2362 54.0637 90.8754 54.6208 89.212L69.553 44.6495C70.1782 42.7864 71.2019 42.7864 71.8317 44.6472L86.7579 88.8505C87.3882 90.7109 89.5107 92.2362 91.4745 92.2362H95.1309C96.9507 92.2362 98.8871 90.8159 99.4341 89.0799L119.36 25.8311C119.95 23.9555 118.826 22.4231 116.862 22.4231L111.362 22.4231Z" fill="white"/>
<path d="M179.396 55.1218C179.396 34.401 168.401 21.5288 150.705 21.5288C132.741 21.5288 122.016 34.8012 122.016 57.0309C122.016 79.9232 132.833 92.5326 152.475 92.5326C164.676 92.5326 171.221 88.4399 177.827 81.8371L178.706 80.9584L170.275 73.5571L169.503 74.3269C164.119 79.7101 159.735 81.6167 152.749 81.6167C141.117 81.6167 134.528 74.2229 134.172 60.7845H179.396V55.1218ZM134.221 51.0954C134.466 46.7519 134.78 44.8076 136.109 41.5439C138.55 35.7629 144.143 32.1725 150.705 32.1725C157.265 32.1725 162.857 35.7604 165.298 41.5343C166.63 44.8076 166.943 46.7519 167.189 51.0954H134.221Z" fill="white"/>
<path d="M7.09637 36.8763C11.0179 36.8763 14.2022 33.6754 14.2022 29.7272C14.2022 25.7791 11.0179 22.5754 7.09637 22.5754C3.18415 22.5754 0 25.7791 0 29.7272C1.51186e-07 33.6754 3.18415 36.8763 7.09637 36.8763Z" fill="white"/>
<path d="M438.894 92.1912C442.818 92.1912 446 88.9897 446 85.0443C446 81.0937 442.818 77.8879 438.894 77.8879C434.98 77.8879 431.803 81.0937 431.803 85.0443C431.803 88.9897 434.98 92.1912 438.894 92.1912Z" fill="white"/>
</svg>
