<svg width="406" height="282" viewBox="0 0 406 282" fill="none" xmlns="http://www.w3.org/2000/svg">
<path d="M230 111H272ZM180 111H222ZM131 111H173ZM82 111H123ZM32 111H74ZM82 65H123ZM131 65H173ZM180 65H222ZM180 19H222Z" fill="white"/>
<path d="M230 111H272M180 111H222M131 111H173M82 111H123M32 111H74M82 65H123M131 65H173M180 65H222M180 19H222" stroke="white" stroke-width="38"/>
<path d="M406 113C406 113 388 96 351 102C347 73 316 56 316 56C316 56 287 91 308 130C302 133 292 137 277 137H2.00004C-2.99996 156 -2.99995 282 135 282C234 282 308 236 343 152C395 156 406 113 406 113Z" fill="white"/>
</svg>