<svg width="145" height="145" viewBox="0 0 145 145" fill="none" xmlns="http://www.w3.org/2000/svg">
<path d="M145 0H0V145H145V0Z" fill="white"/>
<path d="M97.4063 113.282C100.327 118.05 104.127 121.556 110.848 121.556C116.493 121.556 120.1 118.734 120.1 114.835C120.1 110.163 116.394 108.508 110.18 105.79L106.774 104.328C96.9414 100.139 90.4095 94.8918 90.4095 83.7982C90.4095 73.5792 98.1957 65.7998 110.364 65.7998C119.027 65.7998 125.256 68.8149 129.744 76.7093L119.133 83.522C116.797 79.3331 114.277 77.6829 110.364 77.6829C106.373 77.6829 103.844 80.2146 103.844 83.522C103.844 87.6096 106.376 89.2645 112.222 91.7962L115.628 93.2554C127.205 98.2199 133.741 103.281 133.741 114.66C133.741 126.928 124.105 133.648 111.163 133.648C98.5088 133.648 90.3335 127.618 86.3334 119.714L97.4063 113.282ZM49.2732 114.462C51.4137 118.26 53.3608 121.471 58.0423 121.471C62.5189 121.471 65.3429 119.719 65.3429 112.909V66.5777H78.9683V113.093C78.9683 127.201 70.6964 133.623 58.6223 133.623C47.7128 133.623 41.3949 127.977 38.1819 121.177L49.2732 114.462Z" fill="black"/>
</svg>
