<svg width="313" height="67" viewBox="0 0 313 67" fill="none" xmlns="http://www.w3.org/2000/svg">
<path d="M35.7023 33.6624L42.7316 60.8077H37.4285L32.7297 41.2588L23.9306 60.8077H19.4562L10.7006 41.3897L5.88975 60.8264H0.69873L7.65332 33.6624H12.2586L21.737 54.6819L31.1531 33.6624H35.7023Z" fill="white"/>
<path d="M62.7322 44.1566V40.9972H67.8422V60.8078H62.7322V57.5922C61.3737 59.8917 58.5944 61.2066 55.2105 61.2066C48.1438 61.2066 44.1929 56.2212 44.1929 50.4881C44.1929 44.9605 47.9319 40.5173 54.4565 40.5173C58.1706 40.5485 61.2553 41.826 62.7322 44.1566ZM49.6456 50.7747C49.6456 54.4203 51.9389 57.5361 56.3759 57.5361C60.6633 57.5361 62.9939 54.4951 62.9939 50.8869C62.9939 47.2787 60.5885 44.194 56.1391 44.194C51.8579 44.194 49.6456 47.2725 49.6456 50.7747Z" fill="white"/>
<path d="M79.3718 60.8078H74.2618V40.9972H79.3718V45.4342C79.9531 44.0089 80.9406 42.7858 82.2114 41.9172C83.4823 41.0485 84.9804 40.5726 86.5196 40.5485C87.6057 40.5331 88.6859 40.7104 89.7102 41.072L88.6196 44.811C87.7368 44.5764 86.8285 44.4508 85.9151 44.4371C82.2321 44.4371 79.3718 47.2165 79.3718 51.292V60.8078Z" fill="white"/>
<path d="M92.2696 35.7813C92.2605 35.4216 92.3259 35.0639 92.4619 34.7308C92.5978 34.3976 92.8013 34.0963 93.0595 33.8457C93.3177 33.5951 93.625 33.4007 93.962 33.2748C94.2991 33.1489 94.6586 33.0942 95.0178 33.1141C95.3828 33.1022 95.7465 33.1647 96.0866 33.2978C96.4267 33.4309 96.7362 33.6318 96.9962 33.8883C97.2562 34.1448 97.4613 34.4515 97.599 34.7898C97.7367 35.1281 97.8041 35.4909 97.7971 35.856C97.8051 36.2167 97.7375 36.5751 97.5988 36.9081C97.46 37.2411 97.253 37.5414 96.9913 37.7896C96.7295 38.0379 96.4187 38.2286 96.0789 38.3496C95.739 38.4706 95.3776 38.5191 95.0178 38.4921C94.6559 38.5076 94.2947 38.4485 93.9567 38.3182C93.6188 38.188 93.3112 37.9895 93.0534 37.7352C92.7955 37.4808 92.5928 37.176 92.458 36.8399C92.3231 36.5037 92.259 36.1433 92.2696 35.7813ZM92.494 41.0097H97.6351V55.4735C97.6351 56.3708 97.8221 57.0127 98.5761 57.0127C98.9049 57.0041 99.2323 56.9665 99.5545 56.9005L100.34 60.6396C99.2618 61.0612 98.1132 61.2727 96.9559 61.2627C94.8122 61.2627 92.5189 60.6396 92.5189 55.7726L92.494 41.0097Z" fill="white"/>
<path d="M120.47 44.1566V40.9972H125.58V60.8078H120.47V57.5922C119.111 59.8917 116.332 61.2066 112.948 61.2066C105.882 61.2066 101.931 56.2212 101.931 50.4881C101.931 44.9605 105.67 40.5173 112.194 40.5173C115.921 40.5485 118.999 41.826 120.47 44.1566ZM107.383 50.7747C107.383 54.4203 109.677 57.5361 114.114 57.5361C118.401 57.5361 120.732 54.4951 120.732 50.8869C120.732 47.2787 118.326 44.194 113.877 44.194C109.602 44.194 107.383 47.2725 107.383 50.7747Z" fill="white"/>
<path d="M133.43 33.6624H145.687C155.988 33.6624 161.142 39.3457 161.067 47.235C161.142 55.436 155.459 60.8077 146.591 60.8077H133.43V33.6624ZM136.813 36.074V58.4396H146.161C154.356 58.4396 157.478 52.9121 157.478 47.1602C157.478 40.6606 153.564 36.074 146.161 36.074H136.813Z" fill="white"/>
<path d="M181.957 60.8077H166.378V33.6624H180.399C185.777 33.6624 190.887 34.6781 190.812 40.698C190.812 44.9418 188.182 46.1071 185.397 46.562C189.348 46.8985 191.716 49.4161 191.716 53.4792C191.772 59.5676 186.431 60.8077 181.957 60.8077ZM180.792 45.5088C186.17 45.5088 187.372 43.4399 187.372 40.8101C187.372 36.8592 184.967 35.9556 180.792 35.9556H169.631V45.5088H180.792ZM180.941 47.8021H169.631V58.5144H181.434C184.743 58.5144 188.239 57.4239 188.239 53.2549C188.239 48.4377 184.213 47.8021 180.941 47.8021Z" fill="white"/>
<path d="M312.243 0.347931C311.968 0.114207 311.617 -0.00953686 311.256 0.000574106C310.27 0.000574106 308.998 0.6675 308.318 1.04265L308.043 1.18159C306.895 1.73773 305.646 2.05222 304.372 2.10556C303.066 2.14724 301.94 2.22366 300.474 2.37302C291.79 3.2692 287.917 9.92457 284.187 16.3611C282.158 19.8625 280.06 23.4819 277.184 26.2851C276.587 26.8613 275.953 27.3985 275.287 27.8934C272.31 30.113 268.573 31.6795 265.652 32.798C262.848 33.8679 259.795 34.8301 256.839 35.761C254.137 36.612 251.58 37.4144 249.232 38.2898C248.173 38.6823 247.273 38.9845 246.478 39.2485C244.341 39.9432 242.796 40.4746 240.545 42.0273C239.666 42.6282 238.784 43.2778 238.183 43.7641C236.393 45.191 234.81 46.8591 233.479 48.7209C232.333 50.4401 231.01 52.034 229.53 53.4762C229.058 53.9417 228.21 54.1709 226.949 54.1709C225.466 54.1709 223.674 53.8652 221.77 53.5422C219.866 53.2192 217.789 52.8475 216.052 52.8475C214.639 52.8475 213.562 53.0768 212.753 53.5422C212.753 53.5422 211.398 54.3342 210.821 55.3589L211.384 55.6125C212.257 56.0864 213.066 56.6701 213.791 57.3492C214.542 58.0491 215.382 58.647 216.289 59.1277C216.581 59.2388 216.846 59.4104 217.067 59.6314C216.827 59.9787 216.48 60.4268 216.115 60.9062C214.111 63.5287 212.944 65.1856 213.614 66.0887C213.935 66.2567 214.294 66.3381 214.656 66.325C219.029 66.325 221.374 65.1891 224.347 63.751C225.205 63.3342 226.084 62.9035 227.126 62.4658C228.863 61.7121 230.732 60.5102 232.712 59.2389C235.334 57.5542 238.047 55.8104 240.673 54.9664C242.837 54.3065 245.091 53.9901 247.353 54.0285C250.132 54.0285 253.056 54.4002 255.877 54.7614C257.982 55.0324 260.156 55.3103 262.293 55.4561C263.123 55.5048 263.891 55.5291 264.641 55.5291C265.64 55.5318 266.638 55.4796 267.632 55.3728L267.868 55.2894C269.368 54.3689 270.07 52.3925 270.747 50.482C271.185 49.2523 271.553 48.1478 272.137 47.4461C272.172 47.4109 272.21 47.3795 272.251 47.3523C272.279 47.3371 272.31 47.3316 272.341 47.3366C272.372 47.3416 272.401 47.357 272.422 47.3801C272.428 47.3981 272.428 47.4176 272.422 47.4357C272.074 54.9073 269.063 59.6487 266.023 63.8657L263.96 66.0297C263.96 66.0297 266.801 66.0297 268.42 65.4045C274.325 63.6399 278.785 59.7495 282.03 53.5457C282.829 51.9534 283.543 50.3197 284.169 48.6514C284.225 48.5125 284.739 48.2554 284.687 48.9745C284.687 49.1863 284.659 49.4226 284.642 49.6692C284.642 49.8151 284.621 49.9644 284.614 50.1138C284.527 51.1559 284.267 53.3581 284.267 53.3581L286.09 52.382C290.488 49.6032 293.878 43.9968 296.448 35.2747C297.522 31.6413 298.303 28.0323 298.994 24.854C299.821 21.033 300.533 17.7575 301.35 16.4861C302.631 14.4923 304.587 13.1446 306.48 11.835C306.741 11.6579 306.998 11.4877 307.251 11.3001C309.634 9.62932 312 7.70148 312.517 4.10634V4.02644C312.913 1.34485 312.59 0.677921 312.243 0.347931Z" fill="white"/>
</svg>