<svg width="41" height="41" viewBox="0 0 41 41" fill="none" xmlns="http://www.w3.org/2000/svg">
    <path fill-rule="evenodd" clip-rule="evenodd"
        d="M24.1413 0C23.8448 0 23.5695 0.063532 23.3154 0.148236C23.8554 0.508238 24.1519 0.984716 24.3001 1.52472C24.3107 1.59884 24.3319 1.65178 24.3425 1.72589C24.3531 1.78943 24.3636 1.85296 24.3636 1.91649C24.406 2.84826 24.1201 2.96473 23.9189 3.51532C23.6119 4.22474 23.6966 4.9871 24.0672 5.60122C24.0989 5.67534 24.1413 5.76004 24.1942 5.83416C23.7919 3.15532 26.026 2.75296 26.4389 1.91649C26.4707 1.18589 25.8672 0.698829 25.3907 0.360002C24.9354 0.084707 24.5224 0 24.1413 0ZM27.5084 0.603535C27.466 0.847065 27.4978 0.783535 27.4872 0.910596C27.4766 0.995301 27.4766 1.10119 27.466 1.18589C27.4449 1.2706 27.4237 1.3553 27.3919 1.44001C27.3708 1.52472 27.339 1.60943 27.3072 1.69413C27.2648 1.77884 27.2331 1.85296 27.1907 1.93766C27.159 1.98003 27.1378 2.02237 27.106 2.06472C27.0849 2.09649 27.0637 2.12825 27.0425 2.16002C26.9896 2.23414 26.9366 2.30825 26.8837 2.37178C26.8201 2.43531 26.7672 2.50943 26.6931 2.56238V2.57298C26.6296 2.62592 26.566 2.68945 26.4919 2.74239C26.2696 2.9118 26.0154 3.03886 25.7825 3.19769C25.7084 3.25063 25.6343 3.29298 25.5707 3.35651C25.4966 3.40945 25.4331 3.46239 25.3695 3.52592C25.2954 3.58945 25.2425 3.65298 25.179 3.7271C25.126 3.79064 25.0625 3.86475 25.0201 3.93887C24.9672 4.01299 24.9143 4.08711 24.8719 4.16122C24.8295 4.24593 24.7978 4.32005 24.7554 4.40475C24.7237 4.48946 24.6919 4.56358 24.6707 4.64828C24.639 4.74358 24.6178 4.82829 24.5966 4.913C24.586 4.95537 24.586 5.00829 24.5754 5.05064C24.5648 5.09301 24.5648 5.13535 24.5543 5.1777C24.5543 5.26241 24.5437 5.3577 24.5437 5.44241C24.5437 5.50594 24.5437 5.56947 24.5543 5.633C24.5543 5.71771 24.5649 5.80241 24.586 5.89771C24.5966 5.98241 24.6178 6.06712 24.639 6.15183C24.6708 6.23653 24.6919 6.32124 24.7237 6.40594C24.7449 6.45889 24.7766 6.51183 24.7978 6.55418L22.3625 5.61182C21.9496 5.49535 21.5472 5.38947 21.1343 5.29417C20.9119 5.24123 20.6895 5.18829 20.4672 5.13535C19.8319 5.00829 19.186 4.913 18.5401 4.84947C18.519 4.84947 18.5084 4.83886 18.4872 4.83886C17.8519 4.77533 17.2272 4.74357 16.5919 4.74357C16.126 4.74357 15.6601 4.76473 15.2048 4.79651C14.5589 4.83888 13.913 4.92357 13.2671 5.02945C13.1083 5.05061 12.9495 5.0824 12.7907 5.11416C12.4624 5.17769 12.1448 5.25181 11.8377 5.32593C11.6789 5.3683 11.5201 5.41063 11.3612 5.45298C11.2024 5.51651 11.0542 5.59063 10.9059 5.65416C10.7895 5.7071 10.673 5.76005 10.5565 5.81299C10.5354 5.82359 10.5142 5.82359 10.5036 5.83415C10.3977 5.88709 10.3024 5.92944 10.2071 5.98239C10.1754 5.99299 10.1542 6.00355 10.133 6.01415C10.0165 6.06709 9.90006 6.13062 9.80476 6.18356C9.73064 6.21533 9.65653 6.25768 9.593 6.28945C9.56123 6.31061 9.51888 6.33182 9.4977 6.34239C9.4024 6.39533 9.30711 6.44827 9.2224 6.50121C9.12711 6.55415 9.0424 6.60709 8.96828 6.66003C8.89417 6.71298 8.82005 6.75533 8.75652 6.80827C8.74591 6.81887 8.73536 6.81887 8.72475 6.82943C8.66122 6.8718 8.5871 6.92473 8.52357 6.97767C8.52357 6.97767 8.51297 6.98827 8.50241 6.99883C8.44947 7.0412 8.39653 7.08354 8.34359 7.12589C8.32243 7.13649 8.30122 7.15765 8.28006 7.16826C8.22712 7.21063 8.17418 7.26356 8.12124 7.30591C8.11063 7.32707 8.08947 7.33767 8.07887 7.34828C8.01534 7.41181 7.95181 7.46475 7.88828 7.52828C7.87767 7.52828 7.87767 7.53888 7.86712 7.54944C7.80359 7.60238 7.74006 7.66591 7.67653 7.72944C7.66592 7.74005 7.66592 7.7506 7.65537 7.7506C7.60243 7.80354 7.54948 7.85649 7.49654 7.92001C7.47538 7.94117 7.4436 7.96238 7.42242 7.98354C7.36948 8.04707 7.30595 8.1106 7.24242 8.17414C7.23182 8.19529 7.21066 8.2059 7.20005 8.22707C7.11535 8.31178 7.04123 8.39649 6.95652 8.4812C6.94592 8.4918 6.93536 8.50235 6.92476 8.51296C6.75534 8.69296 6.57534 8.87296 6.38475 9.03179C6.19416 9.2012 5.99299 9.36002 5.79181 9.49767C5.58004 9.64591 5.37886 9.77297 5.15651 9.90003C4.94474 10.0165 4.72238 10.1224 4.48944 10.2177C4.26709 10.313 4.03415 10.3977 3.80121 10.4718C3.35649 10.5671 2.9012 10.7471 2.50943 10.7789C2.42472 10.7789 2.32943 10.8 2.24472 10.8106C2.14943 10.8318 2.06472 10.853 1.98002 10.8742C1.89531 10.9059 1.8106 10.9377 1.72589 10.9694C1.64119 11.0012 1.55648 11.0436 1.47178 11.0859C1.39766 11.1389 1.31295 11.1812 1.23883 11.2342C1.16472 11.2871 1.0906 11.3506 1.02706 11.4142C0.95295 11.4671 0.878829 11.5412 0.815299 11.6047C0.751768 11.6789 0.688238 11.7424 0.635298 11.8165C0.582358 11.9012 0.518827 11.9753 0.476472 12.06C0.423532 12.1342 0.370591 12.2189 0.328236 12.3036C0.285866 12.3989 0.243531 12.4836 0.211765 12.5789C0.18 12.6636 0.148235 12.7589 0.11647 12.8542C0.09531 12.9389 0.0740999 13.0236 0.0635298 13.1083C0.0635298 13.1189 0.0529252 13.1294 0.0529252 13.14C0.031765 13.2354 0.0317649 13.3624 0.0211599 13.4259C0.0105553 13.5001 0 13.5636 0 13.6377C0 13.6801 3.29622e-08 13.733 0.0106046 13.7754C0.0212092 13.8495 0.0317645 13.913 0.0529747 13.9765C0.0741348 14.0401 0.0953449 14.1036 0.12709 14.1671V14.1777C0.158855 14.2413 0.201211 14.3048 0.243561 14.3683C0.285931 14.4318 0.328271 14.4954 0.381211 14.5589C0.434152 14.6119 0.497682 14.6754 0.561212 14.7283C0.624743 14.7919 0.688273 14.8448 0.762388 14.8977C1.01651 15.1201 1.08004 15.1942 1.40828 15.3636C1.46122 15.3954 1.51416 15.4166 1.57769 15.4483C1.5883 15.4483 1.59885 15.4589 1.60946 15.4589C1.60946 15.4801 1.60946 15.4907 1.62006 15.5119C1.63067 15.5966 1.65183 15.6813 1.673 15.766C1.69416 15.8613 1.72595 15.946 1.75772 16.0201C1.78948 16.0836 1.81066 16.1472 1.84242 16.2107C1.85303 16.2319 1.86358 16.2531 1.87419 16.2636C1.91656 16.3483 1.95889 16.4225 2.00124 16.4966C2.05419 16.5707 2.10713 16.6448 2.16007 16.7189C2.21301 16.7825 2.27654 16.8566 2.34007 16.9201C2.4036 16.9837 2.46713 17.0366 2.54125 17.1001C2.54125 17.1001 2.55186 17.1107 2.56241 17.1107C2.62594 17.1637 2.68947 17.2166 2.753 17.259C2.82712 17.3119 2.90124 17.3543 2.98594 17.3966C3.06006 17.439 3.14477 17.4813 3.22947 17.5131C3.293 17.5449 3.36712 17.566 3.44124 17.5872C3.45185 17.5978 3.4624 17.5978 3.48361 17.6084C3.52598 17.619 3.5789 17.6295 3.62125 17.6401C3.58949 18.2119 3.57888 18.7519 3.66363 18.9425C3.75892 19.1543 4.2248 18.5084 4.69069 17.7672C4.62716 18.4978 4.58481 19.3554 4.69069 19.6096C4.80716 19.8743 5.44246 19.0484 5.99305 18.1378C13.5002 16.4013 20.3508 21.5896 21.0708 28.9167C20.9332 27.7732 19.5249 27.1379 18.879 27.2967C18.5614 28.0802 18.0214 29.0861 17.1531 29.7108C17.2273 29.012 17.1955 28.292 17.0473 27.5932C16.8143 28.5673 16.359 29.4779 15.7343 30.2614C14.7284 30.3355 13.7225 29.8485 13.1931 29.1179C13.1507 29.0861 13.1402 29.0226 13.1084 28.9802C13.0766 28.9061 13.0449 28.832 13.0237 28.7579C12.9919 28.6838 12.9707 28.6096 12.9602 28.5355C12.9496 28.4614 12.9496 28.3873 12.9496 28.3026C12.9496 28.2496 12.9496 28.1967 12.9496 28.1437C12.9602 28.0696 12.9813 27.9955 13.0025 27.9214C13.0237 27.8473 13.0449 27.7732 13.0766 27.699C13.119 27.6249 13.1507 27.5508 13.2037 27.4767C13.3837 26.9684 13.3837 26.5555 13.0554 26.312C12.9919 26.2696 12.9284 26.2378 12.8543 26.2061C12.8119 26.1955 12.759 26.1743 12.7166 26.1637C12.6848 26.1531 12.6637 26.1425 12.6319 26.1319C12.5578 26.1108 12.4837 26.0896 12.4095 26.079C12.3354 26.0578 12.2613 26.0472 12.1872 26.0472C12.1131 26.0366 12.0284 26.0261 11.9543 26.0261C11.9013 26.0261 11.8484 26.0367 11.7954 26.0367C11.7107 26.0367 11.6366 26.0473 11.5625 26.0684C11.4884 26.0791 11.4143 26.0896 11.3401 26.1108C11.266 26.132 11.1919 26.1532 11.1178 26.1849C11.0437 26.2167 10.9801 26.2485 10.906 26.2802C10.8425 26.312 10.779 26.3543 10.7048 26.3861C8.23775 27.9955 9.70953 31.765 11.3931 32.8556C10.7578 32.972 10.1119 33.1097 9.93189 33.2473C9.92128 33.2579 9.91073 33.2685 9.91073 33.2685C10.366 33.5438 10.8425 33.7767 11.3401 33.9779C12.0178 34.2003 12.7378 34.4015 13.0555 34.4862V34.4968C13.9343 34.6768 14.8237 34.7403 15.7237 34.6874C20.4143 34.3591 24.2579 30.7908 24.9567 26.0896C24.9779 26.1849 24.9991 26.2696 25.0203 26.3649C25.052 26.5555 25.0944 26.7567 25.1155 26.9579V26.9685C25.1367 27.0638 25.1473 27.1591 25.1579 27.2438V27.2862C25.1685 27.3815 25.1791 27.4768 25.1791 27.5615C25.1897 27.6779 25.2002 27.7944 25.2002 27.9109V28.0803C25.2002 28.1332 25.2108 28.1968 25.2108 28.2497C25.2108 28.3132 25.2002 28.3768 25.2002 28.4403V28.5885C25.2002 28.6626 25.1896 28.7262 25.1896 28.8003C25.1896 28.8427 25.1896 28.885 25.179 28.9379C25.179 29.0121 25.1684 29.0862 25.1684 29.1709C25.1578 29.2026 25.1578 29.2344 25.1578 29.2662C25.1472 29.3509 25.1366 29.425 25.126 29.5097C25.126 29.5415 25.126 29.5732 25.1154 29.605C25.1048 29.7109 25.0837 29.8062 25.0731 29.9121V29.9227V29.9333C25.0519 30.0286 25.0307 30.1345 25.0095 30.2298V30.2615C24.9884 30.3568 24.9672 30.4521 24.946 30.5474C24.946 30.558 24.9354 30.5792 24.9354 30.5898C24.9142 30.6851 24.893 30.7804 24.8613 30.8757V30.9074C24.8295 31.0133 24.7978 31.1086 24.7766 31.2039C24.766 31.2145 24.766 31.2251 24.766 31.2251C24.7342 31.3309 24.7024 31.4368 24.6707 31.5427C24.6283 31.6486 24.5966 31.7439 24.5542 31.8498C24.5118 31.9557 24.4801 32.0615 24.4377 32.1568C24.3954 32.2627 24.353 32.358 24.3107 32.4639H24.3001C24.2577 32.5592 24.2153 32.6651 24.1624 32.7604C24.1518 32.7921 24.1412 32.8133 24.1306 32.8345C24.12 32.8451 24.12 32.8556 24.1095 32.8662C23.4212 34.2533 22.4048 35.471 21.1342 36.4239C21.0495 36.4769 20.9648 36.5404 20.8801 36.6039C20.8589 36.6251 20.8271 36.6357 20.8059 36.6569C20.7318 36.7098 20.6577 36.7627 20.573 36.8157L20.6048 36.8792H20.6154C20.7636 36.8581 20.9118 36.8368 21.0601 36.8157H21.0707C21.346 36.7733 21.6213 36.7204 21.8966 36.6674C21.9707 36.6568 22.0554 36.6357 22.1295 36.6145C22.1824 36.6039 22.2248 36.5933 22.2777 36.5827C22.3519 36.5721 22.426 36.551 22.5001 36.5404C22.5636 36.5192 22.6272 36.5086 22.6907 36.4874C23.7495 36.2333 24.7766 35.8839 25.7613 35.471C24.0777 37.7686 21.8224 39.6216 19.1859 40.8392C20.4036 40.7545 21.6213 40.5533 22.7966 40.2145C27.0637 38.9545 30.6531 36.0851 32.8025 32.2203C32.3684 34.6662 31.3943 36.9957 29.9543 39.0286C30.9813 38.351 31.9237 37.5674 32.7813 36.678C35.1531 34.2004 36.7096 31.0556 37.239 27.6779C37.599 29.3509 37.7049 31.0768 37.5461 32.7815C45.1908 22.1191 38.1814 11.0649 35.2484 8.1531C35.2378 8.13194 35.2273 8.12133 35.2273 8.10015C35.2166 8.11076 35.2166 8.11076 35.2166 8.12132C35.2166 8.11071 35.2166 8.11071 35.206 8.10015C35.206 8.22722 35.1954 8.35427 35.1849 8.48133C35.1531 8.72486 35.1213 8.95781 35.079 9.19075C35.0261 9.42369 34.9625 9.65663 34.899 9.88958C34.8249 10.1119 34.7402 10.3449 34.6449 10.5672C34.5496 10.779 34.4437 11.0014 34.3272 11.2131C34.2108 11.4143 34.0837 11.6261 33.946 11.8167C33.8084 12.0178 33.6602 12.2084 33.5119 12.3884C33.3531 12.579 33.1837 12.7484 33.0143 12.9178C32.9084 13.0131 32.8131 13.0978 32.7072 13.1825C32.6225 13.2567 32.5484 13.3202 32.4637 13.3943C32.2731 13.5425 32.0825 13.6802 31.8707 13.8073C31.6696 13.9343 31.4578 14.0614 31.246 14.1673C31.0237 14.2731 30.8013 14.3684 30.579 14.4637C30.3566 14.5484 30.1237 14.6226 29.8907 14.6861C29.6578 14.7496 29.4142 14.8026 29.1813 14.8449C28.9378 14.8873 28.6942 14.9084 28.4613 14.9296C28.2919 14.9402 28.1225 14.9508 27.9531 14.9508C27.7095 14.9508 27.466 14.9296 27.2331 14.9084C26.9895 14.8872 26.746 14.8555 26.5131 14.8025C26.2695 14.7602 26.0366 14.6966 25.8036 14.6225H25.793C26.026 14.6014 26.2589 14.5801 26.4919 14.5378C26.7354 14.4954 26.9683 14.4425 27.2013 14.379C27.4342 14.3155 27.6672 14.2413 27.8895 14.1566C28.1225 14.0719 28.3448 13.966 28.5566 13.8602C28.7789 13.7543 28.9801 13.6378 29.1919 13.5107C29.3931 13.3731 29.5942 13.2355 29.7848 13.0872C29.9754 12.939 30.1554 12.7802 30.3248 12.6107C30.5048 12.4519 30.6637 12.2719 30.8225 12.0919C30.9813 11.9013 31.1295 11.7107 31.2672 11.5201C31.2883 11.4884 31.3096 11.446 31.3307 11.4143C31.4366 11.2448 31.5425 11.0754 31.6378 10.906C31.7542 10.6943 31.8601 10.4825 31.9554 10.2601C32.0507 10.0378 32.1354 9.81542 32.2095 9.58248C32.2837 9.36013 32.3366 9.12719 32.3895 8.89425C32.4319 8.65071 32.4743 8.41777 32.4954 8.18483C32.5166 7.9413 32.5378 7.69776 32.5378 7.46482C32.5378 7.29541 32.5272 7.126 32.5166 6.95658C32.4955 6.71305 32.4637 6.48011 32.4319 6.24717C32.3896 6.00363 32.3366 5.77069 32.2731 5.53775C32.199 5.31539 32.1249 5.08245 32.0402 4.8601C31.9555 4.63774 31.8496 4.41539 31.7437 4.20362C31.6272 3.99185 31.5107 3.78009 31.3837 3.57891C31.246 3.37773 31.1084 3.18714 30.9602 2.99655C30.8013 2.81655 30.6425 2.63655 30.4731 2.45655C30.3884 2.37184 30.2931 2.27655 30.1978 2.19184C29.7213 1.82125 29.2237 1.47183 28.726 1.15419C28.6519 1.11182 28.5884 1.08007 28.5143 1.0483C28.1648 0.825948 27.8366 0.709414 27.5084 0.603535Z"
        fill="white" />
</svg>