<svg width="37" height="37" viewBox="0 0 37 37" fill="none" xmlns="http://www.w3.org/2000/svg">
    <path
        d="M17.2884 0.00995683C17.2088 0.0171894 16.9556 0.0425034 16.7278 0.0605848C11.4725 0.534318 6.55005 3.36948 3.43236 7.7271C1.69629 10.15 0.585924 12.8984 0.166373 15.8095C0.0180841 16.8257 0 17.1258 0 18.5036C0 19.8814 0.0180841 20.1816 0.166373 21.1978C1.17185 28.1446 6.11603 33.9813 12.8216 36.1438C14.0224 36.5308 15.2883 36.7948 16.7278 36.9539C17.2884 37.0154 19.7116 37.0154 20.2722 36.9539C22.757 36.6791 24.862 36.0643 26.938 35.0047C27.2563 34.842 27.3178 34.7986 27.2744 34.7624C27.2455 34.7407 25.8892 32.9217 24.2616 30.723L21.303 26.727L17.5958 21.2411C15.5559 18.2252 13.8777 15.7589 13.8632 15.7589C13.8488 15.7552 13.8343 18.1926 13.8271 21.1688C13.8162 26.3799 13.8126 26.5896 13.7475 26.7126C13.6535 26.8898 13.5811 26.9621 13.4292 27.0417C13.3135 27.0995 13.2122 27.1104 12.6661 27.1104H12.0404L11.874 27.0055C11.7655 26.9368 11.6859 26.8464 11.6317 26.7415L11.5557 26.5788L11.563 19.3281L11.5738 12.0739L11.6859 11.9328C11.7438 11.8569 11.8668 11.7593 11.9536 11.7122C12.1019 11.6399 12.1597 11.6327 12.7854 11.6327C13.5233 11.6327 13.6462 11.6616 13.8379 11.8714C13.8922 11.9292 15.8995 14.9524 18.3011 18.594C20.7026 22.2356 23.9867 27.208 25.5998 29.649L28.5294 34.0862L28.6777 33.9885C29.9906 33.1351 31.3795 31.92 32.479 30.6543C34.8191 27.9674 36.3273 24.6911 36.8336 21.1978C36.9819 20.1816 37 19.8814 37 18.5036C37 17.1258 36.9819 16.8257 36.8336 15.8095C35.8282 8.86262 30.884 3.02594 24.1784 0.863399C22.9957 0.480073 21.737 0.216085 20.3265 0.0569685C19.9793 0.0208057 17.5886 -0.0189734 17.2884 0.00995683ZM24.862 11.1987C25.0356 11.2855 25.1766 11.4519 25.2273 11.6255C25.2562 11.7195 25.2634 13.7301 25.2562 18.2613L25.2454 24.7634L24.0988 23.0059L22.9487 21.2484V16.5219C22.9487 13.4661 22.9631 11.7484 22.9848 11.6652C23.0427 11.4627 23.1693 11.3036 23.3429 11.2096C23.4912 11.1336 23.5455 11.1264 24.1133 11.1264C24.6486 11.1264 24.7426 11.1336 24.862 11.1987Z"
        fill="white" />
</svg>