<svg width="155" height="171" viewBox="0 0 155 171" fill="none" xmlns="http://www.w3.org/2000/svg">
<path d="M70.5066 1.82227C74.7418 -0.601946 80.2582 -0.612896 84.4898 1.82227C105.779 13.8515 127.074 25.8619 148.359 37.8984C152.362 40.1535 155.04 44.609 155 49.222V121.594C155.029 126.399 152.087 130.96 147.863 133.164C126.644 145.127 105.437 157.105 84.2215 169.068C79.8987 171.539 74.2716 171.349 70.0838 168.675C63.7224 164.987 57.3501 161.318 50.9882 157.634C49.6881 156.859 48.2227 156.242 47.3047 154.981C48.1162 153.887 49.5671 153.751 50.746 153.274C53.4014 152.429 55.8402 151.074 58.2797 149.759C58.8965 149.336 59.6496 149.498 60.2409 149.876C65.6807 152.995 71.0724 156.205 76.5303 159.294C77.6947 159.966 78.8737 159.073 79.8689 158.519C100.691 146.75 121.539 135.027 142.357 123.255C143.128 122.884 143.555 122.065 143.492 121.22C143.507 97.3456 143.496 73.4672 143.5 49.5931C143.588 48.6343 143.033 47.7528 142.166 47.3605C121.021 35.4523 99.8868 23.5259 78.7453 11.6147C78.379 11.3628 77.9451 11.2277 77.5006 11.2271C77.0561 11.2264 76.6218 11.3603 76.2548 11.611C55.1133 23.5259 33.9828 35.4633 12.8413 47.3708C11.9774 47.7638 11.3977 48.6307 11.5005 49.5931C11.5041 73.4672 11.5005 97.3456 11.5005 121.223C11.4638 121.636 11.5544 122.049 11.76 122.409C11.9655 122.768 12.2762 123.055 12.6503 123.233C18.292 126.432 23.941 129.609 29.5863 132.797C32.7667 134.509 36.6716 135.526 40.1756 134.214C43.2678 133.105 45.4353 129.95 45.3763 126.667C45.4055 102.932 45.3617 79.1935 45.3982 55.4623C45.3209 54.4087 46.3204 53.5381 47.3448 53.6373C50.0556 53.619 52.77 53.6008 55.4807 53.6446C56.6122 53.619 57.3909 54.7536 57.251 55.8151C57.24 79.7002 57.2802 103.586 57.2327 127.471C57.24 133.837 54.6248 140.763 48.7367 143.878C41.4829 147.636 32.5173 146.839 25.3511 143.235C19.1473 140.139 13.227 136.485 7.13326 133.167C2.89863 130.976 -0.0292848 126.395 0.000523595 121.595V49.222C-0.0438849 44.5135 2.74047 39.9771 6.86863 37.7548C28.0837 25.7822 49.2952 13.8004 70.5066 1.82227Z" fill="white"/>
<path d="M89.0175 51.9551C98.2703 51.3596 108.176 51.6023 116.502 56.1606C122.949 59.6536 126.523 66.9847 126.636 74.1466C126.456 75.1126 125.447 75.6455 124.524 75.5792C121.84 75.5756 119.155 75.6157 116.47 75.561C115.331 75.6048 114.669 74.5548 114.526 73.548C113.755 70.1212 111.886 66.7273 108.661 65.0745C103.709 62.5955 97.9686 62.7202 92.5696 62.7719C88.6282 62.9812 84.3899 63.3225 81.0508 65.6402C78.4872 67.3959 77.7086 70.9401 78.6235 73.7944C79.4861 75.8438 81.8519 76.5051 83.7877 77.1147C94.9385 80.031 106.755 79.7408 117.693 83.5788C122.221 85.1435 126.651 88.1851 128.201 92.9265C130.229 99.2812 129.34 106.877 124.819 111.978C121.152 116.176 115.812 118.461 110.486 119.702C103.401 121.282 96.0481 121.322 88.8527 120.621C82.0868 119.85 75.0459 118.072 69.8227 113.462C65.3563 109.584 63.1748 103.541 63.3914 97.7092C63.4431 96.7243 64.4237 96.0375 65.3673 96.1184C68.0707 96.0965 70.7742 96.0892 73.4776 96.1221C74.5574 96.0448 75.358 96.978 75.4133 97.9958C75.9122 101.261 77.1392 104.687 79.9862 106.623C85.4807 110.168 92.375 109.925 98.6664 110.024C103.879 109.793 109.73 109.723 113.983 106.278C116.227 104.313 116.892 101.026 116.286 98.1977C115.629 95.81 113.131 94.6974 110.986 93.9698C99.9779 90.4877 88.0296 91.7512 77.1282 87.8134C72.7026 86.2494 68.4229 83.2923 66.7226 78.7456C64.3501 72.3106 65.4372 64.3512 70.4323 59.4218C75.3026 54.5187 82.3331 52.6304 89.0175 51.9545V51.9551Z" fill="white"/>
</svg>