<svg width="168" height="160" viewBox="0 0 168 160" fill="none" xmlns="http://www.w3.org/2000/svg">
<path d="M116.406 111.387C122.606 110.746 127.309 105.401 127.095 98.9868C126.882 92.5733 121.537 87.4421 115.123 87.4421H114.696C108.068 87.656 102.937 93.2144 103.151 99.8419C103.365 103.049 104.648 105.828 106.572 107.752C99.3031 122.077 88.1862 132.553 71.5109 141.318C60.1801 147.305 48.4221 149.443 36.664 147.946C27.0434 146.663 19.5608 142.388 14.8568 135.332C8.01609 124.856 7.37493 113.525 13.1473 102.194C17.2095 94.0695 23.6224 88.0832 27.6846 85.0901C26.8295 82.3108 25.5465 77.6075 24.9053 74.1871C-6.09394 96.6355 -2.88685 126.994 6.51984 141.318C13.5745 152.009 27.8985 158.636 43.7187 158.636C47.9942 158.636 52.2696 158.208 56.5458 157.14C83.9107 151.795 104.648 135.546 116.406 111.387V111.387ZM154.033 84.8768C137.785 65.8488 113.841 55.3731 86.476 55.3731H83.0556C81.1315 51.5248 77.0693 48.9589 72.5799 48.9589H72.152C65.5252 49.1728 60.3947 54.7313 60.608 61.3594C60.8219 67.7729 66.1664 72.9042 72.5799 72.9042H73.0071C77.7105 72.6902 81.7727 69.6971 83.4829 65.6349H87.3311C103.579 65.6349 118.972 70.3382 132.868 79.5316C143.557 86.587 151.254 95.7804 155.529 106.897C159.164 115.877 158.95 124.642 155.101 132.125C149.116 143.456 139.068 149.657 125.813 149.657C117.261 149.657 109.138 147.091 104.862 145.166C102.51 147.305 98.234 150.725 95.2409 152.864C104.434 157.139 113.841 159.491 122.82 159.491C143.343 159.491 158.522 148.16 164.295 136.829C170.494 124.428 170.067 103.049 154.033 84.8768V84.8768ZM45.4289 115.021C45.6428 121.435 50.9873 126.566 57.4009 126.566H57.8287C64.4562 126.352 69.5868 120.793 69.3728 114.166C69.1595 107.752 63.8144 102.621 57.4009 102.621H56.9736C56.5458 102.621 55.904 102.621 55.4774 102.834C46.7119 88.2965 43.0775 72.4763 44.3605 55.3724C45.215 42.5447 49.4911 31.4272 56.9736 22.2338C63.1732 14.3233 75.1452 10.4751 83.2696 10.2618C105.931 9.83391 115.551 38.0546 116.192 49.3861C118.972 50.0273 123.675 51.5242 126.882 52.5932C124.316 17.9589 102.937 0 82.4145 0C63.1732 0 45.4289 13.8968 38.3736 34.421C28.5396 61.7866 34.9532 88.0832 46.9251 108.821C45.8568 110.318 45.215 112.67 45.4289 115.022V115.021Z" fill="white"/>
</svg>