<svg width="149" height="149" viewBox="0 0 149 149" fill="none" xmlns="http://www.w3.org/2000/svg">
<path d="M134.449 0H14.5508C6.51461 0 0 6.51461 0 14.5508V134.449C0 142.485 6.51461 149 14.5508 149H134.449C142.485 149 149 142.485 149 134.449V14.5508C149 6.51461 142.485 0 134.449 0Z" fill="white"/>
<path fill-rule="evenodd" clip-rule="evenodd" d="M92.2519 118.443V132.994C94.6092 134.216 97.4902 135.118 100.691 135.73C103.893 136.341 107.385 136.632 110.877 136.632C114.369 136.632 117.57 136.312 120.771 135.642C123.973 134.973 126.592 133.867 128.92 132.441C131.277 130.899 133.285 128.949 134.449 126.33C135.613 123.711 136.515 120.8 136.515 117.017C136.515 114.369 136.108 112.07 135.322 110.033C134.536 107.996 133.402 106.25 131.83 104.795C130.346 103.252 128.629 101.884 126.592 100.72C124.555 99.5563 122.227 98.3341 119.607 97.2282C117.687 96.4425 116.115 95.6858 114.369 94.9292C112.856 94.1726 111.546 93.4159 110.586 92.6593C109.509 91.8735 108.694 91.0587 108.112 90.2147C107.53 89.3417 107.239 88.3813 107.239 87.3046C107.239 86.3151 107.498 85.413 108.025 84.5981C108.552 83.7833 109.276 83.114 110.208 82.5319C111.139 81.9499 112.303 81.5134 113.7 81.1932C115.068 80.8731 116.581 80.7276 118.356 80.7276C119.578 80.7276 120.859 80.8178 122.139 81.0012C123.478 81.1845 124.846 81.4668 126.213 81.8451C127.581 82.2234 128.92 82.6891 130.288 83.2711C131.568 83.8531 132.761 84.5225 133.78 85.2791V71.6014C131.568 70.7574 129.124 70.1172 126.504 69.7098C123.885 69.3023 120.975 69.0986 117.483 69.0986C113.991 69.0986 110.79 69.477 107.588 70.2045C104.387 70.932 101.768 72.0961 99.44 73.6967C97.0828 75.2682 95.3658 77.1889 93.9107 79.808C92.5429 82.2525 91.8736 85.0463 91.8736 88.5385C91.8736 92.9037 93.125 96.6869 95.6568 99.5971C98.1595 102.798 102.059 105.126 107.006 107.455C109.014 108.269 110.79 109.084 112.536 109.87C114.282 110.656 115.737 111.471 116.901 112.314C118.152 113.158 119.142 114.09 119.811 115.079C120.539 116.069 120.917 117.233 120.917 118.571C120.917 119.503 120.69 120.376 120.248 121.19C119.805 122.005 119.113 122.704 118.181 123.286C117.25 123.868 116.115 124.333 114.689 124.683C113.321 125.003 111.779 125.177 109.742 125.177C106.541 125.177 103.34 124.624 100.429 123.519C97.2283 122.413 94.3181 120.754 91.699 118.571L92.2519 118.443ZM67.8066 82.6483H86.4316V70.7167H34.3398V82.6483H52.9648V135.904H67.8066V82.6483Z" fill="black"/>
</svg>