<svg width="38" height="38" viewBox="0 0 38 38" fill="none" xmlns="http://www.w3.org/2000/svg">
<path d="M38 0L34.5381 34.196L18.9767 38L3.45823 34.2014L0 0H38Z" fill="white"/>
<path d="M7.92773 15.4746L8.35411 19.6692H18.9998V15.4746H7.92773Z" fill="#98353C"/>
<path d="M19.0006 6.99512H18.9841H7.07178L7.50423 11.1898H19.0006V6.99512Z" fill="#98353C"/>
<path d="M19 30.7401V26.3759L18.9792 26.3808L13.6811 25.1194L13.3424 21.7739H10.7679H8.56689L9.23338 28.3601L18.9782 30.7455L19 30.7401Z" fill="#98353C"/>
<path d="M24.8418 19.6798L24.2897 25.12L18.9839 26.3827V30.7467L28.7364 28.3634L28.808 27.6548L29.9258 16.6116L30.0419 15.4852L30.9007 6.99512H18.9839V11.1898H25.6873L25.2544 15.4852H18.9839V19.6798H24.8418Z" fill="#98353C"/>
</svg>
