<svg width="636" height="800" viewBox="0 0 636 800" fill="none" xmlns="http://www.w3.org/2000/svg">
    <path
        d="M544.559 0H91.458C41.1437 0 0.375 40.787 0.375 91.083V708.917C0.375 759.213 41.1437 800 91.458 800H544.523C594.837 800 635.606 759.213 635.606 708.917V91.083C635.642 40.787 594.819 0 544.559 0ZM85.738 307.041C85.738 285.691 103.062 268.403 124.375 268.403H137.892C123.483 252.482 114.629 231.424 114.629 208.216C114.629 158.612 154.87 118.39 204.474 118.39C254.114 118.39 294.318 158.594 294.318 208.234C294.318 231.405 285.465 252.482 271.019 268.403H283.935C305.284 268.403 322.572 285.691 322.572 307.041V372.22C322.572 392.659 306.632 409.199 286.594 410.584H121.716C101.677 409.199 85.738 392.659 85.738 372.22V307.041ZM513.828 681.592H122.171C102.06 681.592 85.738 665.27 85.738 645.159C85.738 625.048 102.06 608.726 122.171 608.726H513.828C533.939 608.726 550.261 625.048 550.261 645.159C550.261 665.27 533.939 681.592 513.828 681.592ZM513.828 544.968H122.171C102.06 544.968 85.738 528.646 85.738 508.534C85.738 488.423 102.06 472.101 122.171 472.101H513.828C533.939 472.101 550.261 488.423 550.261 508.534C550.261 528.646 533.939 544.968 513.828 544.968ZM513.828 408.343H395.42C375.309 408.343 358.987 392.021 358.987 371.91C358.987 351.799 375.309 335.477 395.42 335.477H513.828C533.939 335.477 550.261 351.799 550.261 371.91C550.261 392.021 533.939 408.343 513.828 408.343Z"
        fill="white" />
</svg>