<svg width="54" height="43" viewBox="0 0 54 43" fill="none" xmlns="http://www.w3.org/2000/svg">
<path d="M53.1215 17.6669C51.7974 16.7677 48.3189 16.3837 45.7904 17.0715C45.6547 14.5302 44.3546 12.3882 41.9786 10.5193L41.0994 9.92388L40.5132 10.8174C39.3609 12.5819 38.8751 14.9336 39.047 17.0715C39.1827 18.3888 39.6363 19.8688 40.5132 20.943C37.2218 22.8695 34.1873 22.432 20.7503 22.432H0.0045934C-0.0556299 25.4934 0.431777 31.3813 4.14314 36.1748C4.55346 36.7046 5.00232 37.2166 5.49053 37.7099C8.50812 40.7584 13.0674 42.9943 19.8847 43C30.2857 43.0097 39.1963 37.3373 44.6172 23.6237C46.4006 23.6529 51.1093 23.9461 53.4138 19.4541C53.47 19.3787 54 18.2632 54 18.2632L53.1215 17.6678V17.6669ZM13.5436 14.868H7.70996V20.7535H13.5436V14.868ZM21.0795 14.868H15.2459V20.7535H21.0795V14.868ZM28.6163 14.868H22.7826V20.7535H28.6163V14.868ZM36.153 14.868H30.3194V20.7535H36.153V14.868ZM6.00685 14.868H0.173219V20.7535H6.00685V14.868ZM13.5436 7.43441H7.70996V13.3199H13.5436V7.43441ZM21.0795 7.43441H15.2459V13.3199H21.0795V7.43441ZM28.6163 7.43441H22.7826V13.3199H28.6163V7.43441ZM28.6163 0H22.7826V5.88547H28.6163V0Z" fill="white"/>
</svg>
