<svg width="136" height="32" viewBox="0 0 136 32" fill="none" xmlns="http://www.w3.org/2000/svg">
<path d="M42.1809 31.6075V1.07788H43.7948V5.88022C43.9854 5.66728 44.1614 5.44108 44.3216 5.20326C45.6696 2.33378 48.5127 0.522796 51.6166 0.558566C55.2964 0.445959 58.2868 1.84361 60.044 5.20326C61.1623 7.29041 61.7776 9.62178 61.8387 12.0027C61.8998 14.3836 61.4049 16.7449 60.3952 18.8896C58.758 22.6546 54.7141 24.5265 50.3849 23.839C49.0376 23.7215 47.7404 23.2596 46.6118 22.4954C45.4832 21.7313 44.5591 20.6893 43.9239 19.4645V31.6062L42.1809 31.6075ZM43.7948 11.8775L44.1563 15.4624C44.7942 19.5427 47.1454 21.9538 50.8368 22.4069C52.5703 22.6993 54.349 22.3659 55.8697 21.4633C57.3905 20.5608 58.5591 19.1451 59.1764 17.4575C60.6121 13.9468 60.5063 9.97247 58.8923 6.54393C58.2335 5.03114 57.1127 3.77948 55.6992 2.9781C54.2857 2.17672 52.6565 1.86918 51.0576 2.10194C49.5568 2.21396 48.1272 2.80279 46.9675 3.78662C45.8078 4.77045 44.9755 6.10044 44.5863 7.59184C44.2426 9.00319 43.9783 10.4337 43.7948 11.8762V11.8775ZM94.793 16.0267C94.5482 18.1763 93.5509 20.1615 91.9865 21.6131C90.4221 23.0647 88.3971 23.884 86.2881 23.9185C79.5199 24.2682 76.3436 19.6566 75.8388 14.335C75.4877 11.4451 75.9449 8.51227 77.157 5.8789C78.0007 4.07241 79.3829 2.5884 81.1035 1.64185C82.8242 0.695304 84.7938 0.335376 86.7271 0.614206C88.565 0.774496 90.3073 1.52379 91.7073 2.75605C93.1074 3.9883 94.0942 5.64111 94.5283 7.48056C94.8721 9.15619 95.1251 10.8501 95.2862 12.5545H77.5108C77.1816 17.3793 79.7084 21.2583 83.29 22.1936C87.751 23.3197 91.5638 21.3365 92.9479 16.9846C93.2552 15.8678 93.8156 15.7101 94.8046 16.0267H94.793ZM77.4979 11.0098H93.3972C93.2978 5.86962 90.1784 2.13373 85.9473 2.09134C81.17 2.01185 77.7058 5.59804 77.4979 11.0098ZM98.079 16.1393H99.6374C99.6947 17.3174 100.068 18.4564 100.715 19.431C101.362 20.4057 102.259 21.1782 103.307 21.6637C104.622 22.2711 106.054 22.5663 107.497 22.5273C108.939 22.4884 110.354 22.1162 111.636 21.4385C112.335 21.1155 112.921 20.5801 113.314 19.9046C113.707 19.2292 113.888 18.4462 113.834 17.6615C113.874 16.9048 113.673 16.1552 113.26 15.5264C112.848 14.8977 112.247 14.424 111.548 14.1773C109.834 13.5229 108.011 13.1626 106.264 12.5876C104.446 12.0566 102.668 11.3898 100.945 10.5925C98.1306 9.1829 97.9563 3.693 101.143 1.95489C102.775 1.0102 104.611 0.499757 106.484 0.470137C108.357 0.440517 110.208 0.892661 111.867 1.78532C113.925 2.95112 115.063 5.30526 114.725 7.69385H113.388C113.388 7.62761 113.267 7.56932 113.267 7.50175C113.102 3.12997 109.52 1.76279 105.675 2.14698C104.513 2.27946 103.411 2.6398 102.379 3.17236C101.758 3.46331 101.24 3.94509 100.898 4.55102C100.555 5.15695 100.405 5.85708 100.468 6.55453C100.469 7.2525 100.681 7.93293 101.074 8.50227C101.468 9.0716 102.024 9.50191 102.665 9.73401C104.344 10.3659 106.125 10.7713 107.862 11.2668L112.058 12.3929C113.012 12.7141 113.848 13.3248 114.457 14.1442C115.065 14.9636 115.416 15.9531 115.464 16.9819C115.8 19.2936 114.651 21.5656 112.619 22.6189C108.949 24.7491 102.905 24.1861 100.213 21.4928C98.8356 20.0713 98.0674 18.1411 98.0828 16.138L98.079 16.1393ZM135.239 7.69517H133.777C133.777 7.49248 133.699 7.29774 133.678 7.14274C133.654 6.01862 133.255 4.93691 132.547 4.07896C131.838 3.22102 130.864 2.639 129.787 2.43048C127.756 1.8327 125.589 1.93981 123.623 2.73518C122.846 2.96344 122.161 3.44373 121.672 4.10423C121.183 4.76474 120.915 5.56997 120.909 6.39953C120.881 7.21409 121.129 8.0135 121.609 8.66261C122.089 9.31171 122.774 9.77067 123.546 9.96187L130.226 11.7212C130.949 11.899 131.66 12.121 132.357 12.3862C134.487 13.1811 135.933 15.2107 135.998 17.5304C136.03 18.6658 135.726 19.7846 135.127 20.7398C134.528 21.695 133.661 22.442 132.641 22.8825C131.09 23.6051 129.41 23.9875 127.707 24.0051C126.004 24.0226 124.316 23.675 122.752 22.9845C121.465 22.4153 120.38 21.4554 119.641 20.2339C118.902 19.0124 118.546 17.5881 118.62 16.1526H120.048C120.585 18.8088 122.363 21.0212 124.802 22.0677C127.241 23.1143 130.026 22.8573 132.244 21.3842C132.91 21.029 133.462 20.4857 133.836 19.8184C134.21 19.1512 134.39 18.3879 134.354 17.6191C134.387 16.8618 134.179 16.1141 133.76 15.4894C133.342 14.8647 132.736 14.3971 132.035 14.1575C130.32 13.503 128.497 13.1546 126.75 12.5677C124.922 12.0449 123.134 11.3856 121.4 10.5951C118.652 9.20807 118.433 3.76322 121.565 2.02643C123.217 1.04209 125.089 0.513278 126.999 0.491456C128.909 0.469633 130.792 0.955543 132.465 1.9019C133.422 2.48779 134.192 3.34649 134.682 4.37343C135.171 5.40037 135.359 6.55124 135.223 7.6859L135.239 7.69517ZM39.5249 23.3674C38.9496 23.5906 38.3145 23.59 37.7396 23.3657C37.1647 23.1414 36.6897 22.7089 36.4042 22.1499L30.7231 14.0886L29.8994 12.9625L23.3067 22.1618C23.038 22.6968 22.5887 23.1131 22.0427 23.333C21.4966 23.5529 20.8913 23.5614 20.3396 23.3568L28.8329 11.6655L20.931 1.10173C22.1033 0.667198 23.41 1.13882 24.062 2.22779L29.9497 10.3885L35.8723 2.25959C36.143 1.73376 36.5926 1.32836 37.1356 1.12049C37.6786 0.912625 38.2772 0.916791 38.8174 1.1322L35.7509 5.30659L31.5972 10.8535C31.4819 10.9591 31.3897 11.0885 31.3266 11.2332C31.2634 11.378 31.2308 11.5348 31.2308 11.6934C31.2308 11.852 31.2634 12.0087 31.3266 12.1535C31.3897 12.2982 31.4819 12.4277 31.5972 12.5333L39.5082 23.3674H39.5249ZM75.587 0.989121V2.57886C74.4757 2.50407 73.3614 2.6692 72.3161 3.06359C71.2708 3.45798 70.3177 4.07287 69.5184 4.86857C68.719 5.66427 68.0912 6.6231 67.6753 7.68318C67.2595 8.74325 67.0649 9.88101 67.1041 11.023C67.1041 14.736 67.1041 18.4489 67.1041 22.1618V23.4243H65.5327V1.08848H67.0821V5.6656C68.9827 2.32715 71.9162 1.08848 75.5973 0.998394L75.587 0.989121ZM0.00258275 11.5198L0.694643 8.01312C2.59523 1.07921 10.3422 -1.80617 15.6721 2.48878C18.7928 5.00321 19.5714 8.56555 19.419 12.5796H1.83732C1.55326 19.7494 6.59524 24.0788 13.0446 21.869C15.1698 21.0742 16.7696 19.2619 17.2964 17.0097C17.6372 15.8837 18.2002 15.6902 19.2305 16.0161C19.0587 17.3888 18.5857 18.7036 17.8473 19.8617C17.1088 21.0198 16.1241 21.991 14.9671 22.7023C13.0556 23.7749 10.8625 24.1999 8.70145 23.9165C6.54036 23.6331 4.52194 22.6559 2.9348 21.1245C1.36475 19.3135 0.417045 17.0243 0.232409 14.6066C0.232409 14.2091 0.103293 13.8382 0.0129119 13.4805C0.00430416 12.8119 0 12.1584 0 11.5198H0.00258275ZM1.85927 11.035H17.7586C17.6592 5.83783 14.4623 2.15096 10.1989 2.11651C5.45256 2.05027 2.05682 5.65633 1.84765 11.0124L1.85927 11.035Z" fill="white"/>
</svg>
