<svg width="40" height="40" viewBox="0 0 40 40" fill="none" xmlns="http://www.w3.org/2000/svg">
<path d="M39.2455 18.2178L21.7813 0.754502C20.7757 -0.2515 19.1446 -0.2515 18.1382 0.754502L14.512 4.38151L19.112 8.98143C20.1811 8.62012 21.4069 8.86259 22.2588 9.71493C23.116 10.5725 23.3562 11.8088 22.9858 12.8818L27.4199 17.3154C28.4929 16.9454 29.7301 17.1849 30.5867 18.0428C31.7838 19.24 31.7838 21.1797 30.5867 22.3777C29.3888 23.5752 27.449 23.5752 26.2506 22.3777C25.3504 21.4766 25.1275 20.1532 25.5842 19.0441L21.4487 14.909V25.7905C21.7404 25.935 22.0159 26.1274 22.2588 26.3703C23.4559 27.5674 23.4559 29.5072 22.2588 30.7056C21.0617 31.9023 19.1207 31.9023 17.9244 30.7056C16.7273 29.5067 16.7273 27.567 17.9244 26.3703C18.2205 26.0748 18.563 25.851 18.9287 25.7013V14.7184C18.563 14.5686 18.2213 14.3471 17.9244 14.0493C17.0177 13.143 16.7996 11.8118 17.2645 10.6983L12.7299 6.1628L0.754501 18.1369C-0.2515 19.1437 -0.2515 20.7749 0.754501 21.7809L18.2196 39.2446C19.2251 40.2506 20.8558 40.2506 21.8627 39.2446L39.2455 21.8618C40.2515 20.8558 40.2515 19.2238 39.2455 18.2178Z" fill="white"/>
</svg>
