<svg width="40" height="42" viewBox="0 0 40 42" fill="none" xmlns="http://www.w3.org/2000/svg">
<mask id="path-1-inside-1_1631_163" fill="white">
<path d="M18.3067 23.8428C18.0861 23.8428 17.8745 23.753 17.7183 23.5931L16.4767 22.3226C16.397 22.2438 16.3334 22.1495 16.2896 22.0453C16.2457 21.941 16.2226 21.8289 16.2215 21.7153C16.2204 21.6018 16.2413 21.4892 16.2831 21.3841C16.3248 21.2789 16.3866 21.1834 16.4647 21.103C16.5428 21.0226 16.6358 20.959 16.7381 20.9158C16.8405 20.8727 16.9502 20.8509 17.0608 20.8517C17.1715 20.8525 17.2808 20.876 17.3826 20.9206C17.4843 20.9653 17.5763 21.0303 17.6533 21.1118L18.3067 21.7805L20.275 19.7626C20.4313 19.602 20.6433 19.5117 20.8644 19.5116C21.0855 19.5114 21.2977 19.6014 21.4542 19.7617C21.6106 19.922 21.6986 20.1396 21.6988 20.3665C21.699 20.5934 21.6113 20.811 21.455 20.9716L18.8967 23.5931C18.7397 23.7528 18.5277 23.8425 18.3067 23.8428ZM33.895 23.5914L36.4517 20.9716C36.6035 20.8103 36.6875 20.5944 36.6856 20.3702C36.6837 20.146 36.596 19.9315 36.4415 19.773C36.287 19.6145 36.078 19.5245 35.8595 19.5226C35.641 19.5206 35.4305 19.6068 35.2733 19.7626L33.305 21.7805L32.6517 21.1118C32.5747 21.0303 32.4826 20.9653 32.3809 20.9206C32.2792 20.876 32.1698 20.8525 32.0592 20.8517C31.9485 20.8509 31.8388 20.8727 31.7365 20.9158C31.6341 20.959 31.5412 21.0226 31.463 21.103C31.3849 21.1834 31.3232 21.2789 31.2814 21.3841C31.2396 21.4892 31.2187 21.6018 31.2198 21.7153C31.2209 21.8289 31.2441 21.941 31.2879 22.0453C31.3317 22.1495 31.3953 22.2438 31.475 22.3226L32.7183 23.5931C32.7955 23.6727 32.8872 23.7359 32.9882 23.7789C33.0893 23.822 33.1976 23.8441 33.307 23.8439C33.4164 23.8437 33.5247 23.8214 33.6256 23.778C33.7265 23.7347 33.8181 23.6713 33.895 23.5914ZM7.545 12.9257L11.8067 10.2153C12.0473 10.0625 12.246 9.84941 12.3842 9.59605C12.5223 9.3427 12.5954 9.05742 12.5964 8.76711C12.5974 8.4768 12.5263 8.191 12.3899 7.93665C12.2535 7.6823 12.0562 7.46777 11.8167 7.31327L7.555 4.56006C7.30286 4.39709 7.01276 4.30647 6.71489 4.29762C6.41702 4.28878 6.12229 4.36203 5.86139 4.50976C5.60049 4.65749 5.38296 4.87429 5.23146 5.13758C5.07996 5.40087 5.00003 5.70103 5 6.00678V11.4722C5.00049 11.7767 5.08016 12.0756 5.23079 12.338C5.38142 12.6004 5.59756 12.8169 5.8569 12.965C6.11625 13.1131 6.40941 13.1876 6.70615 13.1807C7.00289 13.1738 7.29247 13.0858 7.545 12.9257ZM10.9283 8.75999L6.66667 11.4722V6.00678L10.9283 8.75999ZM40 21.5582C40 24.8586 37.3833 27.5434 34.1667 27.5434C32.7654 27.5406 31.4119 27.0209 30.3532 26.079C29.2944 25.1372 28.6012 23.836 28.4 22.4132H24.9333C24.7321 23.836 24.0389 25.1372 22.9802 26.079C21.9215 27.0209 20.5679 27.5406 19.1667 27.5434C17.7653 27.541 16.4116 27.0214 15.3528 26.0794C14.294 25.1375 13.6009 23.8362 13.4 22.4132H12.47C10.85 22.4132 9.38667 21.7309 8.33333 20.6313V29.2535C8.33333 32.0819 10.5767 34.3837 13.3333 34.3837H13.4C13.8067 31.4885 16.2333 29.2535 19.1667 29.2535C22.3833 29.2535 25 31.9383 25 35.2387C25 38.5391 22.3833 41.2239 19.1667 41.2239C17.7653 41.2216 16.4116 40.7019 15.3528 39.76C14.294 38.8181 13.6009 37.5167 13.4 36.0937H13.3333C9.65667 36.0937 6.66667 33.0259 6.66667 29.2535V17.1103C4.78582 16.7137 3.09575 15.6639 1.88135 14.1379C0.666949 12.6118 0.00249525 10.7028 0 8.73263C0 4.01797 3.73833 0.182281 8.33333 0.182281C12.9283 0.182281 16.6667 4.01797 16.6667 8.73263C16.6637 10.9849 15.7956 13.1452 14.2507 14.7452C12.7057 16.3451 10.6083 17.2557 8.41333 17.2796C8.59859 18.2439 9.1043 19.1124 9.84413 19.7367C10.584 20.3611 11.5121 20.7027 12.47 20.7031H13.4C13.8067 17.808 16.2333 15.5729 19.1667 15.5729C20.568 15.5753 21.9217 16.0949 22.9805 17.0369C24.0393 17.9788 24.7325 19.2801 24.9333 20.7031H28.4C28.6012 19.2803 29.2944 17.9791 30.3532 17.0373C31.4119 16.0954 32.7654 15.5757 34.1667 15.5729C37.3833 15.5729 40 18.2577 40 21.5582ZM15 35.2387C15 37.5952 16.87 39.5139 19.1667 39.5139C21.4633 39.5139 23.3333 37.5952 23.3333 35.2387C23.3333 32.8822 21.4633 30.9635 19.1667 30.9635C16.87 30.9635 15 32.8822 15 35.2387ZM8.33333 15.5729C12.01 15.5729 15 12.505 15 8.73263C15 4.96022 12.01 1.89235 8.33333 1.89235C4.65667 1.89235 1.66667 4.96022 1.66667 8.73263C1.66667 12.505 4.65667 15.5729 8.33333 15.5729ZM23.3333 21.5582C23.3333 19.2017 21.4633 17.283 19.1667 17.283C16.87 17.283 15 19.2017 15 21.5582C15 23.9146 16.87 25.8333 19.1667 25.8333C21.4633 25.8333 23.3333 23.9146 23.3333 21.5582ZM38.3333 21.5582C38.3333 19.2017 36.4633 17.283 34.1667 17.283C31.87 17.283 30 19.2017 30 21.5582C30 23.9146 31.87 25.8333 34.1667 25.8333C36.4633 25.8333 38.3333 23.9146 38.3333 21.5582ZM16.6667 35.2387C16.6667 35.4655 16.7545 35.683 16.9107 35.8433C17.067 36.0037 17.279 36.0937 17.5 36.0937C17.721 36.0937 17.933 36.0037 18.0893 35.8433C18.2455 35.683 18.3333 35.4655 18.3333 35.2387C18.3333 35.0119 18.2455 34.7945 18.0893 34.6341C17.933 34.4738 17.721 34.3837 17.5 34.3837C17.279 34.3837 17.067 34.4738 16.9107 34.6341C16.7545 34.7945 16.6667 35.0119 16.6667 35.2387ZM20 35.2387C20 35.4655 20.0878 35.683 20.2441 35.8433C20.4004 36.0037 20.6123 36.0937 20.8333 36.0937C21.0543 36.0937 21.2663 36.0037 21.4226 35.8433C21.5789 35.683 21.6667 35.4655 21.6667 35.2387C21.6667 35.0119 21.5789 34.7945 21.4226 34.6341C21.2663 34.4738 21.0543 34.3837 20.8333 34.3837C20.6123 34.3837 20.4004 34.4738 20.2441 34.6341C20.0878 34.7945 20 35.0119 20 35.2387ZM40 35.2387C40 38.5391 37.3833 41.2239 34.1667 41.2239C32.7649 41.2211 31.411 40.7008 30.3522 39.7583C29.2934 38.8157 28.6005 37.5138 28.4 36.0903C28.3883 36.092 28.3783 36.0989 28.365 36.0989L27.5217 36.1279H27.4933C27.2784 36.1223 27.0739 36.0316 26.9227 35.8748C26.7714 35.7181 26.685 35.5074 26.6816 35.2869C26.6781 35.0663 26.7579 34.8529 26.9042 34.6913C27.0505 34.5297 27.252 34.4323 27.4667 34.4196L28.31 34.3905C28.34 34.3871 28.3683 34.4008 28.3967 34.4025C28.5939 32.9756 29.2859 31.6696 30.3457 30.7238C31.4055 29.7781 32.7621 29.256 34.1667 29.2535C37.3833 29.2535 40 31.9383 40 35.2387ZM38.3333 35.2387C38.3333 32.8822 36.4633 30.9635 34.1667 30.9635C31.87 30.9635 30 32.8822 30 35.2387C30 37.5952 31.87 39.5139 34.1667 39.5139C36.4633 39.5139 38.3333 37.5952 38.3333 35.2387Z"/>
</mask>
<path d="M18.3067 23.8428C18.0861 23.8428 17.8745 23.753 17.7183 23.5931L16.4767 22.3226C16.397 22.2438 16.3334 22.1495 16.2896 22.0453C16.2457 21.941 16.2226 21.8289 16.2215 21.7153C16.2204 21.6018 16.2413 21.4892 16.2831 21.3841C16.3248 21.2789 16.3866 21.1834 16.4647 21.103C16.5428 21.0226 16.6358 20.959 16.7381 20.9158C16.8405 20.8727 16.9502 20.8509 17.0608 20.8517C17.1715 20.8525 17.2808 20.876 17.3826 20.9206C17.4843 20.9653 17.5763 21.0303 17.6533 21.1118L18.3067 21.7805L20.275 19.7626C20.4313 19.602 20.6433 19.5117 20.8644 19.5116C21.0855 19.5114 21.2977 19.6014 21.4542 19.7617C21.6106 19.922 21.6986 20.1396 21.6988 20.3665C21.699 20.5934 21.6113 20.811 21.455 20.9716L18.8967 23.5931C18.7397 23.7528 18.5277 23.8425 18.3067 23.8428ZM33.895 23.5914L36.4517 20.9716C36.6035 20.8103 36.6875 20.5944 36.6856 20.3702C36.6837 20.146 36.596 19.9315 36.4415 19.773C36.287 19.6145 36.078 19.5245 35.8595 19.5226C35.641 19.5206 35.4305 19.6068 35.2733 19.7626L33.305 21.7805L32.6517 21.1118C32.5747 21.0303 32.4826 20.9653 32.3809 20.9206C32.2792 20.876 32.1698 20.8525 32.0592 20.8517C31.9485 20.8509 31.8388 20.8727 31.7365 20.9158C31.6341 20.959 31.5412 21.0226 31.463 21.103C31.3849 21.1834 31.3232 21.2789 31.2814 21.3841C31.2396 21.4892 31.2187 21.6018 31.2198 21.7153C31.2209 21.8289 31.2441 21.941 31.2879 22.0453C31.3317 22.1495 31.3953 22.2438 31.475 22.3226L32.7183 23.5931C32.7955 23.6727 32.8872 23.7359 32.9882 23.7789C33.0893 23.822 33.1976 23.8441 33.307 23.8439C33.4164 23.8437 33.5247 23.8214 33.6256 23.778C33.7265 23.7347 33.8181 23.6713 33.895 23.5914ZM7.545 12.9257L11.8067 10.2153C12.0473 10.0625 12.246 9.84941 12.3842 9.59605C12.5223 9.3427 12.5954 9.05742 12.5964 8.76711C12.5974 8.4768 12.5263 8.191 12.3899 7.93665C12.2535 7.6823 12.0562 7.46777 11.8167 7.31327L7.555 4.56006C7.30286 4.39709 7.01276 4.30647 6.71489 4.29762C6.41702 4.28878 6.12229 4.36203 5.86139 4.50976C5.60049 4.65749 5.38296 4.87429 5.23146 5.13758C5.07996 5.40087 5.00003 5.70103 5 6.00678V11.4722C5.00049 11.7767 5.08016 12.0756 5.23079 12.338C5.38142 12.6004 5.59756 12.8169 5.8569 12.965C6.11625 13.1131 6.40941 13.1876 6.70615 13.1807C7.00289 13.1738 7.29247 13.0858 7.545 12.9257ZM10.9283 8.75999L6.66667 11.4722V6.00678L10.9283 8.75999ZM40 21.5582C40 24.8586 37.3833 27.5434 34.1667 27.5434C32.7654 27.5406 31.4119 27.0209 30.3532 26.079C29.2944 25.1372 28.6012 23.836 28.4 22.4132H24.9333C24.7321 23.836 24.0389 25.1372 22.9802 26.079C21.9215 27.0209 20.5679 27.5406 19.1667 27.5434C17.7653 27.541 16.4116 27.0214 15.3528 26.0794C14.294 25.1375 13.6009 23.8362 13.4 22.4132H12.47C10.85 22.4132 9.38667 21.7309 8.33333 20.6313V29.2535C8.33333 32.0819 10.5767 34.3837 13.3333 34.3837H13.4C13.8067 31.4885 16.2333 29.2535 19.1667 29.2535C22.3833 29.2535 25 31.9383 25 35.2387C25 38.5391 22.3833 41.2239 19.1667 41.2239C17.7653 41.2216 16.4116 40.7019 15.3528 39.76C14.294 38.8181 13.6009 37.5167 13.4 36.0937H13.3333C9.65667 36.0937 6.66667 33.0259 6.66667 29.2535V17.1103C4.78582 16.7137 3.09575 15.6639 1.88135 14.1379C0.666949 12.6118 0.00249525 10.7028 0 8.73263C0 4.01797 3.73833 0.182281 8.33333 0.182281C12.9283 0.182281 16.6667 4.01797 16.6667 8.73263C16.6637 10.9849 15.7956 13.1452 14.2507 14.7452C12.7057 16.3451 10.6083 17.2557 8.41333 17.2796C8.59859 18.2439 9.1043 19.1124 9.84413 19.7367C10.584 20.3611 11.5121 20.7027 12.47 20.7031H13.4C13.8067 17.808 16.2333 15.5729 19.1667 15.5729C20.568 15.5753 21.9217 16.0949 22.9805 17.0369C24.0393 17.9788 24.7325 19.2801 24.9333 20.7031H28.4C28.6012 19.2803 29.2944 17.9791 30.3532 17.0373C31.4119 16.0954 32.7654 15.5757 34.1667 15.5729C37.3833 15.5729 40 18.2577 40 21.5582ZM15 35.2387C15 37.5952 16.87 39.5139 19.1667 39.5139C21.4633 39.5139 23.3333 37.5952 23.3333 35.2387C23.3333 32.8822 21.4633 30.9635 19.1667 30.9635C16.87 30.9635 15 32.8822 15 35.2387ZM8.33333 15.5729C12.01 15.5729 15 12.505 15 8.73263C15 4.96022 12.01 1.89235 8.33333 1.89235C4.65667 1.89235 1.66667 4.96022 1.66667 8.73263C1.66667 12.505 4.65667 15.5729 8.33333 15.5729ZM23.3333 21.5582C23.3333 19.2017 21.4633 17.283 19.1667 17.283C16.87 17.283 15 19.2017 15 21.5582C15 23.9146 16.87 25.8333 19.1667 25.8333C21.4633 25.8333 23.3333 23.9146 23.3333 21.5582ZM38.3333 21.5582C38.3333 19.2017 36.4633 17.283 34.1667 17.283C31.87 17.283 30 19.2017 30 21.5582C30 23.9146 31.87 25.8333 34.1667 25.8333C36.4633 25.8333 38.3333 23.9146 38.3333 21.5582ZM16.6667 35.2387C16.6667 35.4655 16.7545 35.683 16.9107 35.8433C17.067 36.0037 17.279 36.0937 17.5 36.0937C17.721 36.0937 17.933 36.0037 18.0893 35.8433C18.2455 35.683 18.3333 35.4655 18.3333 35.2387C18.3333 35.0119 18.2455 34.7945 18.0893 34.6341C17.933 34.4738 17.721 34.3837 17.5 34.3837C17.279 34.3837 17.067 34.4738 16.9107 34.6341C16.7545 34.7945 16.6667 35.0119 16.6667 35.2387ZM20 35.2387C20 35.4655 20.0878 35.683 20.2441 35.8433C20.4004 36.0037 20.6123 36.0937 20.8333 36.0937C21.0543 36.0937 21.2663 36.0037 21.4226 35.8433C21.5789 35.683 21.6667 35.4655 21.6667 35.2387C21.6667 35.0119 21.5789 34.7945 21.4226 34.6341C21.2663 34.4738 21.0543 34.3837 20.8333 34.3837C20.6123 34.3837 20.4004 34.4738 20.2441 34.6341C20.0878 34.7945 20 35.0119 20 35.2387ZM40 35.2387C40 38.5391 37.3833 41.2239 34.1667 41.2239C32.7649 41.2211 31.411 40.7008 30.3522 39.7583C29.2934 38.8157 28.6005 37.5138 28.4 36.0903C28.3883 36.092 28.3783 36.0989 28.365 36.0989L27.5217 36.1279H27.4933C27.2784 36.1223 27.0739 36.0316 26.9227 35.8748C26.7714 35.7181 26.685 35.5074 26.6816 35.2869C26.6781 35.0663 26.7579 34.8529 26.9042 34.6913C27.0505 34.5297 27.252 34.4323 27.4667 34.4196L28.31 34.3905C28.34 34.3871 28.3683 34.4008 28.3967 34.4025C28.5939 32.9756 29.2859 31.6696 30.3457 30.7238C31.4055 29.7781 32.7621 29.256 34.1667 29.2535C37.3833 29.2535 40 31.9383 40 35.2387ZM38.3333 35.2387C38.3333 32.8822 36.4633 30.9635 34.1667 30.9635C31.87 30.9635 30 32.8822 30 35.2387C30 37.5952 31.87 39.5139 34.1667 39.5139C36.4633 39.5139 38.3333 37.5952 38.3333 35.2387Z" fill="white" stroke="white" stroke-width="26" mask="url(#path-1-inside-1_1631_163)"/>
</svg>
