<svg width="230" height="225" viewBox="0 0 230 225" fill="none" xmlns="http://www.w3.org/2000/svg">
    <path fill-rule="evenodd" clip-rule="evenodd"
        d="M115 0.0244141C51.4625 0.0244141 0 51.4869 0 115.024C0 165.912 32.9187 208.893 78.6312 224.131C84.3812 225.137 86.5375 221.687 86.5375 218.668C86.5375 215.937 86.3938 206.881 86.3938 197.249C57.5 202.568 50.025 190.206 47.725 183.737C46.4312 180.431 40.825 170.224 35.9375 167.493C31.9125 165.337 26.1625 160.018 35.7938 159.874C44.85 159.731 51.3188 168.212 53.475 171.662C63.825 189.056 80.3563 184.168 86.9688 181.149C87.975 173.674 90.9937 168.643 94.3 165.768C68.7125 162.893 41.975 152.974 41.975 108.987C41.975 96.4807 46.4313 86.1307 53.7625 78.0807C52.6125 75.2057 48.5875 63.4182 54.9125 47.6057C54.9125 47.6057 64.5438 44.5869 86.5375 59.3932C95.7375 56.8057 105.513 55.5119 115.288 55.5119C125.063 55.5119 134.838 56.8057 144.038 59.3932C166.031 44.4432 175.663 47.6057 175.663 47.6057C181.988 63.4182 177.963 75.2057 176.813 78.0807C184.144 86.1307 188.6 96.3369 188.6 108.987C188.6 153.118 161.719 162.893 136.131 165.768C140.3 169.362 143.894 176.262 143.894 187.043C143.894 202.424 143.75 214.787 143.75 218.668C143.75 221.687 145.906 225.281 151.656 224.131C197.081 208.893 230 165.768 230 115.024C230 51.4869 178.538 0.0244141 115 0.0244141Z"
        fill="white" />
</svg>