<svg width="38" height="38" viewBox="0 0 38 38" fill="none" xmlns="http://www.w3.org/2000/svg">
<path d="M38 0H0V38H38V0Z" fill="white"/>
<path d="M25.5272 29.6884C26.2927 30.9382 27.2885 31.8568 29.0498 31.8568C30.5294 31.8568 31.4745 31.1173 31.4745 30.0955C31.4745 28.8711 30.5034 28.4374 28.8748 27.7251L27.9822 27.342C25.4054 26.2443 23.6936 24.869 23.6936 21.9617C23.6936 19.2836 25.7341 17.2449 28.9231 17.2449C31.1935 17.2449 32.8256 18.0351 34.0018 20.104L31.2212 21.8894C30.609 20.7916 29.9485 20.3591 28.9231 20.3591C27.8772 20.3591 27.2143 21.0226 27.2143 21.8894C27.2143 22.9606 27.8778 23.3943 29.4099 24.0578L30.3026 24.4402C33.3365 25.7412 35.0495 27.0676 35.0495 30.0497C35.0495 33.2646 32.5241 35.0259 29.1324 35.0259C25.8162 35.0259 23.6737 33.4456 22.6254 31.3743L25.5272 29.6884ZM12.913 29.9978C13.474 30.9931 13.9843 31.8345 15.2111 31.8345C16.3843 31.8345 17.1244 31.3755 17.1244 29.5907V17.4488H20.6952V29.6389C20.6952 33.3364 18.5274 35.0192 15.3631 35.0192C12.5041 35.0192 10.8484 33.5397 10.0063 31.7576L12.913 29.9978Z" fill="#98353C"/>
</svg>
