<svg width="30" height="41" viewBox="0 0 30 41" fill="none" xmlns="http://www.w3.org/2000/svg">
<path d="M9.69806 31.453C9.69806 31.453 8.13422 32.404 10.7851 32.6761C13.9764 33.0829 15.6762 33.0155 19.2082 32.3366C19.9181 32.7713 20.6689 33.1354 21.4497 33.4237C13.5034 36.8209 3.44652 33.2202 9.69679 31.453H9.69806ZM8.68093 27.0374C8.68093 27.0374 6.98232 28.3279 9.63195 28.6012C13.0966 28.9407 15.8136 29.0081 20.5025 28.0583C20.9586 28.5208 21.5169 28.8696 22.1325 29.0767C12.5537 31.9298 1.82038 29.3488 8.68093 27.0386V27.0374ZM27.4305 34.7803C27.4305 34.7803 28.5849 35.7313 26.14 36.4789C21.5883 37.8393 7.05098 38.2461 2.97483 36.4789C1.5483 35.8686 4.26531 34.985 5.13623 34.8489C6.01986 34.6455 6.49664 34.6455 6.49664 34.6455C4.9328 33.5584 -3.89716 36.887 2.01364 37.8367C18.2496 40.4864 31.6325 36.6823 27.4203 34.7803H27.4305ZM10.4329 22.4171C10.4329 22.4171 3.02823 24.1843 7.78331 24.7946C9.82139 25.0667 13.8289 24.998 17.5656 24.7272C20.622 24.4551 23.6811 23.9135 23.6811 23.9135C23.6811 23.9135 22.594 24.389 21.8464 24.8645C14.3069 26.8352 -0.164294 25.9516 3.98052 23.9135C7.5125 22.2149 10.4342 22.4196 10.4342 22.4196L10.4329 22.4171ZM23.6811 29.8218C31.2892 25.8804 27.7572 22.0789 25.311 22.5531C24.7007 22.6891 24.4274 22.8252 24.4274 22.8252C24.4274 22.8252 24.6308 22.4183 25.1063 22.2823C29.9301 20.5837 33.7341 27.3768 23.5425 30.0252C23.5425 30.0252 23.6099 29.9578 23.6785 29.8218H23.6811ZM11.1831 40.555C18.5191 41.0305 29.7292 40.2829 30 36.8171C30 36.8171 29.4571 38.1775 23.9544 39.1946C17.7042 40.349 9.95997 40.2117 5.40831 39.4667C5.40831 39.4667 6.35933 40.2804 11.1831 40.5537V40.555Z" fill="white"/>
<path d="M19.0736 0C19.0736 0 23.2858 4.27958 15.0661 10.7333C8.47633 15.9639 13.5722 18.953 15.0661 22.3502C11.1933 18.8856 8.40894 15.8278 10.311 12.976C13.0954 8.76258 20.7722 6.73722 19.0736 0ZM16.9122 19.4971C18.8829 21.7386 16.3693 23.7767 16.3693 23.7767C16.3693 23.7767 21.3964 21.1957 19.0863 18.0019C16.9808 14.9455 15.3483 13.4503 24.1808 8.35573C24.1808 8.35573 10.255 11.8203 16.9122 19.4971Z" fill="white"/>
</svg>
