<svg width="72" height="72" viewBox="0 0 72 72" fill="none" xmlns="http://www.w3.org/2000/svg">
    <path fill-rule="evenodd" clip-rule="evenodd"
        d="M64 72H8C3.58167 72 0 68.4185 0 64V8C0 3.58154 3.58167 0 8 0H64C68.4183 0 72 3.58154 72 8V64C72 68.4185 68.4183 72 64 72ZM51.3157 62H62V40.0513C62 30.7646 56.7357 26.2744 49.3826 26.2744C42.026 26.2744 38.9301 32.0029 38.9301 32.0029V27.3335H28.6333V62H38.9301V43.8022C38.9301 38.9263 41.1746 36.0244 45.4707 36.0244C49.4198 36.0244 51.3157 38.813 51.3157 43.8022V62ZM10 16.397C10 19.9297 12.842 22.7939 16.3494 22.7939C19.8567 22.7939 22.697 19.9297 22.697 16.397C22.697 12.8643 19.8567 10 16.3494 10C12.842 10 10 12.8643 10 16.397ZM21.7694 62H11.0326V27.3335H21.7694V62Z"
        fill="white" />
</svg>