<svg width="55" height="37" viewBox="0 0 55 37" fill="none" xmlns="http://www.w3.org/2000/svg">
<path d="M54.7535 0.194093C54.6053 0.0637101 54.4156 -0.00532012 54.221 0.000320264C53.6884 0.000320264 53.0021 0.372363 52.6345 0.581638L52.4864 0.659146C51.8668 0.96939 51.1921 1.14483 50.5042 1.17458C49.7991 1.19783 49.1916 1.24046 48.4002 1.32379C43.7121 1.82372 41.6212 5.5364 39.6072 9.127C38.512 11.0802 37.3794 13.0993 35.8266 14.6631C35.5043 14.9845 35.1623 15.2842 34.8028 15.5602C33.1957 16.7985 31.1779 17.6724 29.6008 18.2963C28.0875 18.8931 26.4391 19.4299 24.8433 19.9492C23.3844 20.4239 22.0042 20.8716 20.7365 21.3599C20.1646 21.5788 19.6789 21.7474 19.2494 21.8947C18.0962 22.2822 17.2617 22.5787 16.0465 23.4448C15.5721 23.7801 15.0958 24.1424 14.7713 24.4137C13.8053 25.2097 12.9508 26.1403 12.2323 27.1788C11.6135 28.1379 10.8989 29.0271 10.1001 29.8316C9.84506 30.0912 9.3875 30.2191 8.70678 30.2191C7.90605 30.2191 6.93842 30.0486 5.91079 29.8684C4.88315 29.6882 3.76175 29.4809 2.82413 29.4809C2.0609 29.4809 1.47957 29.6088 1.04264 29.8684C1.04264 29.8684 0.311291 30.3102 0 30.8818L0.30379 31.0233C0.775157 31.2877 1.21188 31.6133 1.60334 31.9922C2.00871 32.3825 2.46203 32.7161 2.95164 32.9843C3.10929 33.0462 3.25245 33.142 3.3717 33.2652C3.24231 33.459 3.05478 33.709 2.85788 33.9764C1.77586 35.4394 1.14578 36.3637 1.5077 36.8675C1.68096 36.9612 1.87486 37.0066 2.07028 36.9992C4.43122 36.9992 5.69701 36.3656 7.30222 35.5634C7.76541 35.3309 8.23985 35.0906 8.80242 34.8464C9.74005 34.4259 10.7489 33.7555 11.8178 33.0463C13.2336 32.1065 14.6982 31.1337 16.1159 30.6629C17.2841 30.2948 18.5009 30.1182 19.722 30.1397C21.2222 30.1397 22.8012 30.347 24.3239 30.5485C25.4603 30.6997 26.6342 30.8547 27.7875 30.9361C28.2356 30.9632 28.6501 30.9768 29.0551 30.9768C29.5945 30.9783 30.1335 30.9492 30.6697 30.8896L30.7972 30.8431C31.6073 30.3296 31.9861 29.227 32.3518 28.1613C32.5881 27.4753 32.7869 26.8591 33.1019 26.4677C33.1207 26.4481 33.1415 26.4306 33.1638 26.4154C33.1786 26.4069 33.1957 26.4038 33.2123 26.4066C33.229 26.4094 33.2443 26.418 33.2557 26.4309C33.259 26.4409 33.259 26.4518 33.2557 26.4619C33.0682 30.6299 31.4423 33.2749 29.8015 35.6273L28.6876 36.8345C28.6876 36.8345 30.2215 36.8345 31.0954 36.4857C34.2833 35.5014 36.6911 33.3311 38.4426 29.8703C38.8743 28.9821 39.2599 28.0707 39.5978 27.1401C39.6278 27.0626 39.9053 26.9192 39.8772 27.3203C39.8772 27.4385 39.8622 27.5703 39.8528 27.7078C39.8528 27.7892 39.8416 27.8726 39.8378 27.9559C39.7909 28.5372 39.6503 29.7657 39.6503 29.7657L40.6348 29.2212C43.0089 27.671 44.8391 24.5435 46.2268 19.6779C46.8062 17.6511 47.2282 15.6378 47.6013 13.8647C48.0476 11.7332 48.4321 9.90597 48.8728 9.19676C49.5647 8.08451 50.6205 7.33267 51.6425 6.60215C51.7832 6.50332 51.9219 6.40838 52.0588 6.30374C53.3452 5.37169 54.6223 4.29626 54.9017 2.29071V2.24614C55.1155 0.75022 54.9411 0.378177 54.7535 0.194093Z" fill="white"/>
</svg>
