<svg width="586" height="546" viewBox="0 0 586 546" fill="none" xmlns="http://www.w3.org/2000/svg">
    <path fill-rule="evenodd" clip-rule="evenodd"
        d="M117.334 87.7449C78.2744 228.643 160.942 374.558 301.977 413.656C384.183 436.446 468.074 417.915 531.491 370.589C481.227 500.727 339.207 573.918 201.704 535.799C55.3463 495.226 -30.4702 343.909 10.0272 197.825C30.3003 124.695 78.3846 66.7386 139.716 32.1809C130.364 49.4428 122.801 68.0219 117.334 87.7449Z"
        fill="#0B0B11" />
    <path fill-rule="evenodd" clip-rule="evenodd"
        d="M171.032 55.5639C131.973 196.462 214.64 342.377 355.676 381.475C437.881 404.265 521.772 385.734 585.189 338.408C534.926 468.546 392.905 541.737 255.402 503.618C109.045 463.045 23.2281 311.728 63.7255 165.644C83.9985 92.5136 132.083 34.5577 193.414 0C184.063 17.2619 176.5 35.841 171.032 55.5639Z"
        fill="#33333F" />
</svg>