<svg width="45" height="45" viewBox="0 0 45 45" fill="none" xmlns="http://www.w3.org/2000/svg">
<path fill-rule="evenodd" clip-rule="evenodd" d="M41.4496 34.8038C39.0017 34.7409 37.1027 34.991 35.5111 35.6773C35.0528 35.8659 34.3173 35.8659 34.2569 36.4571C34.5019 36.7052 34.5313 37.1112 34.7461 37.455C35.1131 38.0791 35.7567 38.9197 36.3378 39.3558C36.9813 39.8554 37.6241 40.3537 38.2965 40.7904C39.4902 41.5381 40.837 41.9749 41.9998 42.7233C42.6736 43.1601 43.3466 43.7212 44.0203 44.1894C44.3633 44.4389 44.5712 44.8449 45 45V44.9057C44.7859 44.6261 44.7242 44.2208 44.5108 43.9078C44.2042 43.5968 43.8982 43.3152 43.5915 43.0042C42.7044 41.7883 41.6019 40.7275 40.4082 39.8554C39.4285 39.1692 37.2866 38.2342 36.8887 37.0812L36.8283 37.0183C37.5006 36.9554 38.2965 36.7059 38.94 36.5186C39.9814 36.2391 40.9296 36.3006 41.9998 36.0204C42.4904 35.8946 42.9795 35.7395 43.4701 35.5836V35.3041C42.9192 34.743 42.5212 33.9945 41.9402 33.4649C40.3794 32.0931 38.6642 30.7521 36.8887 29.6298C35.9398 29.0065 34.7152 28.6005 33.7053 28.0715C33.3369 27.8842 32.7256 27.7906 32.5116 27.4789C31.9593 26.7941 31.654 25.8891 31.2561 25.0778C30.369 23.363 29.5114 21.4615 28.7465 19.653C28.1956 18.4371 27.858 17.2212 27.1857 16.0989C24.0325 10.7985 20.6036 7.58747 15.3387 4.43796C14.2067 3.78318 12.86 3.50156 11.4282 3.15915L9.13259 3.03337C8.64206 2.81534 8.1529 2.22275 7.72411 1.94184C5.97945 0.819557 1.47956 -1.61228 0.193193 1.59942C-0.633514 3.62595 1.41781 5.62103 2.11417 6.65037C2.63557 7.36734 3.30792 8.17796 3.67633 8.98857C3.88215 9.51826 3.95076 10.0801 4.1655 10.6412C4.65466 12.013 5.11432 13.5413 5.75716 14.8201C6.1002 15.4749 6.46038 16.1618 6.88917 16.7537C7.1341 17.0961 7.56288 17.2526 7.65413 17.8138C7.22534 18.4378 7.19584 19.3721 6.95092 20.1526C5.84841 23.676 6.2772 28.0407 7.838 30.6277C8.32853 31.4069 9.48455 33.1224 11.0529 32.467C12.4305 31.9058 12.1232 30.1288 12.5211 28.5697C12.6137 28.1959 12.5519 27.9464 12.7351 27.6962V27.7591L13.9906 30.3468C14.9394 31.8744 16.5929 33.4649 17.9698 34.5256C18.7039 35.0868 19.2857 36.0539 20.2036 36.3963V36.302H20.1432C19.9594 36.0225 19.6836 35.8967 19.4386 35.6787C18.8877 35.1175 18.2758 34.4313 17.847 33.808C16.562 32.0624 15.43 30.1288 14.4194 28.1337C13.9289 27.1672 13.5001 26.1072 13.1035 25.1407C12.9183 24.7661 12.9183 24.2043 12.613 24.0184C12.1533 24.7033 11.481 25.2972 11.1428 26.1386C10.561 27.4789 10.5006 29.1316 10.2866 30.8464C10.1631 30.8779 10.218 30.8464 10.1631 30.9093C9.18475 30.6606 8.8472 29.6305 8.48015 28.7584C7.5622 26.5446 7.40852 22.9905 8.20435 20.4336C8.4184 19.7788 9.33773 17.7208 8.97069 17.0975C8.78545 16.5049 8.17485 16.1625 7.8373 15.6943C7.43939 15.1017 7.01198 14.354 6.73618 13.6992C6.00209 11.9522 5.63505 10.02 4.83853 8.27369C4.47011 7.46308 3.82796 6.62102 3.30724 5.8733C2.72546 5.03124 2.08398 4.43866 1.62432 3.44147C1.47133 3.09905 1.25728 2.53721 1.5022 2.16266C1.56258 1.91318 1.68607 1.82024 1.92962 1.75735C2.32754 1.41494 3.46091 1.85099 3.85883 2.03687C4.99083 2.50507 5.93965 2.94113 6.88848 3.59521C7.31727 3.90687 7.77694 4.49945 8.32785 4.65599H8.97137C9.95107 4.87401 11.0522 4.71888 11.9695 4.9984C13.592 5.52949 15.0609 6.30796 16.3781 7.15071C20.3875 9.73838 23.6943 13.4176 25.9281 17.8145C26.2952 18.5314 26.4482 19.1862 26.7857 19.9346C27.4292 21.4629 28.2251 23.0212 28.8665 24.5188C29.5101 25.9842 30.122 27.4817 31.04 28.6976C31.4996 29.3524 33.3355 29.6948 34.1616 30.0379C34.7742 30.3174 35.7224 30.569 36.2746 30.9114C37.3147 31.5662 38.3555 32.3146 39.3345 33.0316C39.8236 33.4048 41.3549 34.1846 41.4462 34.8066L41.4496 34.8038ZM10.2337 7.70976C9.81082 7.70595 9.38922 7.75834 8.97961 7.86559V7.92848H9.03998C9.2849 8.42743 9.7137 8.77054 10.0197 9.20729L10.7243 10.7041L10.7846 10.6412C11.2134 10.3296 11.4282 9.83062 11.4282 9.08291C11.2443 8.86488 11.2141 8.64615 11.0611 8.42813C10.8773 8.11646 10.4793 7.95993 10.2337 7.71116V7.70976Z" fill="white"/>
</svg>
