<svg width="41" height="43" viewBox="0 0 41 43" fill="none" xmlns="http://www.w3.org/2000/svg">
<path fill-rule="evenodd" clip-rule="evenodd" d="M24.1413 0.208333C23.8448 0.208333 23.5695 0.27352 23.3154 0.36043C23.8554 0.729807 24.1519 1.21869 24.3001 1.77276C24.3107 1.84881 24.3319 1.90313 24.3425 1.97917C24.3531 2.04436 24.3636 2.10954 24.3636 2.17473C24.406 3.13076 24.1201 3.25027 23.9189 3.8152C23.6119 4.54309 23.6966 5.3253 24.0672 5.95542C24.0989 6.03147 24.1413 6.11838 24.1942 6.19443C23.7919 3.44582 26.026 3.03299 26.4389 2.17473C26.4707 1.42511 25.8672 0.925361 25.3907 0.57771C24.9354 0.295246 24.5224 0.208333 24.1413 0.208333ZM27.5084 0.827585C27.466 1.07746 27.4978 1.01227 27.4872 1.14264C27.4766 1.22955 27.4766 1.3382 27.466 1.42511C27.4449 1.51202 27.4237 1.59893 27.3919 1.68585C27.3708 1.77276 27.339 1.85967 27.3072 1.94658C27.2648 2.0335 27.2331 2.10954 27.1907 2.19645C27.159 2.23993 27.1378 2.28337 27.106 2.32682C27.0849 2.35942 27.0637 2.39201 27.0425 2.4246C26.9896 2.50065 26.9366 2.5767 26.8837 2.64188C26.8201 2.70707 26.7672 2.78311 26.6931 2.83744V2.84831C26.6296 2.90264 26.566 2.96782 26.4919 3.02214C26.2696 3.19596 26.0154 3.32633 25.7825 3.48929C25.7084 3.54361 25.6343 3.58707 25.5707 3.65225C25.4966 3.70657 25.4331 3.76089 25.3695 3.82608C25.2954 3.89126 25.2425 3.95645 25.179 4.0325C25.126 4.09768 25.0625 4.17373 25.0201 4.24978C24.9672 4.32582 24.9143 4.40187 24.8719 4.47792C24.8295 4.56483 24.7978 4.64088 24.7554 4.72779C24.7237 4.8147 24.6919 4.89076 24.6707 4.97767C24.639 5.07544 24.6178 5.16236 24.5966 5.24927C24.586 5.29275 24.586 5.34704 24.5754 5.3905C24.5648 5.43398 24.5648 5.47741 24.5543 5.52087C24.5543 5.60778 24.5437 5.70556 24.5437 5.79247C24.5437 5.85766 24.5437 5.92284 24.5543 5.98803C24.5543 6.07494 24.5649 6.16185 24.586 6.25963C24.5966 6.34654 24.6178 6.43345 24.639 6.52037C24.6708 6.60728 24.6919 6.69419 24.7237 6.7811C24.7449 6.83542 24.7766 6.88974 24.7978 6.9332L22.3625 5.9663C21.9496 5.84679 21.5472 5.73815 21.1343 5.64038C20.9119 5.58606 20.6895 5.53173 20.4672 5.47741C19.8319 5.34705 19.186 5.24927 18.5401 5.18409C18.519 5.18409 18.5084 5.17321 18.4872 5.17321C17.8519 5.10803 17.2272 5.07543 16.5919 5.07543C16.126 5.07543 15.6601 5.09714 15.2048 5.12975C14.5589 5.17323 13.913 5.26012 13.2671 5.36876C13.1083 5.39047 12.9495 5.42308 12.7907 5.45568C12.4624 5.52086 12.1448 5.59691 11.8377 5.67296C11.6789 5.71643 11.5201 5.75987 11.3612 5.80332C11.2024 5.86851 11.0542 5.94456 10.9059 6.00974C10.7895 6.06406 10.673 6.11838 10.5565 6.1727C10.5354 6.18358 10.5142 6.18358 10.5036 6.19441C10.3977 6.24873 10.3024 6.29219 10.2071 6.34651C10.1754 6.35739 10.1542 6.36822 10.133 6.3791C10.0165 6.43342 9.90006 6.49861 9.80476 6.55293C9.73064 6.58552 9.65653 6.62898 9.593 6.66157C9.56123 6.68328 9.51888 6.70504 9.4977 6.71589C9.4024 6.77021 9.30711 6.82453 9.2224 6.87885C9.12711 6.93317 9.0424 6.98749 8.96828 7.04181C8.89417 7.09613 8.82005 7.13958 8.75652 7.1939C8.74591 7.20478 8.73536 7.20478 8.72475 7.21562C8.66122 7.25909 8.5871 7.31339 8.52357 7.36772C8.52357 7.36772 8.51297 7.37859 8.50241 7.38943C8.44947 7.4329 8.39653 7.47634 8.34359 7.51979C8.32243 7.53067 8.30122 7.55238 8.28006 7.56327C8.22712 7.60674 8.17418 7.66104 8.12124 7.7045C8.11063 7.72621 8.08947 7.73709 8.07887 7.74797C8.01534 7.81316 7.95181 7.86748 7.88828 7.93266C7.87767 7.93266 7.87767 7.94354 7.86712 7.95437C7.80359 8.00869 7.74006 8.07388 7.67653 8.13906C7.66592 8.14994 7.66592 8.16077 7.65537 8.16077C7.60243 8.21509 7.54948 8.26942 7.49654 8.3346C7.47538 8.35631 7.4436 8.37807 7.42242 8.39978C7.36948 8.46497 7.30595 8.53015 7.24242 8.59534C7.23182 8.61705 7.21066 8.62793 7.20005 8.64965C7.11535 8.73657 7.04123 8.82348 6.95652 8.91039C6.94592 8.92127 6.93536 8.9321 6.92476 8.94299C6.75534 9.12767 6.57534 9.31236 6.38475 9.47532C6.19416 9.64915 5.99299 9.81211 5.79181 9.95334C5.58004 10.1054 5.37886 10.2358 5.15651 10.3662C4.94474 10.4857 4.72238 10.5943 4.48944 10.6921C4.26709 10.7899 4.03415 10.8768 3.80121 10.9528C3.35649 11.0506 2.9012 11.2353 2.50943 11.2679C2.42472 11.2679 2.32943 11.2896 2.24472 11.3005C2.14943 11.3222 2.06472 11.344 1.98002 11.3657C1.89531 11.3983 1.8106 11.4309 1.72589 11.4634C1.64119 11.496 1.55648 11.5395 1.47178 11.583C1.39766 11.6373 1.31295 11.6807 1.23883 11.735C1.16472 11.7894 1.0906 11.8545 1.02706 11.9197C0.95295 11.9741 0.878829 12.0501 0.815299 12.1153C0.751768 12.1913 0.688238 12.2565 0.635298 12.3326C0.582358 12.4195 0.518827 12.4955 0.476472 12.5824C0.423532 12.6585 0.370591 12.7454 0.328236 12.8323C0.285866 12.9301 0.243531 13.017 0.211765 13.1148C0.18 13.2017 0.148235 13.2995 0.11647 13.3972C0.09531 13.4842 0.0740999 13.5711 0.0635298 13.658C0.0635298 13.6689 0.0529252 13.6797 0.0529252 13.6906C0.031765 13.7884 0.0317649 13.9187 0.0211599 13.9839C0.0105553 14.06 0 14.1251 0 14.2012C0 14.2447 3.29622e-08 14.299 0.0106046 14.3424C0.0212092 14.4185 0.0317645 14.4837 0.0529747 14.5488C0.0741348 14.614 0.0953449 14.6792 0.12709 14.7444V14.7553C0.158855 14.8205 0.201211 14.8856 0.243561 14.9508C0.285931 15.016 0.328271 15.0812 0.381211 15.1464C0.434152 15.2007 0.497682 15.2659 0.561212 15.3202C0.624743 15.3854 0.688273 15.4397 0.762388 15.494C1.01651 15.7222 1.08004 15.7982 1.40828 15.972C1.46122 16.0046 1.51416 16.0264 1.57769 16.059C1.5883 16.059 1.59885 16.0698 1.60946 16.0698C1.60946 16.0915 1.60946 16.1024 1.62006 16.1242C1.63067 16.2111 1.65183 16.298 1.673 16.3849C1.69416 16.4827 1.72595 16.5696 1.75772 16.6456C1.78948 16.7108 1.81066 16.776 1.84242 16.8412C1.85303 16.8629 1.86358 16.8847 1.87419 16.8955C1.91656 16.9824 1.95889 17.0585 2.00124 17.1345C2.05419 17.2106 2.10713 17.2866 2.16007 17.3627C2.21301 17.4278 2.27654 17.5039 2.34007 17.5691C2.4036 17.6343 2.46713 17.6886 2.54125 17.7538C2.54125 17.7538 2.55186 17.7647 2.56241 17.7647C2.62594 17.819 2.68947 17.8733 2.753 17.9168C2.82712 17.9711 2.90124 18.0145 2.98594 18.058C3.06006 18.1015 3.14477 18.1449 3.22947 18.1775C3.293 18.2101 3.36712 18.2318 3.44124 18.2535C3.45185 18.2644 3.4624 18.2644 3.48361 18.2753C3.52598 18.2862 3.5789 18.297 3.62125 18.3079C3.58949 18.8945 3.57888 19.4486 3.66363 19.6441C3.75892 19.8614 4.2248 19.1987 4.69069 18.4382C4.62716 19.1878 4.58481 20.0678 4.69069 20.3286C4.80716 20.6002 5.44246 19.7528 5.99305 18.8185C13.5002 17.0368 20.3508 22.3601 21.0708 29.8781C20.9332 28.7047 19.5249 28.0529 18.879 28.2159C18.5614 29.0198 18.0214 30.0519 17.1531 30.6929C17.2273 29.9758 17.1955 29.2371 17.0473 28.5201C16.8143 29.5196 16.359 30.4539 15.7343 31.2578C14.7284 31.3338 13.7225 30.8341 13.1931 30.0845C13.1507 30.0519 13.1402 29.9867 13.1084 29.9433C13.0766 29.8672 13.0449 29.7912 13.0237 29.7151C12.9919 29.6391 12.9707 29.563 12.9602 29.487C12.9496 29.4109 12.9496 29.3349 12.9496 29.248C12.9496 29.1936 12.9496 29.1393 12.9496 29.085C12.9602 29.0089 12.9813 28.9329 13.0025 28.8568C13.0237 28.7808 13.0449 28.7047 13.0766 28.6287C13.119 28.5527 13.1507 28.4766 13.2037 28.4006C13.3837 27.8791 13.3837 27.4554 13.0554 27.2055C12.9919 27.162 12.9284 27.1295 12.8543 27.0969C12.8119 27.086 12.759 27.0643 12.7166 27.0534C12.6848 27.0425 12.6637 27.0317 12.6319 27.0208C12.5578 26.9991 12.4837 26.9773 12.4095 26.9665C12.3354 26.9448 12.2613 26.9339 12.1872 26.9339C12.1131 26.923 12.0284 26.9122 11.9543 26.9122C11.9013 26.9122 11.8484 26.9231 11.7954 26.9231C11.7107 26.9231 11.6366 26.9339 11.5625 26.9556C11.4884 26.9665 11.4143 26.9774 11.3401 26.9991C11.266 27.0208 11.1919 27.0426 11.1178 27.0752C11.0437 27.1078 10.9801 27.1404 10.906 27.1729C10.8425 27.2055 10.779 27.249 10.7048 27.2816C8.23775 28.9329 9.70953 32.8005 11.3931 33.9195C10.7578 34.039 10.1119 34.1803 9.93189 34.3215C9.92128 34.3324 9.91073 34.3432 9.91073 34.3432C10.366 34.6257 10.8425 34.8647 11.3401 35.0711C12.0178 35.2992 12.7378 35.5057 13.0555 35.5926V35.6034C13.9343 35.7881 14.8237 35.8533 15.7237 35.799C20.4143 35.4622 24.2579 31.801 24.9567 26.9774C24.9779 27.0752 24.9991 27.1621 25.0203 27.2599C25.052 27.4554 25.0944 27.6618 25.1155 27.8682V27.8791C25.1367 27.9769 25.1473 28.0747 25.1579 28.1616V28.2051C25.1685 28.3028 25.1791 28.4006 25.1791 28.4875C25.1897 28.607 25.2002 28.7265 25.2002 28.8461V29.0199C25.2002 29.0742 25.2108 29.1394 25.2108 29.1937C25.2108 29.2589 25.2002 29.3241 25.2002 29.3893V29.5414C25.2002 29.6174 25.1896 29.6826 25.1896 29.7586C25.1896 29.8021 25.1896 29.8455 25.179 29.8999C25.179 29.9759 25.1684 30.052 25.1684 30.1389C25.1578 30.1715 25.1578 30.2041 25.1578 30.2367C25.1472 30.3236 25.1366 30.3996 25.126 30.4865C25.126 30.5191 25.126 30.5517 25.1154 30.5843C25.1048 30.6929 25.0837 30.7907 25.0731 30.8994V30.9103V30.9211C25.0519 31.0189 25.0307 31.1275 25.0095 31.2253V31.2579C24.9884 31.3557 24.9672 31.4535 24.946 31.5512C24.946 31.5621 24.9354 31.5838 24.9354 31.5947C24.9142 31.6925 24.893 31.7903 24.8613 31.8881V31.9206C24.8295 32.0293 24.7978 32.1271 24.7766 32.2248C24.766 32.2357 24.766 32.2465 24.766 32.2465C24.7342 32.3552 24.7024 32.4638 24.6707 32.5725C24.6283 32.6811 24.5966 32.7789 24.5542 32.8875C24.5118 32.9962 24.4801 33.1048 24.4377 33.2026C24.3954 33.3112 24.353 33.409 24.3107 33.5176H24.3001C24.2577 33.6154 24.2153 33.7241 24.1624 33.8218C24.1518 33.8544 24.1412 33.8762 24.1306 33.8979C24.12 33.9088 24.12 33.9196 24.1095 33.9305C23.4212 35.3537 22.4048 36.603 21.1342 37.5808C21.0495 37.6351 20.9648 37.7003 20.8801 37.7655C20.8589 37.7872 20.8271 37.7981 20.8059 37.8198C20.7318 37.8741 20.6577 37.9284 20.573 37.9828L20.6048 38.048H20.6154C20.7636 38.0262 20.9118 38.0045 21.0601 37.9828H21.0707C21.346 37.9393 21.6213 37.885 21.8966 37.8307C21.9707 37.8198 22.0554 37.7981 22.1295 37.7763C22.1824 37.7654 22.2248 37.7546 22.2777 37.7438C22.3519 37.7329 22.426 37.7112 22.5001 37.7003C22.5636 37.6786 22.6272 37.6677 22.6907 37.646C23.7495 37.3852 24.7766 37.0267 25.7613 36.603C24.0777 38.9605 21.8224 40.8617 19.1859 42.1111C20.4036 42.0242 21.6213 41.8178 22.7966 41.4701C27.0637 40.1773 30.6531 37.2331 32.8025 33.2677C32.3684 35.7773 31.3943 38.1674 29.9543 40.2533C30.9813 39.558 31.9237 38.7541 32.7813 37.8415C35.1531 35.2993 36.7096 32.0727 37.239 28.6071C37.599 30.3236 37.7049 32.0944 37.5461 33.8435C45.1908 22.9034 38.1814 11.5614 35.2484 8.57375C35.2378 8.55204 35.2273 8.54116 35.2273 8.51943C35.2166 8.53031 35.2166 8.53031 35.2166 8.54114C35.2166 8.53026 35.2166 8.53026 35.206 8.51943C35.206 8.6498 35.1954 8.78016 35.1849 8.91053C35.1531 9.16041 35.1213 9.39942 35.079 9.63843C35.0261 9.87744 34.9625 10.1164 34.899 10.3555C34.8249 10.5836 34.7402 10.8226 34.6449 11.0508C34.5496 11.268 34.4437 11.4962 34.3272 11.7135C34.2108 11.9199 34.0837 12.1372 33.946 12.3327C33.8084 12.5391 33.6602 12.7347 33.5119 12.9194C33.3531 13.1149 33.1837 13.2887 33.0143 13.4626C32.9084 13.5604 32.8131 13.6473 32.7072 13.7342C32.6225 13.8102 32.5484 13.8754 32.4637 13.9515C32.2731 14.1035 32.0825 14.2448 31.8707 14.3752C31.6696 14.5055 31.4578 14.6359 31.246 14.7445C31.0237 14.8532 30.8013 14.9509 30.579 15.0487C30.3566 15.1356 30.1237 15.2117 29.8907 15.2769C29.6578 15.3421 29.4142 15.3964 29.1813 15.4398C28.9378 15.4833 28.6942 15.505 28.4613 15.5267C28.2919 15.5376 28.1225 15.5485 27.9531 15.5485C27.7095 15.5485 27.466 15.5267 27.2331 15.505C26.9895 15.4833 26.746 15.4507 26.5131 15.3963C26.2695 15.3529 26.0366 15.2877 25.8036 15.2117H25.793C26.026 15.1899 26.2589 15.1682 26.4919 15.1247C26.7354 15.0813 26.9683 15.027 27.2013 14.9618C27.4342 14.8966 27.6672 14.8205 27.8895 14.7336C28.1225 14.6467 28.3448 14.5381 28.5566 14.4294C28.7789 14.3208 28.9801 14.2013 29.1919 14.0709C29.3931 13.9297 29.5942 13.7885 29.7848 13.6364C29.9754 13.4843 30.1554 13.3213 30.3248 13.1475C30.5048 12.9845 30.6637 12.7998 30.8225 12.6151C30.9813 12.4196 31.1295 12.224 31.2672 12.0285C31.2883 11.9959 31.3096 11.9524 31.3307 11.9198C31.4366 11.746 31.5425 11.5722 31.6378 11.3984C31.7542 11.1811 31.8601 10.9638 31.9554 10.7357C32.0507 10.5075 32.1354 10.2794 32.2095 10.0404C32.2837 9.81221 32.3366 9.57321 32.3895 9.3342C32.4319 9.08432 32.4743 8.84531 32.4954 8.60631C32.5166 8.35643 32.5378 8.10656 32.5378 7.86755C32.5378 7.69373 32.5272 7.5199 32.5166 7.34608C32.4955 7.09621 32.4637 6.85719 32.4319 6.61819C32.3896 6.36831 32.3366 6.12931 32.2731 5.89029C32.199 5.66215 32.1249 5.42314 32.0402 5.195C31.9555 4.96685 31.8496 4.7387 31.7437 4.52142C31.6272 4.30414 31.5107 4.08686 31.3837 3.88044C31.246 3.67403 31.1084 3.47848 30.9602 3.28292C30.8013 3.09823 30.6425 2.91354 30.4731 2.72885C30.3884 2.64194 30.2931 2.54417 30.1978 2.45726C29.7213 2.07701 29.2237 1.71849 28.726 1.39258C28.6519 1.3491 28.5884 1.31653 28.5143 1.28393C28.1648 1.05579 27.8366 0.936222 27.5084 0.827585Z" fill="white"/>
</svg>
