<svg width="37" height="39" viewBox="0 0 37 39" fill="none" xmlns="http://www.w3.org/2000/svg">
<path d="M17.2884 0.244591C17.2088 0.252012 16.9556 0.277985 16.7278 0.296538C11.4725 0.782607 6.55005 3.6916 3.43236 8.1627C1.69629 10.6487 0.585924 13.4687 0.166373 16.4556C0.0180841 17.4982 0 17.8062 0 19.2199C0 20.6335 0.0180841 20.9415 0.166373 21.9842C1.17185 29.1119 6.11603 35.1006 12.8216 37.3195C14.0224 37.7165 15.2883 37.9874 16.7278 38.1506C17.2884 38.2137 19.7116 38.2137 20.2722 38.1506C22.757 37.8686 24.862 37.2378 26.938 36.1507C27.2563 35.9837 27.3178 35.9392 27.2744 35.9021C27.2455 35.8798 25.8892 34.0135 24.2616 31.7575L21.303 27.6574L17.5958 22.0287C15.5559 18.9342 13.8777 16.4036 13.8632 16.4036C13.8488 16.3999 13.8343 18.9008 13.8271 21.9545C13.8162 27.3012 13.8126 27.5164 13.7475 27.6426C13.6535 27.8244 13.5811 27.8986 13.4292 27.9802C13.3135 28.0396 13.2122 28.0507 12.6661 28.0507H12.0404L11.874 27.9431C11.7655 27.8726 11.6859 27.7799 11.6317 27.6723L11.5557 27.5053L11.563 20.0658L11.5738 12.6227L11.6859 12.478C11.7438 12.4 11.8668 12.2999 11.9536 12.2516C12.1019 12.1774 12.1597 12.17 12.7854 12.17C13.5233 12.17 13.6462 12.1997 13.8379 12.4149C13.8922 12.4743 15.8995 15.5762 18.3011 19.3126C20.7026 23.0491 23.9867 28.1509 25.5998 30.6555L28.5294 35.2082L28.6777 35.108C29.9906 34.2324 31.3795 32.9857 32.479 31.687C34.8191 28.9301 36.3273 25.5685 36.8336 21.9842C36.9819 20.9415 37 20.6335 37 19.2199C37 17.8062 36.9819 17.4982 36.8336 16.4556C35.8282 9.32779 30.884 3.33911 24.1784 1.12026C22.9957 0.72695 21.737 0.456087 20.3265 0.292827C19.9793 0.255722 17.5886 0.214907 17.2884 0.244591ZM24.862 11.7247C25.0356 11.8138 25.1766 11.9845 25.2273 12.1626C25.2562 12.259 25.2634 14.3221 25.2562 18.9713L25.2454 25.6427L24.0988 23.8394L22.9487 22.0361V17.1865C22.9487 14.0512 22.9631 12.2887 22.9848 12.2034C23.0427 11.9956 23.1693 11.8323 23.3429 11.7359C23.4912 11.658 23.5455 11.6505 24.1133 11.6505C24.6486 11.6505 24.7426 11.658 24.862 11.7247Z" fill="white"/>
</svg>
