<svg width="41" height="47" viewBox="0 0 41 47" fill="none" xmlns="http://www.w3.org/2000/svg">
<path fill-rule="evenodd" clip-rule="evenodd" d="M20.3249 0H20.2172C19.7845 0.200887 19.3719 0.440821 18.959 0.68088C18.8409 0.749578 18.7227 0.818287 18.604 0.886094C12.6172 4.3333 6.63045 7.77831 0.64366 11.2211C0.438584 11.3214 0.268062 11.4805 0.153887 11.6782C0.0397119 11.8758 -0.0129294 12.103 0.00269098 12.3308V34.132C-0.00816073 34.3608 0.0489677 34.5876 0.166871 34.7839C0.284774 34.9802 0.458171 35.1372 0.665191 35.2351C7.03513 38.9075 13.4111 42.5734 19.7932 46.2326C19.96 46.3323 20.1527 46.3797 20.3467 46.3688C20.5406 46.3578 20.7269 46.2891 20.8814 46.1713C27.2568 42.5055 33.6317 38.8374 40.0061 35.1672C40.3057 34.9761 40.5177 34.6742 40.5957 34.3275C40.5994 31.0702 40.5988 27.8127 40.5982 24.5548C40.5974 20.5452 40.5967 16.5351 40.604 12.5246C40.6336 12.2634 40.5841 11.9993 40.4618 11.7666C40.3396 11.5338 40.1502 11.3432 39.9183 11.2194C33.9238 7.77003 27.9293 4.32171 21.9347 0.874501C21.414 0.554698 20.8766 0.262786 20.3249 0ZM8.32342 32.1262V14.141C8.34888 13.5164 8.59725 12.9215 9.02354 12.4643C9.44983 12.007 10.0258 11.7175 10.6471 11.6484C11.4673 11.5224 12.3063 11.6175 13.0775 11.9237C13.8487 12.23 14.5242 12.7364 15.0345 13.3908C16.5538 15.1954 18.068 17.0037 19.5819 18.8117C21.9251 21.6099 24.2678 24.4076 26.6283 27.1906C26.6106 24.2527 26.6165 21.3162 26.6224 18.3788C26.6253 16.9097 26.6283 15.4403 26.6283 13.9704C26.6853 13.3175 26.985 12.7096 27.4682 12.2668C27.9514 11.8239 28.5831 11.5782 29.2385 11.5782C29.894 11.5782 30.5256 11.8239 31.0088 12.2668C31.4921 12.7096 31.7917 13.3175 31.8488 13.9704C31.8576 20.0875 31.8576 26.2052 31.8488 32.3233C31.7919 32.8737 31.5599 33.3913 31.1869 33.8001C30.814 34.2088 30.3197 34.4871 29.7768 34.5941C29.008 34.756 28.2108 34.7222 27.4584 34.4959C26.706 34.2696 26.0225 33.858 25.4706 33.2989C21.4978 28.5752 17.5333 23.845 13.577 19.1081C13.5715 22.001 13.5734 24.894 13.5752 27.7869C13.5761 29.2333 13.577 30.6798 13.577 32.1262C13.5769 32.5487 13.4734 32.9646 13.2757 33.3379C13.0779 33.7111 12.7919 34.0304 12.4425 34.2678C11.9206 34.6097 11.2971 34.7624 10.6763 34.7003C10.0554 34.6382 9.47454 34.3651 9.03063 33.9266C8.79905 33.6885 8.61723 33.4067 8.4958 33.0976C8.37437 32.7885 8.31577 32.4583 8.32342 32.1262Z" fill="white"/>
</svg>
