<svg width="40" height="45" viewBox="0 0 40 45" fill="none" xmlns="http://www.w3.org/2000/svg">
<path d="M18.1953 0.470264C19.2882 -0.155341 20.7118 -0.158167 21.8038 0.470264C27.2977 3.57458 32.7933 6.67403 38.2862 9.78024C39.3193 10.3622 40.0104 11.512 39.9999 12.7024V31.3792C40.0076 32.619 39.2482 33.7962 38.1582 34.365C32.6824 37.4522 27.2095 40.5432 21.7346 43.6304C20.619 44.2682 19.1669 44.2191 18.0861 43.529C16.4445 42.5773 14.8 41.6303 13.1582 40.6796C12.8227 40.4796 12.4446 40.3204 12.2077 39.9951C12.4171 39.7129 12.7915 39.6777 13.0958 39.5545C13.781 39.3366 14.4104 38.9868 15.0399 38.6474C15.1991 38.5384 15.3935 38.5802 15.5461 38.6777C16.9499 39.4826 18.3413 40.3108 19.7498 41.108C20.0502 41.2815 20.3545 41.0512 20.6113 40.908C25.9848 37.8711 31.3648 34.8456 36.7373 31.8076C36.9364 31.7119 37.0464 31.5006 37.0303 31.2825C37.034 25.1214 37.0312 18.9593 37.0322 12.7982C37.0549 12.5508 36.9117 12.3233 36.688 12.2221C31.2312 9.14898 25.7772 6.07119 20.3214 2.99733C20.2268 2.93234 20.1149 2.89748 20.0002 2.89731C19.8854 2.89714 19.7734 2.93168 19.6787 2.99639C14.2228 6.07119 8.76974 9.15181 3.31388 12.2247C3.09095 12.3261 2.94134 12.5499 2.96787 12.7982C2.96881 18.9593 2.96787 25.1214 2.96787 31.2835C2.95841 31.3899 2.98178 31.4966 3.03483 31.5893C3.08788 31.682 3.16806 31.7562 3.26458 31.802C4.7205 32.6276 6.17831 33.4474 7.63518 34.2702C8.45592 34.712 9.46364 34.9744 10.3679 34.636C11.1659 34.3498 11.7252 33.5355 11.71 32.6882C11.7175 26.5631 11.7062 20.437 11.7157 14.3128C11.6957 14.0409 11.9537 13.8163 12.218 13.8419C12.9176 13.8372 13.6181 13.8325 14.3176 13.8438C14.6096 13.8372 14.8106 14.13 14.7744 14.4039C14.7716 20.5678 14.782 26.7318 14.7697 32.8957C14.7716 34.5385 14.0967 36.326 12.5772 37.1298C10.7053 38.0995 8.39155 37.8938 6.54221 36.964C4.94123 36.1649 3.41341 35.2219 1.84084 34.3658C0.748035 33.8002 -0.00755738 32.6182 0.000135121 31.3794V12.7024C-0.0113251 11.4873 0.707217 10.3167 1.77255 9.74319C7.24741 6.65347 12.7213 3.5614 18.1953 0.470264Z" fill="white"/>
<path d="M22.9725 13.4078C25.3603 13.2541 27.9165 13.3167 30.0653 14.493C31.7289 15.3945 32.6512 17.2864 32.6806 19.1346C32.6341 19.3839 32.3735 19.5214 32.1355 19.5043C31.4427 19.5034 30.7497 19.5137 30.0569 19.4996C29.7631 19.5109 29.5923 19.2399 29.5554 18.9801C29.3563 18.0958 28.874 17.22 28.0417 16.7934C26.7639 16.1537 25.2824 16.1859 23.8891 16.1992C22.872 16.2532 21.7782 16.3413 20.9165 16.9394C20.255 17.3925 20.054 18.3071 20.2901 19.0437C20.5127 19.5726 21.1233 19.7432 21.6228 19.9005C24.5004 20.6532 27.5498 20.5783 30.3725 21.5687C31.5411 21.9725 32.6843 22.7574 33.0843 23.981C33.6076 25.6209 33.3782 27.5811 32.2115 28.8976C31.2653 29.981 29.8872 30.5707 28.5128 30.8909C26.6843 31.2986 24.7868 31.309 22.9299 31.128C21.1839 30.9289 19.3669 30.4702 18.019 29.2805C16.8663 28.2797 16.3034 26.7203 16.3593 25.2153C16.3726 24.9611 16.6257 24.7839 16.8692 24.8047C17.5668 24.7991 18.2645 24.7972 18.9622 24.8057C19.2408 24.7858 19.4474 25.0266 19.4617 25.2892C19.5904 26.1318 19.9071 27.0161 20.6418 27.5156C22.0597 28.4304 23.8389 28.3678 25.4625 28.3934C26.8076 28.3337 28.3175 28.3157 29.4152 27.4266C29.9943 26.9196 30.1659 26.0712 30.0094 25.3413C29.8398 24.7252 29.1952 24.438 28.6417 24.2503C25.8009 23.3517 22.7175 23.6777 19.9042 22.6615C18.7621 22.2579 17.6577 21.4948 17.2189 20.3214C16.6067 18.6608 16.8872 16.6067 18.1763 15.3347C19.4331 14.0693 21.2475 13.582 22.9725 13.4076V13.4078Z" fill="white"/>
</svg>
