<svg width="156" height="135" viewBox="0 0 156 135" fill="none" xmlns="http://www.w3.org/2000/svg">
<g opacity="0.7">
<mask id="path-1-outside-1_214_1645" maskUnits="userSpaceOnUse" x="1.13342" y="-4.84454" width="153.764" height="139.441" fill="black">
<rect fill="white" x="1.13342" y="-4.84454" width="153.764" height="139.441"/>
<path d="M6.77197 103.823L103.219 21.7702L136.743 12.6901L124.573 46.8704L28.1262 128.924L6.77197 103.823Z"/>
</mask>
<path d="M6.77197 103.823L4.18004 100.777L1.13342 103.369L3.72536 106.415L6.77197 103.823ZM103.219 21.7702L102.173 17.9093L101.309 18.1434L100.627 18.7236L103.219 21.7702ZM124.573 46.8704L127.165 49.917L127.982 49.2222L128.342 48.2121L124.573 46.8704ZM28.1262 128.924L25.0796 131.516L27.6715 134.562L30.7181 131.97L28.1262 128.924ZM136.743 12.6901L140.512 14.0318C141.011 12.6295 140.69 11.0659 139.679 9.9734C138.668 8.88085 137.134 8.44003 135.698 8.82917L136.743 12.6901ZM9.36391 106.87L105.811 24.8168L100.627 18.7236L4.18004 100.777L9.36391 106.87ZM121.981 43.8238L25.5343 125.877L30.7181 131.97L127.165 49.917L121.981 43.8238ZM31.1728 126.332L9.81859 101.231L3.72536 106.415L25.0796 131.516L31.1728 126.332ZM104.265 25.6311L137.789 16.5509L135.698 8.82917L102.173 17.9093L104.265 25.6311ZM132.975 11.3484L120.805 45.5287L128.342 48.2121L140.512 14.0318L132.975 11.3484Z" fill="#C73240" mask="url(#path-1-outside-1_214_1645)"/>
<path d="M132.734 28.0418L122.328 15.5814L138.172 11.9517L132.734 28.0418Z" fill="#C73240"/>
<path d="M20.8713 91.8431L19.5753 90.3198L18.052 91.6158L5.49212 102.301L3.96881 103.597L5.26478 105.12L26.619 130.221L27.915 131.744L29.4383 130.448L41.9982 119.763L43.5215 118.467L42.2255 116.943L20.8713 91.8431Z" fill="#C73240" stroke="#C73240" stroke-width="4"/>
<mask id="path-5-outside-2_214_1645" maskUnits="userSpaceOnUse" x="16.1473" y="18.036" width="111.873" height="103.802" fill="black">
<rect fill="white" x="16.1473" y="18.036" width="111.873" height="103.802"/>
<path d="M100.41 24.1744L21.7859 91.0649L43.1401 116.165L121.765 49.2746L100.41 24.1744Z"/>
</mask>
<path d="M21.7859 91.0649L19.194 88.0183L16.1473 90.6102L18.7393 93.6568L21.7859 91.0649ZM100.41 24.1744L103.457 21.5825L100.865 18.5359L97.8185 21.1278L100.41 24.1744ZM121.765 49.2746L124.357 52.3212L127.403 49.7293L124.811 46.6827L121.765 49.2746ZM43.1401 116.165L40.0935 118.757L42.6854 121.804L45.732 119.212L43.1401 116.165ZM24.3778 94.1115L103.002 27.221L97.8185 21.1278L19.194 88.0183L24.3778 94.1115ZM119.173 46.228L40.5482 113.118L45.732 119.212L124.357 52.3212L119.173 46.228ZM46.1867 113.573L24.8325 88.4729L18.7393 93.6568L40.0935 118.757L46.1867 113.573ZM97.3638 26.7663L118.718 51.8666L124.811 46.6827L103.457 21.5825L97.3638 26.7663Z" fill="#C73240" mask="url(#path-5-outside-2_214_1645)"/>
<path d="M111.317 34.5547L27.8512 107.944" stroke="#C73240" stroke-width="4"/>
</g>
</svg>
