<svg width="78" height="44" viewBox="0 0 78 44" fill="none" xmlns="http://www.w3.org/2000/svg">
<path d="M45 22.772C45 19.7133 41.2668 16.8147 35.5432 15.0171C36.864 9.03153 36.277 4.26941 33.6904 2.74478C33.0942 2.38715 32.3971 2.21775 31.6358 2.21775V4.31646C32.0577 4.31646 32.3971 4.40117 32.6814 4.56116C33.9289 5.29524 34.47 8.09039 34.0481 11.6855C33.9472 12.5702 33.7821 13.5019 33.5803 14.4524C31.7825 14.0007 29.8196 13.6525 27.7558 13.4266C26.5175 11.6855 25.2334 10.1044 23.9401 8.72095C26.9303 5.86933 29.7371 4.30705 31.6449 4.30705V2.20833C29.1225 2.20833 25.8204 4.05295 22.4817 7.25279C19.1429 4.07177 15.8408 2.24598 13.3184 2.24598V4.3447C15.2171 4.3447 18.033 5.89756 21.0232 8.73036C19.7391 10.1138 18.455 11.6855 17.235 13.4266C15.162 13.6525 13.1991 14.0007 11.4013 14.4618C11.1904 13.5207 11.0344 12.6078 10.9244 11.7326C10.4933 8.13745 11.0253 5.3423 12.2636 4.5988C12.5387 4.4294 12.8965 4.35411 13.3184 4.35411V2.25539C12.5479 2.25539 11.8508 2.42479 11.2454 2.78242C8.66796 4.30705 8.09009 9.05976 9.4201 15.0265C3.71484 16.8335 0 19.7228 0 22.772C0 25.8307 3.73318 28.7294 9.45679 30.5269C8.13596 36.5125 8.72299 41.2746 11.3096 42.7993C11.9058 43.1569 12.6029 43.3263 13.3734 43.3263C15.8958 43.3263 19.1979 41.4817 22.5367 38.2818C25.8755 41.4629 29.1775 43.2886 31.7 43.2886C32.4704 43.2886 33.1676 43.1192 33.7729 42.7616C36.3504 41.237 36.9283 36.4843 35.5982 30.5175C41.2852 28.72 45 25.8213 45 22.772ZM33.0575 16.4947C32.7181 17.7087 32.2962 18.9604 31.8192 20.2121C31.4431 19.4592 31.0487 18.7063 30.6176 17.9534C30.1957 17.2005 29.7462 16.4664 29.2968 15.7512C30.5993 15.9488 31.8559 16.1935 33.0575 16.4947ZM28.8565 26.5177C28.1411 27.7882 27.4073 28.9929 26.6459 30.1128C25.2793 30.2352 23.8942 30.3011 22.5 30.3011C21.115 30.3011 19.7299 30.2352 18.3724 30.1222C17.6111 29.0023 16.8681 27.8071 16.1527 26.5459C15.4556 25.3131 14.8227 24.0614 14.2448 22.8003C14.8135 21.5391 15.4556 20.278 16.1435 19.0451C16.859 17.7746 17.5927 16.57 18.3541 15.45C19.7208 15.3277 21.1058 15.2618 22.5 15.2618C23.885 15.2618 25.2701 15.3277 26.6276 15.4406C27.3889 16.5606 28.1319 17.7558 28.8473 19.0169C29.5444 20.2498 30.1773 21.5015 30.7552 22.7626C30.1773 24.0237 29.5444 25.2848 28.8565 26.5177ZM31.8192 25.2942C32.3145 26.5554 32.7365 27.8165 33.085 29.0399C31.8834 29.3411 30.6176 29.5952 29.306 29.7928C29.7554 29.0682 30.2049 28.3247 30.6268 27.5624C31.0487 26.8095 31.4431 26.0471 31.8192 25.2942ZM22.5183 35.3361C21.6653 34.4326 20.8123 33.4256 19.9684 32.3245C20.7939 32.3621 21.6378 32.3904 22.4908 32.3904C23.353 32.3904 24.2061 32.3715 25.0408 32.3245C24.2152 33.4256 23.3622 34.4326 22.5183 35.3361ZM15.694 29.7928C14.3916 29.5952 13.1349 29.3505 11.9333 29.0494C12.2727 27.8353 12.6947 26.5836 13.1716 25.3319C13.5477 26.0848 13.9421 26.8377 14.3732 27.5906C14.8043 28.3435 15.2446 29.0776 15.694 29.7928ZM22.4725 10.2079C23.3255 11.1114 24.1786 12.1184 25.0224 13.2196C24.1969 13.1819 23.353 13.1537 22.5 13.1537C21.6378 13.1537 20.7848 13.1725 19.9501 13.2196C20.7756 12.1184 21.6286 11.1114 22.4725 10.2079ZM15.6849 15.7512C15.2354 16.4759 14.786 17.2194 14.364 17.9817C13.9421 18.7346 13.5477 19.4875 13.1716 20.2404C12.6763 18.9793 12.2544 17.7182 11.9058 16.4947C13.1074 16.2029 14.3732 15.9488 15.6849 15.7512ZM7.38382 27.5341C4.13677 26.113 2.03628 24.2496 2.03628 22.772C2.03628 21.2944 4.13677 19.4216 7.38382 18.0099C8.17265 17.6617 9.03486 17.3511 9.92458 17.0594C10.4474 18.904 11.1353 20.8239 11.9884 22.7908C11.1445 24.7484 10.4658 26.6589 9.9521 28.4941C9.04403 28.2023 8.18182 27.8824 7.38382 27.5341ZM12.3186 40.9829C11.0711 40.2488 10.53 37.4536 10.9519 33.8585C11.0528 32.9739 11.2179 32.0421 11.4197 31.0916C13.2175 31.5433 15.1804 31.8916 17.2442 32.1174C18.4825 33.8585 19.7666 35.4396 21.0599 36.8231C18.0697 39.6747 15.2629 41.237 13.3551 41.237C12.9423 41.2276 12.5938 41.1429 12.3186 40.9829ZM34.0756 33.8115C34.5067 37.4066 33.9747 40.2017 32.7364 40.9452C32.4613 41.1146 32.1035 41.1899 31.6816 41.1899C29.7829 41.1899 26.967 39.6371 23.9768 36.8043C25.2609 35.4208 26.545 33.8491 27.765 32.108C29.838 31.8822 31.8009 31.5339 33.5987 31.0728C33.8096 32.0233 33.9747 32.9362 34.0756 33.8115ZM37.607 27.5341C36.8182 27.8824 35.956 28.1929 35.0662 28.4847C34.5434 26.6401 33.8555 24.7202 33.0024 22.7532C33.8463 20.7956 34.5251 18.8852 35.0387 17.0499C35.9468 17.3417 36.809 17.6617 37.6162 18.0099C40.8632 19.431 42.9637 21.2944 42.9637 22.772C42.9545 24.2496 40.8541 26.1224 37.607 27.5341Z" fill="white"/>
<path d="M22.4902 27.0731C24.8052 27.0731 26.682 25.1474 26.682 22.7721C26.682 20.3967 24.8052 18.4711 22.4902 18.4711C20.1751 18.4711 18.2983 20.3967 18.2983 22.7721C18.2983 25.1474 20.1751 27.0731 22.4902 27.0731Z" fill="white"/>
<path d="M73.2642 42.0804H56.6218C55.1399 42.0804 54 40.7513 54 39.0236V5.26519C54 3.5374 55.1399 2.20833 56.6218 2.20833H73.2642C74.7461 2.20833 75.886 3.5374 75.886 5.26519V38.8906C75.886 40.7513 74.7461 42.0804 73.2642 42.0804Z" stroke="white" stroke-width="3" stroke-miterlimit="10" stroke-linecap="round" stroke-linejoin="round"/>
<path d="M73.2642 42.224H56.6218C55.1399 42.224 54 40.0409 54 37.2029V31.9636H76V37.2029C75.886 40.0409 74.7461 42.224 73.2642 42.224Z" stroke="white" stroke-width="3" stroke-miterlimit="10" stroke-linecap="round" stroke-linejoin="round"/>
<path d="M56.6354 2.20833H73.3646C74.8542 2.20833 76 4.17309 76 6.72728V11.4427H54V6.72728C54 4.17309 55.1458 2.20833 56.6354 2.20833Z" stroke="white" stroke-width="3" stroke-miterlimit="10" stroke-linecap="round" stroke-linejoin="round"/>
<path d="M62 37.0938H67.6995" stroke="white" stroke-width="3" stroke-miterlimit="10" stroke-linecap="round" stroke-linejoin="round"/>
<path d="M59.5 6.82556H63.0337" stroke="white" stroke-width="3" stroke-miterlimit="10" stroke-linecap="round" stroke-linejoin="round"/>
<path d="M69.7695 6.82556H70.5675" stroke="white" stroke-width="3" stroke-miterlimit="10" stroke-linecap="round" stroke-linejoin="round"/>
</svg>
