<svg width="45" height="42" viewBox="0 0 45 42" fill="none" xmlns="http://www.w3.org/2000/svg">
<path d="M45 20.772C45 17.7133 41.2668 14.8147 35.5432 13.0171C36.864 7.03152 36.277 2.26941 33.6904 0.744777C33.0942 0.387147 32.3971 0.217744 31.6358 0.217744V2.31646C32.0577 2.31646 32.3971 2.40117 32.6814 2.56116C33.9289 3.29524 34.47 6.09039 34.0481 9.68551C33.9472 10.5702 33.7821 11.5019 33.5803 12.4524C31.7825 12.0007 29.8196 11.6525 27.7558 11.4266C26.5175 9.68551 25.2334 8.10441 23.9401 6.72095C26.9303 3.86933 29.7371 2.30705 31.6449 2.30705V0.208333C29.1225 0.208333 25.8204 2.05295 22.4817 5.25279C19.1429 2.07177 15.8408 0.245978 13.3184 0.245978V2.3447C15.2171 2.3447 18.033 3.89756 21.0232 6.73036C19.7391 8.11382 18.455 9.68551 17.235 11.4266C15.162 11.6525 13.1991 12.0007 11.4013 12.4618C11.1904 11.5207 11.0344 10.6078 10.9244 9.73256C10.4933 6.13745 11.0253 3.3423 12.2636 2.5988C12.5387 2.4294 12.8965 2.35411 13.3184 2.35411V0.25539C12.5479 0.25539 11.8508 0.424793 11.2454 0.782422C8.66796 2.30705 8.09009 7.05976 9.4201 13.0265C3.71484 14.8335 0 17.7228 0 20.772C0 23.8307 3.73318 26.7294 9.45679 28.5269C8.13596 34.5125 8.72299 39.2746 11.3096 40.7993C11.9058 41.1569 12.6029 41.3263 13.3734 41.3263C15.8958 41.3263 19.1979 39.4817 22.5367 36.2818C25.8755 39.4629 29.1775 41.2886 31.7 41.2886C32.4704 41.2886 33.1676 41.1192 33.7729 40.7616C36.3504 39.237 36.9283 34.4843 35.5982 28.5175C41.2852 26.72 45 23.8213 45 20.772ZM33.0575 14.4947C32.7181 15.7087 32.2962 16.9604 31.8192 18.2121C31.4431 17.4592 31.0487 16.7063 30.6176 15.9534C30.1957 15.2005 29.7462 14.4664 29.2968 13.7512C30.5993 13.9488 31.8559 14.1935 33.0575 14.4947ZM28.8565 24.5177C28.1411 25.7882 27.4073 26.9929 26.6459 28.1128C25.2793 28.2352 23.8942 28.3011 22.5 28.3011C21.115 28.3011 19.7299 28.2352 18.3724 28.1222C17.6111 27.0023 16.8681 25.8071 16.1527 24.5459C15.4556 23.3131 14.8227 22.0614 14.2448 20.8003C14.8135 19.5391 15.4556 18.278 16.1435 17.0451C16.859 15.7746 17.5927 14.57 18.3541 13.45C19.7208 13.3277 21.1058 13.2618 22.5 13.2618C23.885 13.2618 25.2701 13.3277 26.6276 13.4406C27.3889 14.5606 28.1319 15.7558 28.8473 17.0169C29.5444 18.2498 30.1773 19.5015 30.7552 20.7626C30.1773 22.0237 29.5444 23.2848 28.8565 24.5177ZM31.8192 23.2942C32.3145 24.5554 32.7365 25.8165 33.085 27.0399C31.8834 27.3411 30.6176 27.5952 29.306 27.7928C29.7554 27.0682 30.2049 26.3247 30.6268 25.5624C31.0487 24.8095 31.4431 24.0471 31.8192 23.2942ZM22.5183 33.3361C21.6653 32.4326 20.8123 31.4256 19.9684 30.3245C20.7939 30.3621 21.6378 30.3904 22.4908 30.3904C23.353 30.3904 24.2061 30.3715 25.0408 30.3245C24.2152 31.4256 23.3622 32.4326 22.5183 33.3361ZM15.694 27.7928C14.3916 27.5952 13.1349 27.3505 11.9333 27.0494C12.2727 25.8353 12.6947 24.5836 13.1716 23.3319C13.5477 24.0848 13.9421 24.8377 14.3732 25.5906C14.8043 26.3435 15.2446 27.0776 15.694 27.7928ZM22.4725 8.20794C23.3255 9.11142 24.1786 10.1184 25.0224 11.2196C24.1969 11.1819 23.353 11.1537 22.5 11.1537C21.6378 11.1537 20.7848 11.1725 19.9501 11.2196C20.7756 10.1184 21.6286 9.11142 22.4725 8.20794ZM15.6849 13.7512C15.2354 14.4759 14.786 15.2194 14.364 15.9817C13.9421 16.7346 13.5477 17.4875 13.1716 18.2404C12.6763 16.9793 12.2544 15.7182 11.9058 14.4947C13.1074 14.2029 14.3732 13.9488 15.6849 13.7512ZM7.38382 25.5341C4.13677 24.113 2.03628 22.2496 2.03628 20.772C2.03628 19.2944 4.13677 17.4216 7.38382 16.0099C8.17265 15.6617 9.03486 15.3511 9.92458 15.0594C10.4474 16.904 11.1353 18.8239 11.9884 20.7908C11.1445 22.7484 10.4658 24.6589 9.9521 26.4941C9.04403 26.2023 8.18182 25.8824 7.38382 25.5341ZM12.3186 38.9829C11.0711 38.2488 10.53 35.4536 10.9519 31.8585C11.0528 30.9739 11.2179 30.0421 11.4197 29.0916C13.2175 29.5433 15.1804 29.8916 17.2442 30.1174C18.4825 31.8585 19.7666 33.4396 21.0599 34.8231C18.0697 37.6747 15.2629 39.237 13.3551 39.237C12.9423 39.2276 12.5938 39.1429 12.3186 38.9829ZM34.0756 31.8115C34.5067 35.4066 33.9747 38.2017 32.7364 38.9452C32.4613 39.1146 32.1035 39.1899 31.6816 39.1899C29.7829 39.1899 26.967 37.6371 23.9768 34.8043C25.2609 33.4208 26.545 31.8491 27.765 30.108C29.838 29.8822 31.8009 29.5339 33.5987 29.0728C33.8096 30.0233 33.9747 30.9362 34.0756 31.8115ZM37.607 25.5341C36.8182 25.8824 35.956 26.1929 35.0662 26.4847C34.5434 24.6401 33.8555 22.7202 33.0024 20.7532C33.8463 18.7956 34.5251 16.8852 35.0387 15.0499C35.9468 15.3417 36.809 15.6617 37.6162 16.0099C40.8632 17.431 42.9637 19.2944 42.9637 20.772C42.9545 22.2496 40.8541 24.1224 37.607 25.5341Z" fill="white"/>
<path d="M22.4902 25.073C24.8052 25.073 26.682 23.1474 26.682 20.772C26.682 18.3967 24.8052 16.4711 22.4902 16.4711C20.1751 16.4711 18.2983 18.3967 18.2983 20.772C18.2983 23.1474 20.1751 25.073 22.4902 25.073Z" fill="white"/>
</svg>
