<svg width="45" height="44" viewBox="0 0 45 44" fill="none" xmlns="http://www.w3.org/2000/svg">
<path d="M31.1802 30.7431C32.8409 30.5667 34.1007 29.0978 34.0434 27.335C33.9862 25.5724 32.5545 24.1621 30.8366 24.1621H30.7222C28.9468 24.2209 27.5725 25.7486 27.6298 27.57C27.6871 28.4514 28.0306 29.2153 28.546 29.7441C26.599 33.6809 23.6213 36.56 19.1547 38.9691C16.1197 40.6143 12.9702 41.2019 9.82072 40.7907C7.24377 40.4381 5.23951 39.263 3.97951 37.3238C2.14717 34.4448 1.97543 31.3305 3.5216 28.2164C4.60968 25.9836 6.32742 24.3383 7.41551 23.5157C7.18646 22.7519 6.84281 21.4593 6.67107 20.5192C-1.63231 26.6888 -0.773264 35.0324 1.74638 38.9691C3.63603 41.9071 7.47281 43.7286 11.7104 43.7286C12.8556 43.7286 14.0008 43.611 15.1462 43.3173C22.4761 41.8483 28.0308 37.3826 31.1802 30.7431ZM41.2588 23.4571C36.9067 18.2276 30.4931 15.3485 23.1632 15.3485H22.247C21.7317 14.2909 20.6436 13.5857 19.441 13.5857H19.3264C17.5514 13.6445 16.1771 15.1721 16.2343 16.9938C16.2916 18.7564 17.7231 20.1666 19.441 20.1666H19.5555C20.8153 20.1078 21.9034 19.2852 22.3615 18.1688H23.3923C27.7444 18.1688 31.8674 19.4614 35.5897 21.9881C38.4528 23.9271 40.5144 26.4538 41.6596 29.5091C42.6331 31.9769 42.5758 34.386 41.545 36.4426C39.9417 39.5567 37.2503 41.2607 33.6999 41.2607C31.4093 41.2607 29.2333 40.5555 28.0879 40.0267C27.4581 40.6143 26.3127 41.5543 25.511 42.1421C27.9735 43.3172 30.4931 43.9636 32.8982 43.9636C38.3955 43.9636 42.4614 40.8493 44.0075 37.7352C45.6681 34.3272 45.5535 28.4514 41.2588 23.4571ZM12.1685 31.7417C12.2258 33.5045 13.6573 34.9146 15.3752 34.9146H15.4898C17.2651 34.856 18.6393 33.3282 18.582 31.5067C18.5249 29.7439 17.0931 28.3338 15.3752 28.3338H15.2608C15.1462 28.3338 14.9743 28.3338 14.86 28.3925C12.5121 24.397 11.5386 20.049 11.8823 15.3484C12.1111 11.8229 13.2565 8.76741 15.2608 6.24077C16.9214 4.06672 20.1282 3.00909 22.3044 2.95048C28.3743 2.83288 30.951 10.5889 31.1229 13.7031C31.8674 13.8793 33.1272 14.2907 33.9862 14.5845C33.2989 5.06591 27.5725 0.130203 22.0753 0.130203C16.9214 0.130203 12.1685 3.94948 10.2786 9.59021C7.64455 17.1112 9.36246 24.3383 12.5692 30.0379C12.2831 30.4491 12.1111 31.0955 12.1685 31.7419V31.7417Z" fill="white"/>
</svg>
