<svg width="41" height="42" viewBox="0 0 41 42" fill="none" xmlns="http://www.w3.org/2000/svg">
<path d="M36.4173 2.35252C35.8569 3.73106 35.1395 5.03668 34.2799 6.24212C32.4034 4.30877 30.1711 2.77744 27.7127 1.73718C25.2544 0.696919 22.6189 0.168474 19.9597 0.182572C17.3005 0.196669 14.6706 0.753026 12.2228 1.8193C9.77502 2.88557 7.55825 4.44048 5.70137 6.39362C3.8445 8.34677 2.38456 10.6592 1.40646 13.1964C0.428349 15.7336 -0.0484158 18.445 0.00388035 21.173C0.0561765 23.901 0.636491 26.5911 1.71108 29.0869C2.78568 31.5827 4.3331 33.8344 6.2634 35.7111L7.00482 36.3827C9.83416 38.8288 13.2678 40.4241 16.926 40.9922C20.5841 41.5603 24.3242 41.0791 27.7323 39.6016C31.1404 38.1242 34.0837 35.7082 36.2367 32.621C38.3897 29.5338 39.6683 25.8956 39.9312 22.109C40.4782 16.8686 38.9785 10.2363 36.4179 2.35316L36.4173 2.35252ZM9.11719 35.8304C8.90369 36.1011 8.61675 36.3007 8.29266 36.404C7.96857 36.5073 7.6219 36.5096 7.29651 36.4107C6.97112 36.3118 6.68163 36.1161 6.46468 35.8483C6.24773 35.5806 6.11305 35.2528 6.0777 34.9065C6.04234 34.5602 6.1079 34.2109 6.26607 33.9028C6.42424 33.5948 6.66791 33.3417 6.96627 33.1758C7.26462 33.0099 7.60424 32.9384 7.94216 32.9706C8.28008 33.0027 8.6011 33.137 8.86463 33.3564C9.21761 33.6503 9.44247 34.0759 9.48983 34.5398C9.53718 35.0037 9.40316 35.4678 9.11719 35.8304ZM36.3347 29.6663C31.3836 36.4333 20.8124 34.1499 14.0346 34.4783C14.0346 34.4783 12.833 34.5508 11.6234 34.7541C11.6234 34.7541 12.0797 34.5552 12.663 34.3288C17.4229 32.629 19.6728 32.3019 22.5641 30.7753C28.0078 27.9357 33.3928 21.7171 34.5118 15.2529C32.4407 21.4715 26.1518 26.819 20.4273 28.9909C16.5039 30.4745 9.41601 31.9196 9.41601 31.9196L9.13032 31.7625C4.30795 29.3571 4.15916 18.6409 12.9293 15.1849C16.7696 13.6673 20.4436 14.5005 24.5908 13.4851C29.0193 12.4056 34.143 9.00153 36.2278 4.55902C38.5596 11.666 41.369 22.7896 36.3316 29.6708L36.3347 29.6663Z" fill="white"/>
</svg>
