<svg width="67" height="40" viewBox="0 0 67 40" fill="none" xmlns="http://www.w3.org/2000/svg">
<path d="M16.75 13.3333C18.9833 4.44444 24.5667 0 33.5 0C46.9 0 48.575 10 55.275 11.6667C59.7417 12.7778 63.65 11.1111 67 6.66667C64.7667 15.5556 59.1833 20 50.25 20C36.85 20 35.175 10 28.475 8.33333C24.0083 7.22222 20.1 8.88889 16.75 13.3333ZM0 33.3333C2.23333 24.4444 7.81667 20 16.75 20C30.15 20 31.825 30 38.525 31.6667C42.9917 32.7778 46.9 31.1111 50.25 26.6667C48.0167 35.5556 42.4333 40 33.5 40C20.1 40 18.425 30 11.725 28.3333C7.25833 27.2222 3.35 28.8889 0 33.3333Z" fill="white"/>
</svg>
