<svg width="142" height="48" viewBox="0 0 142 48" fill="none" xmlns="http://www.w3.org/2000/svg">
<path d="M7.85756 40.7957C8.28765 40.7957 8.63663 40.4358 8.63663 39.9916C8.63663 39.5475 8.28765 39.1868 7.85756 39.1868C7.42862 39.1868 7.07959 39.5475 7.07959 39.9916C7.07959 40.4358 7.42862 40.7957 7.85756 40.7957Z" fill="white"/>
<path d="M68.116 47.0945C68.5462 47.0945 68.8952 46.7345 68.8952 46.2907C68.8952 45.8462 68.5462 45.4856 68.116 45.4856C67.6867 45.4856 67.3384 45.8462 67.3384 46.2907C67.3384 46.7345 67.6867 47.0945 68.116 47.0945Z" fill="white"/>
<path d="M31.2548 42.2211L31.2545 42.2184C31.2526 41.3219 30.9494 40.5656 30.3987 40.0548L30.36 40.0192L30.3512 40.011H30.3493C29.8313 39.5546 29.13 39.314 28.298 39.3058C28.295 39.3051 28.288 39.3049 28.2801 39.3049C28.2724 39.3049 28.2645 39.3051 28.2568 39.3061L28.2508 39.3058C28.2258 39.3058 28.209 39.3064 28.1968 39.307C28.187 39.3064 28.1715 39.3058 28.1531 39.3058L28.1407 39.3061C28.1342 39.3055 28.1264 39.3049 28.1162 39.3049H28.1132C28.1141 39.3049 28.1117 39.3049 28.1089 39.3049C28.1047 39.3049 28.0989 39.3049 28.0928 39.3058C27.263 39.3151 26.564 39.5549 26.0476 40.011H26.0452L25.9979 40.0548C25.4493 40.5635 25.1461 41.3163 25.1422 42.208L25.1418 42.209L25.141 42.2125L25.1367 46.8291C25.1367 46.8907 25.1623 46.9514 25.2071 46.9943C25.252 47.0381 25.3149 47.0635 25.378 47.0635H26.1788C26.2419 47.0635 26.3039 47.0381 26.3493 46.9943C26.3947 46.9514 26.4198 46.8907 26.4198 46.8291L26.4216 42.3682C26.4265 41.7147 26.5894 41.2514 26.8835 40.9453C27.1683 40.6489 27.6032 40.4815 28.2016 40.4696C28.7944 40.4815 29.2285 40.6489 29.5134 40.9453C29.8073 41.2514 29.9702 41.7147 29.9753 42.3696L29.9741 46.8291C29.9741 46.8907 29.9997 46.9514 30.0446 46.9943C30.0897 47.0381 30.1523 47.0635 30.2154 47.0635H31.0175C31.0806 47.0635 31.1428 47.0381 31.188 46.9943C31.2338 46.9514 31.2588 46.8907 31.2588 46.8291L31.2548 42.2211Z" fill="white"/>
<path d="M59.1772 42.2211L59.1769 42.2184C59.1751 41.3219 58.8718 40.5656 58.3212 40.0548L58.2824 40.0192L58.2736 40.011H58.2717C57.7538 39.5546 57.0524 39.314 56.2205 39.3058C56.2174 39.3051 56.2105 39.3049 56.2026 39.3049C56.1949 39.3049 56.187 39.3051 56.1793 39.3061L56.1733 39.3058C56.1482 39.3058 56.1314 39.3064 56.1192 39.307C56.1094 39.3064 56.0938 39.3058 56.0756 39.3058L56.063 39.3061C56.0567 39.3055 56.0488 39.3049 56.0387 39.3049H56.0356C56.0368 39.3049 56.0341 39.3049 56.0314 39.3049C56.0271 39.3049 56.0213 39.3049 56.0152 39.3058C55.1854 39.3151 54.4865 39.5549 53.97 40.011H53.9675L53.9203 40.0548C53.3718 40.5635 53.0686 41.3163 53.0646 42.208L53.0643 42.209L53.0633 42.2125L53.0591 46.8291C53.0591 46.8907 53.0847 46.9514 53.1295 46.9943C53.1744 47.0381 53.2372 47.0635 53.3003 47.0635H54.1012C54.1644 47.0635 54.2263 47.0381 54.2718 46.9943C54.3172 46.9514 54.3422 46.8907 54.3422 46.8291L54.344 42.3682C54.3489 41.7147 54.5118 41.2514 54.8059 40.9453C55.0908 40.6489 55.5255 40.4815 56.1242 40.4696C56.7169 40.4815 57.151 40.6489 57.4359 40.9453C57.7296 41.2514 57.8926 41.7147 57.8978 42.3696L57.8965 46.8291C57.8965 46.8907 57.9222 46.9514 57.967 46.9943C58.0122 47.0381 58.0747 47.0635 58.1378 47.0635H58.9399C59.003 47.0635 59.0653 47.0381 59.1104 46.9943C59.1561 46.9514 59.1811 46.8907 59.1811 46.8291L59.1772 42.2211Z" fill="white"/>
<path d="M44.2048 43.2056V43.2219V43.2238V43.2407C44.203 43.9758 44.1268 44.6943 43.8544 45.2085C43.5865 45.7031 43.1557 46.0334 42.3192 46.0465C42.3137 46.0459 42.3049 46.0459 42.2881 46.0465H42.2741C41.432 46.0377 40.9955 45.7069 40.7264 45.2077C40.4516 44.6915 40.3747 43.9672 40.3747 43.2272V43.1828C40.3754 42.4478 40.4516 41.858 40.7264 41.3442C40.9955 40.8449 41.432 40.5134 42.2741 40.5055H42.2799H42.2936H42.3064C43.149 40.5134 43.584 40.8442 43.8552 41.345C44.1283 41.858 44.2048 42.4478 44.2048 43.1828V43.2056ZM44.4419 40.0933C44.4376 40.088 44.4334 40.0827 44.4276 40.0773C43.9714 39.6458 43.242 39.3783 42.3971 39.3774C42.3856 39.3759 42.368 39.3759 42.3515 39.3759C41.6566 39.3756 40.9711 39.5246 40.3754 40.0479L40.3747 40.0483V39.589H40.3759V37.2627C40.3759 37.2014 40.3503 37.141 40.3054 37.0981C40.2606 37.0546 40.198 37.0293 40.1347 37.0293H39.3455C39.2826 37.0293 39.2204 37.0546 39.1749 37.0981C39.1294 37.141 39.1045 37.2014 39.1045 37.2627V39.589H39.1051V44.5278H39.1045V46.8416C39.1045 46.9029 39.1303 46.9633 39.1749 47.0059C39.22 47.0497 39.2826 47.0747 39.346 47.0747H40.135C40.198 47.0747 40.2603 47.0497 40.3054 47.0059C40.3512 46.9633 40.3763 46.9029 40.3763 46.8416V46.3632C40.9028 46.9673 41.6585 47.1755 42.3515 47.1752H42.4004C43.2435 47.1724 43.973 46.9051 44.4276 46.474C45.2777 45.6483 45.4721 44.3825 45.4748 43.2059C45.4724 42.0356 45.2777 40.916 44.4419 40.0933Z" fill="white"/>
<path d="M22.9192 44.2593C22.9174 44.8768 22.7856 45.2179 22.6087 45.377C22.1819 45.7811 21.6535 45.8419 21.0099 45.8431H21.0028H20.9909C20.371 45.844 19.9637 45.7336 19.7327 45.562C19.5135 45.3992 19.4003 45.1666 19.3948 44.7663V44.7482C19.399 44.351 19.5166 44.103 19.7383 43.9284C19.9705 43.7471 20.3612 43.6295 20.9464 43.6295H20.9515H22.9192V44.2593ZM24.2441 41.8794V41.8741C24.2444 41.0913 23.9907 40.4201 23.4586 39.9717C22.9226 39.5199 22.1534 39.3077 21.1633 39.3074H21.1276H21.1141C20.0746 39.3043 19.2486 39.5365 18.6199 40.2229L18.6175 40.2204L18.5815 40.2646C18.5342 40.3184 18.4879 40.3738 18.443 40.433C18.443 40.433 18.4421 40.4343 18.4417 40.4348L18.3774 40.5131C18.3389 40.5598 18.3201 40.6227 18.328 40.6859C18.3347 40.7497 18.3661 40.8108 18.414 40.853L18.4504 40.8853C18.4643 40.9025 18.4796 40.9184 18.4967 40.9332L18.6373 41.0515L19.0113 41.3836C19.0592 41.4265 19.1224 41.4494 19.1837 41.4462C19.2444 41.4437 19.3017 41.4152 19.3399 41.3682L19.5803 41.0756C19.7299 40.9088 19.8835 40.7905 20.0693 40.7072C20.3316 40.5889 20.6684 40.5338 21.1548 40.5291H21.1606L21.177 40.5281C21.8688 40.53 22.2993 40.6743 22.5459 40.8963C22.7917 41.1147 22.9165 41.4446 22.9183 41.9577C22.9183 41.9611 22.9183 41.9702 22.9192 41.9817V42.4656H20.8649C20.0361 42.4675 19.3429 42.6597 18.8427 43.0601C18.3457 43.4517 18.0686 44.0545 18.0684 44.7566L18.0686 44.7832C18.0699 45.3682 18.2841 45.942 18.6733 46.3405C19.1993 46.8723 19.8996 47.0654 20.9579 47.0654H20.9698H21.5061C22.4754 47.0664 23.1706 46.8206 23.6185 46.3252C24.0654 45.8296 24.2444 45.1131 24.2444 44.222V41.8929L24.2441 41.8794Z" fill="white"/>
<path d="M47.3254 44.7796V44.7615C47.3295 44.3649 47.4472 44.117 47.669 43.9427C47.9011 43.7611 48.2921 43.6437 48.8771 43.6437H48.8823H50.85V44.2729C50.8481 44.8901 50.7163 45.231 50.5393 45.3903C50.1126 45.7937 49.5842 45.8545 48.9402 45.8561H48.9332H48.9217C48.3014 45.8567 47.8945 45.7465 47.6635 45.5747C47.444 45.4122 47.331 45.18 47.3254 44.7796ZM52.1749 41.8946V41.8892C52.1751 41.1067 51.9214 40.4363 51.389 39.988C50.8536 39.5366 50.0842 39.3244 49.0944 39.3241H49.0584H49.0449C48.0049 39.3214 47.1794 39.5532 46.5509 40.2391L46.5482 40.2369L46.5122 40.281C46.465 40.3345 46.4185 40.3902 46.3734 40.4491C46.3731 40.4497 46.3728 40.4503 46.3725 40.451L46.3081 40.5292C46.2696 40.5758 46.2508 40.6388 46.2587 40.702C46.2655 40.7656 46.2968 40.8266 46.3447 40.8692L46.381 40.9014C46.3951 40.9183 46.4103 40.9343 46.4273 40.9489L46.568 41.0673L46.942 41.3992C46.9899 41.4417 47.0531 41.4648 47.1141 41.4617C47.1751 41.4592 47.2321 41.4307 47.2706 41.3838L47.5107 41.0914C47.6605 40.9248 47.8143 40.8062 48.0001 40.7229C48.2624 40.605 48.5992 40.5496 49.0854 40.5451L49.0912 40.5449L49.1077 40.5442C49.7996 40.5459 50.23 40.6904 50.4765 40.912C50.7225 41.1302 50.8468 41.4601 50.849 41.9728C50.849 41.9763 50.849 41.9854 50.85 41.9969V42.4806H48.7956C47.9667 42.4825 47.2737 42.6743 46.7733 43.0747C46.2764 43.4659 45.9994 44.0685 45.999 44.7702L45.9994 44.7968C46.0006 45.3816 46.2147 45.9547 46.604 46.3528C47.1299 46.8843 47.8304 47.0775 48.8887 47.0775H48.9005H49.437C50.4061 47.0784 51.1012 46.8326 51.5491 46.3374C51.9961 45.8426 52.1751 45.1265 52.1751 44.2359V41.9081L52.1749 41.8946Z" fill="white"/>
<path d="M11.9012 39.3341H10.548L10.5474 37.9267H10.5468L10.5465 37.2457C10.5465 37.1235 10.4422 37.0237 10.3134 37.0237H9.49981C9.43853 37.0237 9.37808 37.0471 9.33538 37.0885C9.29172 37.1301 9.26611 37.1878 9.26611 37.2457V38.5005H9.26674V45.0975C9.26732 45.6334 9.41774 46.1158 9.74843 46.4813C10.0635 46.8351 10.5742 47.0557 11.1643 47.0557H11.1664H11.5584V47.0507H11.9012C11.9608 47.0507 12.019 47.0241 12.0606 46.9778C12.1029 46.9315 12.127 46.8671 12.127 46.8012V45.9859C12.127 45.9207 12.1029 45.8563 12.0606 45.8096C12.019 45.7627 11.9608 45.7367 11.9012 45.7367H11.2723C11.145 45.7317 11.0428 45.7158 10.9537 45.6835C10.8969 45.6635 10.8619 45.6409 10.8293 45.6196C10.7933 45.5936 10.7734 45.5811 10.7381 45.5432C10.6169 45.4134 10.5498 45.2077 10.548 44.9012V40.6484H11.9012C11.9608 40.6484 12.019 40.6218 12.0606 40.5754C12.1029 40.5288 12.127 40.4644 12.127 40.3989V39.5832C12.127 39.5182 12.1029 39.4539 12.0606 39.407C12.019 39.36 11.9608 39.3341 11.9012 39.3341Z" fill="white"/>
<path d="M17.7371 40.2974L17.662 40.2117C17.6589 40.2016 17.6535 40.1923 17.6443 40.1825L17.5989 40.1347L17.5366 40.0683L17.4853 40.0098L17.4832 40.012C17.0229 39.5149 16.4499 39.3055 15.8398 39.3049C15.8273 39.3049 15.8127 39.3052 15.792 39.3055C15.3587 39.3055 14.8474 39.5053 14.5405 39.8843L14.3291 40.1419V40.0342V39.566C14.3291 39.5046 14.3035 39.4442 14.2587 39.4016C14.2135 39.3578 14.151 39.3327 14.0875 39.3327H13.2989C13.2355 39.3327 13.1732 39.3578 13.128 39.4016C13.0826 39.4442 13.0576 39.5046 13.0576 39.566V40.0342V46.8325C13.0576 46.8942 13.0832 46.9543 13.128 46.9971C13.1729 47.041 13.2355 47.066 13.2989 47.066H13.435C13.4392 47.0663 13.4438 47.0673 13.4481 47.0673H13.945C13.9497 47.0673 13.9539 47.0663 13.9585 47.066H14.0879C14.151 47.066 14.2132 47.041 14.2587 46.9971C14.3041 46.9543 14.3291 46.8942 14.3291 46.8325V46.7067C14.3291 46.7051 14.3294 46.7035 14.3294 46.702V42.3909C14.3294 42.3852 14.3291 42.3799 14.3291 42.3742V42.0252C14.353 41.6246 14.4767 41.2637 14.68 41.0017C14.8977 40.722 15.2168 40.5403 15.6474 40.539C15.8751 40.539 16.025 40.5669 16.1547 40.6223C16.2797 40.6783 16.4073 40.7741 16.5747 40.9513L16.6126 40.9914L16.784 41.1873C16.8243 41.2337 16.8832 41.2609 16.9451 41.2614C17.0073 41.2628 17.0705 41.2377 17.1181 41.1933L17.7093 40.6412C17.7566 40.597 17.7867 40.5347 17.792 40.4699C17.798 40.4061 17.7773 40.3435 17.7371 40.2974Z" fill="white"/>
<path d="M37.6141 43.091C37.6109 43.0885 37.6073 43.0867 37.6045 43.0844H37.6036C37.143 42.7545 36.5597 42.6396 35.9316 42.5846L34.754 42.4828C34.2641 42.4407 33.9605 42.3361 33.7842 42.1939C33.6347 42.0769 33.542 41.8881 33.5392 41.598V41.5914H33.5383L33.5392 41.5763C33.542 41.233 33.6719 40.9836 33.9029 40.8142C34.1491 40.632 34.5438 40.5159 35.1021 40.5153H35.1067H35.1075C35.8198 40.5166 36.409 40.6871 36.9004 41.011L36.8998 41.012L37.1985 41.2271C37.2462 41.2615 37.3071 41.2743 37.3656 41.2602C37.4252 41.2471 37.4792 41.2092 37.5146 41.1566L37.9544 40.4987C37.9899 40.4458 38.0052 40.3795 37.9966 40.3177C37.992 40.2836 37.9792 40.2517 37.9609 40.2238C37.9447 40.1919 37.9215 40.1632 37.891 40.1409L37.8404 40.1037C37.1384 39.5903 36.1594 39.3023 35.1043 39.3008C34.2592 39.3011 33.5383 39.5095 33.0151 39.9087C32.4962 40.3012 32.1912 40.8946 32.1908 41.5701L32.1912 41.5795V41.584L32.1908 41.602C32.1908 42.1993 32.4065 42.727 32.8373 43.0867C33.2724 43.4519 33.8849 43.6466 34.6564 43.7105L35.8666 43.8109C36.3102 43.8526 36.5875 43.9536 36.7506 44.0939C36.8931 44.2126 36.9841 44.4007 36.985 44.7006V44.7169V44.7193C36.9816 45.0974 36.8333 45.3582 36.5564 45.5391C36.2592 45.7325 35.776 45.8508 35.1043 45.8508H35.0996C35.0972 45.8508 35.0929 45.8512 35.0871 45.8518H35.081C34.1948 45.8474 33.5648 45.643 33.0745 45.2273L32.8193 45.0058C32.7735 44.966 32.7128 44.9472 32.6515 44.9556C32.5902 44.9638 32.5315 44.997 32.491 45.0474L31.9843 45.6759C31.9434 45.7263 31.9221 45.7923 31.9257 45.8562C31.9285 45.9195 31.9568 45.9789 32.0026 46.0184L32.243 46.2271L32.2421 46.2284C32.2469 46.2321 32.2518 46.2352 32.2565 46.239L32.2878 46.2659L32.29 46.2635C33.0341 46.8162 33.9626 47.0807 35.0996 47.0807H35.1198C36.0573 47.0797 36.8483 46.8713 37.4255 46.4625C37.996 46.0593 38.3361 45.4371 38.3352 44.7193V44.6836C38.3364 43.96 38.0632 43.4144 37.6141 43.091Z" fill="white"/>
<path d="M66.6635 46.7432L65.6763 45.3137L63.6982 42.3501L65.2354 40.6748L66.1306 39.7042L66.1848 39.6422C66.2882 39.5355 66.2377 39.4244 66.1928 39.3817C66.148 39.3381 66.0854 39.3127 66.022 39.3127H64.9942C64.9331 39.3127 64.8539 39.3611 64.809 39.4021C64.8081 39.4025 64.8099 39.4018 64.809 39.4021L61.3578 43.179V40.0228V37.2377C61.3578 37.1764 61.3318 37.116 61.2873 37.073C61.2421 37.0292 61.1796 37.0041 61.1161 37.0041H60.3272C60.2641 37.0041 60.2018 37.0292 60.1567 37.073C60.111 37.116 60.0859 37.1764 60.0859 37.2377V40.0228V46.8339C60.0859 46.8953 60.1116 46.9561 60.1565 46.999C60.2016 47.0424 60.2641 47.0678 60.3276 47.0678H61.1164C61.1796 47.0678 61.2419 47.0424 61.2873 46.999C61.3328 46.9561 61.3578 46.8953 61.3578 46.8339V44.8968L62.8529 43.234L63.859 44.779H63.8548L65.2693 46.9482C65.3026 46.9965 65.3548 47.0728 65.4728 47.0728H66.5006C66.5641 47.0728 66.6266 47.0475 66.6715 47.0036C66.7163 46.9607 66.7459 46.8499 66.6635 46.7432Z" fill="white"/>
<path d="M57.8276 37.0772H57.9669L58.1742 37.7029L58.3815 37.0772H58.5192V37.8175H58.4265V37.3796C58.4265 37.3643 58.4271 37.3411 58.4271 37.3048C58.4271 37.2697 58.4292 37.2341 58.4292 37.1931L58.2224 37.8175H58.125L57.9186 37.1931V37.215V37.2972C57.9201 37.3364 57.9201 37.363 57.9201 37.3796V37.8175H57.8276V37.0772Z" fill="white"/>
<path d="M59.255 37.4156C59.2989 37.4156 59.3347 37.4068 59.3618 37.3877C59.3856 37.3705 59.4002 37.3364 59.4002 37.2854C59.4002 37.2341 59.3828 37.1971 59.345 37.1777C59.3251 37.1673 59.2989 37.1627 59.2675 37.1627H59.0339V37.4156H59.255ZM58.9365 37.0772H59.266C59.32 37.0772 59.3654 37.085 59.399 37.102C59.4661 37.1323 59.4987 37.1906 59.4987 37.276C59.4987 37.3201 59.4914 37.3565 59.4728 37.3852C59.4535 37.4125 59.4289 37.4369 59.3963 37.4538C59.4246 37.4663 59.4479 37.4807 59.4618 37.4998C59.4749 37.5188 59.4829 37.5511 59.4829 37.594L59.4884 37.6916C59.4884 37.721 59.492 37.7417 59.4948 37.7558C59.5015 37.7778 59.5116 37.7931 59.5268 37.7993V37.8175H59.4072C59.4038 37.8096 59.4023 37.8022 59.399 37.7931C59.3963 37.7827 59.3956 37.7633 59.395 37.7345L59.3883 37.6106C59.385 37.5615 59.3694 37.529 59.3374 37.513C59.32 37.5041 59.2892 37.4998 59.2508 37.4998H59.0339V37.8175H58.9365V37.0772Z" fill="white"/>
<path d="M58.7235 37.7955C58.7005 37.7955 58.6846 37.778 58.6846 37.7511C58.6846 37.7242 58.701 37.7059 58.726 37.7059C58.7496 37.7059 58.7665 37.7242 58.7665 37.7511C58.7665 37.778 58.7496 37.7955 58.7235 37.7955Z" fill="white"/>
<path d="M59.7112 37.7955C59.6874 37.7955 59.6699 37.778 59.6699 37.7511C59.6699 37.7242 59.6874 37.7059 59.7122 37.7059C59.7372 37.7059 59.7535 37.7242 59.7535 37.7511C59.7535 37.778 59.7372 37.7955 59.7117 37.7955H59.7112Z" fill="white"/>
<path d="M75.0506 18.5312V18.5799V18.5853V18.6363C75.0445 20.8329 74.8174 22.9793 74.0031 24.5154C73.2026 25.9934 71.9158 26.9803 69.4164 27.0195C69.4003 27.0172 69.3736 27.0172 69.3231 27.0195H69.2818C66.7655 26.9936 65.4619 26.0044 64.6575 24.5131C63.8364 22.9706 63.6062 20.8063 63.6062 18.5964V18.4629C63.6085 16.2671 63.8364 14.5051 64.6575 12.9699C65.4619 11.4777 66.7655 10.4877 69.2818 10.4641H69.2986H69.3399H69.3781C71.8959 10.4877 73.1949 11.4762 74.0062 12.9729C74.8212 14.5051 75.0506 16.2671 75.0506 18.4629V18.5312ZM75.7586 9.23249C75.7456 9.21683 75.7326 9.20033 75.7158 9.18463C74.3533 7.89493 72.1742 7.09631 69.6487 7.09384C69.6151 7.08925 69.5624 7.08925 69.5134 7.08925C67.4368 7.08846 65.3885 7.53326 63.6085 9.09676L63.6062 9.0983V7.72622H63.61V0.775548C63.61 0.591969 63.5336 0.411501 63.3997 0.283584C63.2659 0.153345 63.0794 0.078125 62.889 0.078125H60.531C60.3437 0.078125 60.1579 0.153345 60.0218 0.283584C59.8865 0.411501 59.8115 0.591969 59.8115 0.775548V7.72622H59.813V22.482H59.8115V29.395C59.8115 29.5786 59.8887 29.7591 60.0218 29.8861C60.1571 30.0171 60.3437 30.0917 60.5333 30.0917H62.8898C63.0794 30.0917 63.2652 30.0171 63.3997 29.8861C63.5366 29.7591 63.6116 29.5786 63.6116 29.395V27.9656C65.1844 29.7708 67.4421 30.3929 69.5134 30.3921H69.6587C72.1781 30.3834 74.3571 29.5849 75.7158 28.2967C78.2559 25.8294 78.8361 22.0474 78.8445 18.532C78.8376 15.0355 78.2559 11.6903 75.7586 9.23249Z" fill="white"/>
<path d="M96.7699 18.9983C96.7699 21.1941 96.5405 22.9561 95.7254 24.4883C94.9142 25.9851 93.6151 26.9737 91.0973 26.9971H91.0591H91.0178H91.001C88.4847 26.9737 87.1811 25.9835 86.3767 24.4915C85.5555 22.9561 85.3277 21.1941 85.3254 18.9983V18.865C85.3254 16.655 85.5555 14.4906 86.3767 12.9482C87.1811 11.4569 88.4847 10.4676 91.001 10.4418H91.0423C91.0927 10.4441 91.1194 10.4441 91.1355 10.4418C93.6351 10.481 94.9218 11.4679 95.7224 12.9459C96.5366 14.482 96.7637 16.6283 96.7699 18.825V18.876V18.8815V18.9301V18.9983ZM97.4779 28.2288C99.975 25.7709 100.557 22.4258 100.564 18.9293C100.555 15.4139 99.975 11.6319 97.435 9.1646C96.0763 7.87638 93.8973 7.07776 91.3779 7.06917H91.2326C89.1614 7.06838 86.9036 7.69048 85.3308 9.4957V8.06624C85.3308 7.88266 85.2558 7.70224 85.119 7.57516C84.9844 7.44418 84.7986 7.36965 84.609 7.36965H82.2525C82.063 7.36965 81.8764 7.44418 81.741 7.57516C81.608 7.70224 81.5308 7.88266 81.5308 8.06624V14.9793H81.5323V29.7351H81.5308V36.6858C81.5308 36.8693 81.6057 37.0498 81.741 37.1776C81.8771 37.3078 82.063 37.3831 82.2502 37.3831H84.6082C84.7986 37.3831 84.9852 37.3078 85.119 37.1776C85.2528 37.0498 85.3293 36.8693 85.3293 36.6858V29.7351H85.3254V28.363L85.3277 28.3645C87.1078 29.9281 89.1561 30.3729 91.2326 30.3721C91.2816 30.3721 91.3343 30.3721 91.368 30.3673C93.8934 30.365 96.0725 29.5663 97.435 28.2767C97.4518 28.261 97.4648 28.2445 97.4779 28.2288Z" fill="white"/>
<path d="M131.307 32.1999C131.1 32.7761 130.728 33.7061 130.48 34.2651C130.48 34.2651 130.031 35.2779 129.396 35.9312C128.815 36.527 128.151 36.9385 127.403 37.1663C126.656 37.3932 126.165 37.4287 126.165 37.4287C125.568 37.4712 124.696 37.5067 124.228 37.5067C123.76 37.5067 123.377 37.0039 123.377 36.3899V34.7481C123.377 34.1342 123.62 33.6313 123.917 33.6313C124.214 33.6313 124.944 33.5792 125.539 33.5162C125.539 33.5162 125.992 33.4673 126.407 33.141C126.823 32.8132 127.033 32.3434 127.033 32.3434C127.282 31.7845 127.65 30.8537 127.85 30.2744L128.285 29.0118C128.485 28.4324 128.48 27.4866 128.275 26.9096L121.676 8.40485C121.47 7.82784 121.792 7.35573 122.391 7.35573H124.696C125.295 7.35573 125.942 7.83179 126.134 8.41344L130.457 21.5011C130.65 22.0836 130.96 22.0821 131.148 21.4988L135.363 8.41665C135.551 7.83258 136.194 7.35573 136.794 7.35573H139.14C139.739 7.35573 140.059 7.82705 139.853 8.40396L131.307 32.1999Z" fill="white"/>
<path d="M106.184 23.4177V23.3644C106.196 22.1933 106.544 21.4615 107.199 20.9462C107.884 20.4107 109.038 20.0643 110.766 20.0643H110.78H116.591V21.9219C116.586 23.744 116.196 24.7512 115.674 25.2212C114.414 26.4126 112.854 26.5919 110.952 26.5968H110.932H110.897C109.066 26.5983 107.864 26.2737 107.182 25.7656C106.534 25.2859 106.201 24.6001 106.184 23.4177ZM120.504 14.8991V14.8829C120.505 12.573 119.755 10.5925 118.183 9.2687C116.602 7.93599 114.33 7.31008 111.407 7.30845H111.301H111.261C108.19 7.3003 105.753 7.98523 103.897 10.0102L103.889 10.0037L103.782 10.1345C103.643 10.292 103.506 10.4568 103.372 10.6304C103.371 10.632 103.371 10.6345 103.37 10.6361L103.18 10.8671C103.066 11.0052 103.01 11.1909 103.034 11.3775C103.053 11.565 103.146 11.7451 103.288 11.8711L103.395 11.9663C103.436 12.0164 103.482 12.0632 103.532 12.1061L103.947 12.4558L105.052 13.4355C105.193 13.5615 105.38 13.6301 105.56 13.6205C105.74 13.6133 105.908 13.5292 106.022 13.3903L106.73 12.5268V12.5261C107.173 12.035 107.627 11.6853 108.176 11.439C108.95 11.0908 109.944 10.9276 111.381 10.9139L111.398 10.9131L111.446 10.9115C113.49 10.9163 114.761 11.3428 115.489 11.9978C116.214 12.6415 116.583 13.6165 116.588 15.1301C116.588 15.1397 116.588 15.1671 116.591 15.2011V16.6291H110.525C108.077 16.6348 106.031 17.2018 104.554 18.3834C103.086 19.5392 102.268 21.3177 102.267 23.3903L102.268 23.4686C102.272 25.1955 102.904 26.8875 104.054 28.0636C105.606 29.6328 107.675 30.203 110.8 30.203H110.835H112.419C115.281 30.2063 117.334 29.4802 118.656 28.0182C119.976 26.5571 120.505 24.4418 120.505 21.8129V14.9386L120.504 14.8991Z" fill="white"/>
<path d="M35.4561 7.40219C34.83 7.40219 34.1791 7.90784 34.0082 8.52461L29.8868 23.439C29.7161 24.0568 29.4163 24.0632 29.2206 23.4532L24.4274 8.51058C24.2324 7.90122 23.5606 7.40219 22.9346 7.40219H22.075C21.4494 7.40219 20.7787 7.90132 20.5845 8.51152L15.8291 23.4524C15.6348 24.0626 15.3347 24.0577 15.163 23.44L11.0047 8.5249C10.8325 7.90734 10.1795 7.40219 9.55343 7.40219H7.80221C7.17703 7.40219 6.81977 7.9028 7.00846 8.51473L13.3683 29.0958C13.5577 29.7069 14.2239 30.2085 14.8499 30.2085H16.0526C16.6111 30.2085 17.2132 29.7639 17.3906 29.2206L22.1448 14.663C22.3439 14.0544 22.6698 14.0544 22.8703 14.6623L27.6226 29.1025C27.8233 29.7102 28.499 30.2085 29.1243 30.2085H30.2884C30.8678 30.2085 31.4844 29.7445 31.6585 29.1774L38.0028 8.51552C38.1906 7.9028 37.8326 7.40219 37.2073 7.40219L35.4561 7.40219Z" fill="white"/>
<path d="M57.1171 18.0867C57.1171 11.3177 53.6166 7.11263 47.9823 7.11263C42.2629 7.11263 38.8481 11.4484 38.8481 18.7103C38.8481 26.1887 42.2923 30.3079 48.5461 30.3079C52.4305 30.3079 54.5144 28.9709 56.6178 26.8139L56.8976 26.5269L54.2131 24.109L53.9673 24.3605C52.2534 26.1191 50.8573 26.7419 48.6331 26.7419C44.9296 26.7419 42.8318 24.3265 42.7187 19.9365H57.1171V18.0867ZM42.7342 16.7713C42.8122 15.3524 42.9122 14.7173 43.3351 13.6511C44.1126 11.7626 45.8933 10.5897 47.9823 10.5897C50.0712 10.5897 51.8515 11.7618 52.6285 13.6479C53.0526 14.7173 53.1522 15.3524 53.2306 16.7713H42.7342Z" fill="white"/>
<path d="M2.25938 12.1279C3.50794 12.1279 4.52177 11.0823 4.52177 9.79248C4.52177 8.50273 3.50794 7.45618 2.25938 7.45618C1.01379 7.45618 0 8.50273 0 9.79248C4.81355e-08 11.0823 1.01379 12.1279 2.25938 12.1279Z" fill="white"/>
<path d="M139.738 30.1982C140.987 30.1982 142 29.1523 142 27.8635C142 26.5729 140.987 25.5256 139.738 25.5256C138.491 25.5256 137.48 26.5729 137.48 27.8635C137.48 29.1523 138.491 30.1982 139.738 30.1982Z" fill="white"/>
</svg>
