<svg width="38" height="38" viewBox="0 0 38 38" fill="none" xmlns="http://www.w3.org/2000/svg">
<path d="M34.2891 0H3.71094C1.66144 0 0 1.66144 0 3.71094V34.2891C0 36.3386 1.66144 38 3.71094 38H34.2891C36.3386 38 38 36.3386 38 34.2891V3.71094C38 1.66144 36.3386 0 34.2891 0Z" fill="white"/>
<path fill-rule="evenodd" clip-rule="evenodd" d="M23.5273 30.207V33.9179C24.1285 34.2297 24.8633 34.4597 25.6797 34.6156C26.4961 34.7715 27.3867 34.8457 28.2773 34.8457C29.168 34.8457 29.9844 34.764 30.8008 34.5933C31.6172 34.4226 32.2851 34.1406 32.8789 33.7769C33.4801 33.3836 33.9922 32.8863 34.2891 32.2183C34.5859 31.5504 34.816 30.8082 34.816 29.8433C34.816 29.1679 34.7121 28.5816 34.5117 28.0621C34.3113 27.5426 34.0219 27.0972 33.6211 26.7261C33.2426 26.3328 32.8047 25.984 32.2851 25.6871C31.7656 25.3902 31.1719 25.0785 30.5039 24.7965C30.0141 24.5961 29.6133 24.4031 29.168 24.2101C28.782 24.0172 28.448 23.8242 28.2031 23.6312C27.9285 23.4308 27.7207 23.223 27.5723 23.0078C27.4238 22.7851 27.3496 22.5402 27.3496 22.2656C27.3496 22.0133 27.4157 21.7832 27.55 21.5754C27.6843 21.3675 27.8691 21.1968 28.1066 21.0484C28.3441 20.9 28.641 20.7886 28.9973 20.707C29.3461 20.6254 29.732 20.5882 30.1848 20.5882C30.4965 20.5882 30.823 20.6113 31.1496 20.658C31.491 20.7048 31.8398 20.7768 32.1887 20.8732C32.5375 20.9697 32.8789 21.0885 33.2277 21.2369C33.5543 21.3854 33.8586 21.5561 34.1184 21.749V18.2607C33.5543 18.0455 32.9309 17.8822 32.2629 17.7783C31.5949 17.6744 30.8527 17.6225 29.9621 17.6225C29.0715 17.6225 28.2551 17.719 27.4387 17.9045C26.6223 18.09 25.9543 18.3869 25.3605 18.7951C24.7594 19.1959 24.3215 19.6857 23.9504 20.3537C23.6016 20.9772 23.4309 21.6897 23.4309 22.5803C23.4309 23.6936 23.75 24.6584 24.3957 25.4006C25.034 26.217 26.0285 26.8108 27.2902 27.4045C27.8023 27.6123 28.2551 27.8201 28.7004 28.0205C29.1457 28.2209 29.5168 28.4287 29.8137 28.644C30.1328 28.8592 30.3851 29.0967 30.5559 29.349C30.7414 29.6014 30.8379 29.8983 30.8379 30.2397C30.8379 30.4772 30.78 30.6998 30.6672 30.9076C30.5544 31.1154 30.3777 31.2936 30.1402 31.442C29.9027 31.5904 29.6133 31.7092 29.2496 31.7983C28.9008 31.8799 28.5074 31.9244 27.9879 31.9244C27.1715 31.9244 26.3551 31.7834 25.6129 31.5014C24.7965 31.2193 24.0543 30.7963 23.3863 30.2397L23.5273 30.207ZM17.293 21.0781H22.043V18.0351H8.75781V21.0781H13.5078V34.6601H17.293V21.0781Z" fill="#98353C"/>
</svg>
