<svg width="122" height="133" viewBox="0 0 122 133" fill="none" xmlns="http://www.w3.org/2000/svg">
<path d="M121.977 59.3408C121.563 43.6837 115.225 28.9538 104.136 17.8643C95.1269 8.85552 83.773 2.97739 71.304 0.862178C68.8822 0.452164 66.3991 0.183931 63.8892 0.0689742C63.69 0.0613104 63.4869 0.0613104 63.2876 0.0689742C63.0692 0.0421509 62.8508 0.0268233 62.6477 0.0229914C61.5671 -0.0076638 60.4674 -0.0076638 59.3868 0.0229914C59.268 0.0229914 59.1569 0.0306552 59.0534 0.038319C58.9346 0.038319 58.8196 0.038319 58.7124 0.0421509C56.1986 0.134117 53.6581 0.387022 51.1558 0.78554C38.5068 2.82794 26.9957 8.7329 17.8643 17.8643C6.77096 28.9577 0.433005 43.6952 0.0229914 59.3331C0.0038319 59.8888 0 60.4406 0 60.9962C0 61.5518 0.0038319 62.1113 0.0229914 62.6362C0.433005 78.3011 6.77096 93.0347 17.8643 104.132C19.9335 106.201 22.1675 108.136 24.5165 109.899C24.049 114.183 24.4015 118.693 25.5549 122.916L25.6392 123.222C26.2064 125.311 27.1528 128.809 30.1915 130.955C31.3411 131.768 32.6976 132.197 34.1039 132.197C35.0887 132.197 36.0428 131.986 36.951 131.572C39.1467 130.557 40.645 128.43 40.8634 126.008C41.055 123.859 41.7064 121.563 42.7793 119.241C45.523 120.096 48.3279 120.755 51.1482 121.211C53.6313 121.613 56.1756 121.866 58.7085 121.962C58.8311 121.966 58.9499 121.969 59.0764 121.962C59.1569 121.966 59.245 121.973 59.337 121.977C60.4405 122.012 61.548 122.012 62.6439 121.977C62.8623 121.973 63.0769 121.954 63.2953 121.927C63.5022 121.935 63.713 121.939 63.9276 121.927C66.4183 121.812 68.9014 121.544 71.3078 121.13C83.7691 119.019 95.1192 113.141 104.128 104.128C115.229 93.0347 121.567 78.2972 121.973 62.6592C121.992 62.1074 122 61.5556 122 60.9962C122 60.4367 121.992 59.8926 121.973 59.3408H121.977Z" fill="#7C2F75"/>
<path d="M117.785 59.4619C117.402 44.8815 111.5 31.1595 101.17 20.8249C92.774 12.4292 82.2056 6.95721 70.6026 4.99145C68.338 4.60826 66.0235 4.35918 63.7243 4.25189C63.5251 4.24423 63.322 4.25572 63.1266 4.29021C62.935 4.2404 62.7357 4.20974 62.5326 4.20591C61.5133 4.17909 60.4825 4.17909 59.4633 4.20591C59.3636 4.20591 59.2678 4.2174 59.172 4.2289C59.0724 4.22124 58.969 4.2174 58.8693 4.22124C56.5089 4.30937 54.1408 4.54312 51.8263 4.91481C40.0508 6.81543 29.333 12.3142 20.83 20.821C10.4954 31.1557 4.59809 44.8777 4.2149 59.4581C4.19957 59.9677 4.19574 60.4812 4.19574 60.9908C4.19574 61.5005 4.19957 62.0178 4.2149 62.5198C4.59809 77.1078 10.5031 90.8298 20.83 101.161C22.8571 103.188 25.0528 105.077 27.3558 106.778C27.8922 107.173 28.5475 107.341 29.1951 107.265C28.1298 111.993 28.3291 117.147 29.6013 121.811L29.6779 122.09C30.153 123.842 30.7968 126.244 32.6093 127.528C33.0576 127.842 33.5788 128.003 34.1076 128.003C34.4793 128.003 34.851 127.923 35.1958 127.762C36.0427 127.371 36.6098 126.558 36.6941 125.635C37.062 121.485 38.7173 117.45 40.9015 113.925C41.1621 114.178 41.4725 114.373 41.8174 114.496C45.063 115.657 48.4312 116.523 51.8263 117.071C54.1331 117.446 56.505 117.68 58.8693 117.768C58.9728 117.772 59.0724 117.768 59.172 117.76C59.2717 117.772 59.3675 117.78 59.4671 117.783C59.9767 117.799 60.4902 117.803 60.9999 117.803C61.5095 117.803 62.0268 117.799 62.5364 117.783C62.7395 117.78 62.9426 117.749 63.1342 117.695C63.3297 117.734 63.5327 117.749 63.732 117.737C66.0311 117.63 68.3456 117.381 70.6103 116.994C82.2094 115.028 92.7778 109.552 101.17 101.161C111.508 90.8298 117.409 77.104 117.789 62.5236C117.804 62.0178 117.812 61.5043 117.812 60.9908C117.812 60.4773 117.804 59.9677 117.789 59.4581L117.785 59.4619ZM69.1235 58.0058C69.089 57.9291 69.0507 57.8525 69.0085 57.7835C69.0698 57.7874 69.1235 57.7874 69.181 57.795C69.1618 57.864 69.1465 57.933 69.1235 58.0058Z" fill="#FEFEFE"/>
<path d="M34.103 125.237C32.9764 124.44 32.4706 122.302 32.1027 120.957C29.5239 111.503 31.6659 99.3142 41.4679 95.0723L46.6754 93.2406C21.0055 84.3621 18.9286 46.7942 42.8665 34.1873C42.2419 37.8506 41.8587 41.1843 42.6558 44.8783C45.9206 59.9759 66.632 65.3253 62.9687 83.8142C60.9531 93.9879 52.5498 97.6511 45.7136 103.893C39.916 109.189 34.8042 117.293 34.0991 125.237H34.103Z" fill="#3D275C"/>
<path d="M63.4443 95.1415C63.2565 94.3406 63.8696 94.2754 64.3064 93.9114C72.2461 87.2631 78.2622 81.6263 74.9783 70.0808C73.6754 65.4978 69.0388 60.7425 72.9589 56.0905C67.5827 53.2587 60.5665 56.0522 61.1566 62.7619C60.2331 63.6853 59.2598 60.9724 59.1295 60.4052C56.8342 50.1166 69.0427 48.4574 73.5145 41.4028C75.3653 38.4829 75.3461 35.8657 76.2006 32.6699C98.0271 44.1771 100.575 75.3382 79.4118 89.2058C74.5798 92.371 69.0848 94.0417 63.4481 95.1415H63.4443Z" fill="#7C2F75"/>
<path d="M65.6904 60.7263C66.3677 60.7263 66.9167 60.1773 66.9167 59.5001C66.9167 58.8229 66.3677 58.2739 65.6904 58.2739C65.0132 58.2739 64.4642 58.8229 64.4642 59.5001C64.4642 60.1773 65.0132 60.7263 65.6904 60.7263Z" fill="black"/>
<path d="M115.194 59.3647C114.826 45.4319 109.228 32.3843 99.3341 22.4903C91.2909 14.4471 81.1632 9.24343 70.1695 7.38113C68.0121 7.01326 65.8203 6.77952 63.6055 6.67606C63.2184 6.84083 62.8391 7.0056 62.4559 7.18187V6.63391C61.9692 6.61858 61.4826 6.61475 60.9959 6.61475C60.5093 6.61475 60.0188 6.62241 59.536 6.63391V6.89831C59.3444 6.814 59.1528 6.7297 58.9612 6.64923C56.6927 6.73354 54.4472 6.95579 52.2362 7.31215C41.0854 9.11314 30.8082 14.3475 22.6616 22.4903C12.7677 32.3843 7.16925 45.4319 6.80139 59.3647C6.78606 59.8475 6.78223 60.338 6.78223 60.8246C6.78223 61.3113 6.78989 61.8018 6.80139 62.2846C7.16925 76.2212 12.7638 89.265 22.6616 99.159C24.6197 101.117 26.7043 102.907 28.8923 104.52C29.1988 103.566 29.5782 102.623 30.0227 101.719C28.1719 100.309 26.4015 98.7681 24.727 97.0936C15.381 87.7476 10.0892 75.4357 9.72512 62.2808H23.018C22.9452 61.296 22.9643 60.315 23.1214 59.3608H9.72512C10.0892 46.2098 15.381 33.894 24.727 24.5519C33.6132 15.6619 45.1894 10.439 57.62 9.63811C57.7503 9.56531 57.8806 9.48867 58.0109 9.4197C58.145 9.47717 58.2791 9.53465 58.4132 9.59596C58.1488 9.60746 57.8844 9.62279 57.62 9.64195C53.0869 12.2246 48.8718 15.4358 45.0821 19.2255C39.6676 24.64 35.441 30.9243 32.5249 37.7643C34.0462 36.2085 35.805 34.898 37.7018 33.8174C40.2155 29.2766 43.3769 25.0615 47.1474 21.2909C50.8797 17.5587 55.0488 14.4203 59.536 11.9181V50.6394C60.2794 50.0302 61.1147 49.5895 61.9424 49.0837C62.1148 48.9802 62.2873 48.8691 62.4559 48.7541V11.5732C67.1845 14.1253 71.5681 17.3824 75.4767 21.2909C79.937 25.7513 83.5543 30.8362 86.2405 36.3465C89.2983 39.435 91.5247 43.2285 93.2145 47.275C90.743 36.7411 85.386 27.0733 77.5459 19.2294C73.7791 15.4626 69.5985 12.2745 65.0961 9.69942C64.778 9.6726 64.46 9.64961 64.1419 9.63428C64.299 9.56531 64.4561 9.4925 64.6132 9.42736C64.7742 9.51549 64.9351 9.60746 65.0961 9.69942C77.2547 10.6536 88.5549 15.8458 97.2687 24.5634C106.611 33.9055 111.907 46.2213 112.271 59.3723H97.6289C97.7515 60.338 97.7783 61.3151 97.717 62.2922H112.267C111.903 75.4472 106.607 87.7591 97.2649 97.1051C88.5473 105.823 77.247 111.015 65.0884 111.969C64.9275 112.061 64.7704 112.153 64.6094 112.241C64.4523 112.176 64.299 112.107 64.1419 112.038C64.46 112.019 64.7742 112 65.0884 111.973C69.5909 109.398 73.7753 106.206 77.5421 102.443C82.9987 96.9863 87.2521 90.6445 90.1682 83.7394C89.4861 84.4176 88.735 85.0154 87.915 85.5672C87.0337 86.1573 86.1179 86.7014 85.2327 87.2877C82.673 92.0431 79.4082 96.4498 75.4805 100.374C71.572 104.282 67.1883 107.539 62.4597 110.091V111.26C62.0765 111.076 61.6933 110.885 61.314 110.693C61.6972 110.498 62.0804 110.298 62.4597 110.091V97.6185C62.0919 97.6147 61.7278 97.5955 61.3638 97.5611C61.1837 97.7067 61.0036 97.8523 60.8197 97.9902C60.3982 98.3121 59.9728 98.6263 59.5398 98.929V109.746C56.6582 108.141 53.9107 106.271 51.3204 104.152C50.5923 104.65 49.8834 105.171 49.1937 105.727C49.1017 105.803 49.0059 105.876 48.914 105.953C51.6499 108.252 54.566 110.283 57.6239 112.026C57.8844 112.046 58.145 112.061 58.4094 112.072C58.2753 112.13 58.145 112.191 58.0109 112.245C57.8806 112.172 57.7503 112.099 57.6239 112.026C53.1635 111.739 48.8143 110.881 44.6567 109.49C44.3233 109.815 44.0053 110.153 43.7026 110.505C43.327 110.946 42.9937 111.413 42.6795 111.896C45.768 113 48.9599 113.827 52.2285 114.352C54.4396 114.709 56.685 114.931 58.9535 115.015C59.1451 114.935 59.3406 114.851 59.5321 114.766V115.035C60.0188 115.05 60.5054 115.054 60.9921 115.054C61.4788 115.054 61.9692 115.046 62.4521 115.035V114.487C62.8352 114.659 63.2184 114.828 63.6055 114.992C65.8203 114.889 68.0121 114.651 70.1695 114.287C81.1632 112.425 91.2833 107.217 99.3264 99.1743C109.22 89.2803 114.823 76.2327 115.187 62.2999C115.202 61.8133 115.206 61.3266 115.206 60.84C115.206 60.3533 115.198 59.8628 115.187 59.38L115.194 59.3647Z" fill="#D65A7E"/>
</svg>
