<svg width="200" height="200" viewBox="0 0 200 200" fill="none" xmlns="http://www.w3.org/2000/svg">
<path fill-rule="evenodd" clip-rule="evenodd" d="M0 100V0H100H200V100V200H100H0V100ZM158.157 104.483C157.59 104.256 157.5 101.642 157.5 88.1499C157.5 73.2999 157.4 71.5499 156.55 69.7C154.8 65.7999 150.05 63.1 145.95 63.6499C144.95 63.7999 140.3 65.6499 135.7 67.75C116.55 76.5499 109.95 79.5 109.5 79.5C109.2 79.5 109 77.6499 109 75.35C109 70 107.8 67.45 104.25 65.25C102.2 64 101.35 63.75 98.8 63.7999C95.95 63.85 94.6499 64.35 79.55 71.3999C70.6499 75.6 63.2 79 63 79C62.8 79 62.5 77.6 62.3 75.85C61.8501 71.5499 60.05 68.7 56.55 66.8999L53.8999 65.5H42.3H30.7L27.95 66.8999C20.55 70.6 20.25 80.6499 27.3999 84.85C29.55 86.1499 30.25 86.25 35.6001 86.45L41.45 86.6L41.6001 107.5L41.75 128.4L43.25 130.55C44.8501 132.85 47.1001 134.4 49.6499 135C52.8999 135.8 56.8 134.55 59.3501 132C62.1001 129.3 62.5 126.85 62.5 113.65C62.5 107.25 62.7 102 62.95 102C63.1499 102 68.8999 99.3999 75.7 96.25C82.5 93.1 88.1499 90.5 88.25 90.5C88.3999 90.5 88.5 98.7 88.5 108.75C88.5 124.1 88.6001 127.35 89.25 128.9C91.8999 135.15 100 137.2 105.15 132.95C108.65 130.1 108.7 129.7 109 115.5L109.25 102.8L122.5 96.6499C129.8 93.2999 135.9 90.5499 136.15 90.5C136.35 90.5 136.5 96.35 136.5 103.5C136.5 111.236 136.519 114.377 136.75 115.647C136.564 116.994 136.5 119.854 136.5 125.1C136.5 131.85 136.7 135.5 137 135.5C137.3 135.5 138.9 134.9 140.65 134.2L141.614 133.803C143.675 132.953 147.256 131.476 150.3 130.25C152.312 129.411 154.497 128.495 156.294 127.736C157.712 127.137 158.889 126.637 159.55 126.35C161.05 125.65 164.85 124.05 168 122.75C171.15 121.45 174.9 119.85 176.35 119.2L178.95 118.05L178.9 106.8L178.85 95.5L177.55 95.85C176.85 96 172.55 97.9 168.05 100.1C163.5 102.25 159.3 104.15 158.65 104.3C158.472 104.355 158.305 104.417 158.157 104.483Z" fill="white"/>
</svg>
