<svg width="987" height="251" viewBox="0 0 987 251" fill="none" xmlns="http://www.w3.org/2000/svg">
    <path
        d="M91.45 70.52C35.87 70.52 0 110.26 0 160.28C0 210.3 35.87 250.4 91.45 250.4C147.82 250.4 183.3 210.31 183.3 160.28C183.3 110.25 147.82 70.52 91.45 70.52ZM91.45 233.72C47.31 233.72 22.08 198.6 22.08 160.28C22.08 122.28 47.31 87.2 91.45 87.2C136.39 87.2 161.22 122.32 161.22 160.28C161.22 198.6 136.39 233.71 91.45 233.71V233.72ZM279.08 147.86C252.67 141.86 228.23 136.51 228.23 117C228.23 99.26 246.37 86.13 275.93 86.13C301.16 86.13 321.65 95.36 332.69 108.84L344.12 95.71C330.33 81.87 308.65 70.52 275.93 70.52C232.93 70.52 208.13 91.81 208.13 118.06C208.13 151.41 243.21 158.86 275.13 165.96C302.33 172.34 328.35 178.73 328.35 200.73C328.35 220.59 309.42 234.79 277.5 234.79C250.69 234.79 228.22 223.43 216.01 209.6L203.79 223.43C222.71 242.24 246.36 250.43 277.1 250.43C324.8 250.43 348.45 227.72 348.45 200.05C348.46 163.48 311.8 155.31 279.08 147.86ZM458.83 70.52C428.48 70.52 400.89 79.39 378.83 98.19L395.78 124.09C412.34 109.55 430.86 102.45 452.15 102.45C478.56 102.45 496.69 114.52 496.69 134.38V159.93C482.89 145.38 460.82 137.93 435.2 137.93C404.06 137.93 368.98 154.25 368.98 193.63C368.98 231.63 404.06 250.4 435.2 250.4C460.43 250.4 482.5 242.24 496.69 227.69V246.14H538.08V132.61C538.06 86.49 501.01 70.52 458.83 70.52ZM496.67 207.11C487.21 218.82 469.47 224.85 451.34 224.85C428.08 224.85 410.74 212.79 410.74 194.34C410.74 175.54 428.08 163.48 451.34 163.48C469.47 163.48 487.21 169.48 496.67 181.21V207.11ZM704.8 96.78C689.8 79.39 668.53 70.52 646.07 70.52C597.58 70.52 561.71 104.58 561.71 160.64C561.71 217.76 597.97 250.4 646.07 250.4C657.136 250.496 668.097 248.237 678.223 243.771C688.349 239.306 697.408 232.736 704.8 224.5V246.14H755.25V9.5H704.8V96.78ZM704.8 190.78C696.13 202.14 678.39 210.3 661.44 210.3C633.06 210.3 613.35 190.07 613.35 160.63C613.35 130.82 633.06 110.63 661.44 110.63C678.44 110.63 696.13 118.79 704.8 130.14V190.78ZM865.67 136.16C845.57 132.96 835.32 130.16 835.32 122.32C835.32 114.87 845.18 110.61 859.32 110.61C882.18 110.61 903.86 119.48 915.32 129.42L938.58 93.23C918.08 79.75 890.88 70.52 858.95 70.52C806.13 70.52 777.36 96.78 777.36 126.93C777.36 170.57 823.08 176.6 855.41 181.57C875.11 184.41 888.12 187.57 888.12 196.47C888.12 203.92 880.63 209.24 862.5 209.24C840.03 209.24 809.68 197.89 795.5 186.54L770.27 224.14C790.38 240.14 825.46 250.4 859.36 250.4C914.15 250.4 946.08 226.27 946.08 193.63C946.04 148.22 897.95 141.12 865.67 136.16ZM794.11 40.96C796.808 40.9343 799.469 40.327 801.911 39.1793C804.353 38.0317 806.518 36.3708 808.26 34.31V39.31C808.26 47.48 801.59 50.36 794.91 50.36C789.04 50.36 784.68 48.92 781.12 45.24L777.29 50.52C782.46 54.93 787.71 56.29 794.91 56.29C805.5 56.29 816.27 52.37 816.27 39.07V1.95999H808.27V7.56C806.544 5.48739 804.379 3.82383 801.932 2.6894C799.485 1.55496 796.817 0.977941 794.12 1C783 1 774.99 8.52001 774.99 20.94C774.93 33.59 782.94 40.96 794.06 40.96H794.11ZM796.34 7.4C801.14 7.4 806.04 9.97 808.26 13.09V28.79C806.04 31.91 801.14 34.55 796.34 34.55C788.34 34.55 783.34 28.95 783.34 20.94C783.34 12.93 788.28 7.4 796.29 7.4H796.34ZM833.41 13.71C835.27 10.83 840.7 8.10001 844.71 8.10001C845.636 8.08856 846.56 8.16894 847.47 8.34V1.06C844.777 1.1248 842.129 1.76512 839.704 2.93799C837.279 4.11086 835.133 5.7891 833.41 7.85999V1.94001H825.41V40.62H833.41V13.71ZM870.96 41.58C884.4 41.58 892.68 32.45 892.68 21.24C892.68 10.03 884.4 0.979984 870.96 0.979984C857.52 0.979984 849.25 10.11 849.25 21.24C849.25 32.37 857.67 41.6 870.96 41.6V41.58ZM870.96 7.38001C879.6 7.38001 884.31 13.95 884.31 21.24C884.31 28.53 879.6 35.18 870.96 35.18C862.32 35.18 857.67 28.63 857.67 21.26C857.67 13.89 862.42 7.4 870.96 7.4V7.38001ZM912.96 41.58C918.671 41.5369 924.148 39.3033 928.26 35.34V40.62H936.26V1.95999H928.26V29.71C926.765 31.4016 924.931 32.7607 922.878 33.6994C920.825 34.6382 918.598 35.1358 916.34 35.16C910.82 35.16 907.26 33.23 907.26 26.83V1.95999H899.26V29.27C899.27 37.44 903.81 41.6 912.98 41.6L912.96 41.58ZM967.52 0.979984C964.844 0.957991 962.196 1.52746 959.765 2.64765C957.335 3.76784 955.182 5.4111 953.46 7.45999V1.94001H945.46V55.36H953.46V35.04C955.156 37.1243 957.302 38.7973 959.737 39.9335C962.172 41.0697 964.833 41.6394 967.52 41.6C978.73 41.6 986.65 33.91 986.65 21.26C986.65 8.60998 978.75 1 967.54 1L967.52 0.979984ZM965.38 35.18C960.49 35.18 955.59 32.53 953.46 29.49V13.09C955.59 9.97 960.46 7.4 965.38 7.4C973.38 7.4 978.28 13.25 978.28 21.26C978.28 29.27 973.41 35.2 965.4 35.2L965.38 35.18Z"
        fill="white" />
</svg>