<svg width="383" height="254" viewBox="0 0 383 254" fill="none" xmlns="http://www.w3.org/2000/svg">
<rect width="383" height="254" fill="white"/>
<path d="M45 230.5V24" stroke="#333333" stroke-width="21"/>
<path d="M303.869 165.233L278.075 173.083C278.075 173.083 275.272 197.756 303.869 196.914C332.467 196.073 329.943 173.083 329.943 173.083L303.869 165.233Z" stroke="#333333" stroke-opacity="0.98" stroke-width="7" stroke-linecap="round"/>
<path d="M286.41 169.158V152.336H322.017V169.158" stroke="#333333" stroke-opacity="0.98" stroke-width="7" stroke-linecap="round" stroke-linejoin="round"/>
<path d="M295.943 152.336V140H311.644V152.336" stroke="#333333" stroke-opacity="0.98" stroke-width="7" stroke-linecap="round" stroke-linejoin="round"/>
<path d="M72.24 83.6C72.24 79.2053 73.2213 75.28 75.184 71.824C77.1893 68.3253 79.8987 65.616 83.312 63.696C86.768 61.7333 90.6293 60.752 94.896 60.752C99.888 60.752 104.261 62.032 108.016 64.592C111.771 67.152 114.395 70.6933 115.888 75.216H105.584C104.56 73.0827 103.109 71.4827 101.232 70.416C99.3973 69.3493 97.264 68.816 94.832 68.816C92.2293 68.816 89.904 69.4347 87.856 70.672C85.8507 71.8667 84.272 73.5733 83.12 75.792C82.0107 78.0107 81.456 80.6133 81.456 83.6C81.456 86.544 82.0107 89.1467 83.12 91.408C84.272 93.6267 85.8507 95.3547 87.856 96.592C89.904 97.7867 92.2293 98.384 94.832 98.384C97.264 98.384 99.3973 97.8507 101.232 96.784C103.109 95.6747 104.56 94.0533 105.584 91.92H115.888C114.395 96.4853 111.771 100.048 108.016 102.608C104.304 105.125 99.9307 106.384 94.896 106.384C90.6293 106.384 86.768 105.424 83.312 103.504C79.8987 101.541 77.1893 98.832 75.184 95.376C73.2213 91.92 72.24 87.9947 72.24 83.6ZM133.141 98.896H147.861V106H124.181V61.328H133.141V98.896ZM163.028 61.328V88.976C163.028 92.0053 163.817 94.3307 165.396 95.952C166.975 97.5307 169.193 98.32 172.052 98.32C174.953 98.32 177.193 97.5307 178.772 95.952C180.351 94.3307 181.14 92.0053 181.14 88.976V61.328H190.164V88.912C190.164 92.7093 189.332 95.9307 187.668 98.576C186.047 101.179 183.849 103.141 181.076 104.464C178.345 105.787 175.295 106.448 171.924 106.448C168.596 106.448 165.567 105.787 162.836 104.464C160.148 103.141 158.015 101.179 156.436 98.576C154.857 95.9307 154.068 92.7093 154.068 88.912V61.328H163.028ZM224.805 83.088C227.322 83.5573 229.392 84.816 231.013 86.864C232.634 88.912 233.445 91.2587 233.445 93.904C233.445 96.2933 232.848 98.4053 231.653 100.24C230.501 102.032 228.816 103.44 226.597 104.464C224.378 105.488 221.754 106 218.725 106H199.461V61.328H217.893C220.922 61.328 223.525 61.8187 225.701 62.8C227.92 63.7813 229.584 65.1467 230.693 66.896C231.845 68.6453 232.421 70.6293 232.421 72.848C232.421 75.4507 231.717 77.6267 230.309 79.376C228.944 81.1253 227.109 82.3627 224.805 83.088ZM208.421 79.76H216.613C218.746 79.76 220.389 79.2907 221.541 78.352C222.693 77.3707 223.269 75.984 223.269 74.192C223.269 72.4 222.693 71.0133 221.541 70.032C220.389 69.0507 218.746 68.56 216.613 68.56H208.421V79.76ZM217.445 98.704C219.621 98.704 221.306 98.192 222.501 97.168C223.738 96.144 224.357 94.6933 224.357 92.816C224.357 90.896 223.717 89.4027 222.437 88.336C221.157 87.2267 219.429 86.672 217.253 86.672H208.421V98.704H217.445ZM254.812 88.144C254.812 84.56 255.516 81.3813 256.924 78.608C258.375 75.8347 260.337 73.7013 262.812 72.208C265.287 70.7147 268.039 69.968 271.068 69.968C273.372 69.968 275.569 70.48 277.66 71.504C279.751 72.4853 281.415 73.808 282.652 75.472V58.64H291.74V106H282.652V100.752C281.543 102.501 279.985 103.909 277.98 104.976C275.975 106.043 273.649 106.576 271.004 106.576C268.017 106.576 265.287 105.808 262.812 104.272C260.337 102.736 258.375 100.581 256.924 97.808C255.516 94.992 254.812 91.7707 254.812 88.144ZM282.716 88.272C282.716 86.096 282.289 84.24 281.436 82.704C280.583 81.1253 279.431 79.9307 277.98 79.12C276.529 78.2667 274.972 77.84 273.308 77.84C271.644 77.84 270.108 78.2453 268.7 79.056C267.292 79.8667 266.14 81.0613 265.244 82.64C264.391 84.176 263.964 86.0107 263.964 88.144C263.964 90.2773 264.391 92.1547 265.244 93.776C266.14 95.3547 267.292 96.5707 268.7 97.424C270.151 98.2773 271.687 98.704 273.308 98.704C274.972 98.704 276.529 98.2987 277.98 97.488C279.431 96.6347 280.583 95.44 281.436 93.904C282.289 92.3253 282.716 90.448 282.716 88.272ZM334.091 87.504C334.091 88.784 334.006 89.936 333.835 90.96H307.915C308.128 93.52 309.024 95.5253 310.603 96.976C312.182 98.4267 314.123 99.152 316.427 99.152C319.755 99.152 322.123 97.7227 323.531 94.864H333.195C332.171 98.2773 330.208 101.093 327.307 103.312C324.406 105.488 320.843 106.576 316.619 106.576C313.206 106.576 310.134 105.829 307.403 104.336C304.715 102.8 302.603 100.645 301.067 97.872C299.574 95.0987 298.827 91.8987 298.827 88.272C298.827 84.6027 299.574 81.3813 301.067 78.608C302.56 75.8347 304.651 73.7013 307.339 72.208C310.027 70.7147 313.12 69.968 316.619 69.968C319.99 69.968 322.998 70.6933 325.643 72.144C328.331 73.5947 330.4 75.664 331.851 78.352C333.344 80.9973 334.091 84.048 334.091 87.504ZM324.811 84.944C324.768 82.64 323.936 80.8053 322.315 79.44C320.694 78.032 318.71 77.328 316.363 77.328C314.144 77.328 312.267 78.0107 310.731 79.376C309.238 80.6987 308.32 82.5547 307.979 84.944H324.811Z" fill="#333333"/>
<path d="M89.2 185.744L98.16 158.544H107.696L94.576 194H83.696L70.64 158.544H80.24L89.2 185.744ZM117.912 154.32C116.334 154.32 115.011 153.829 113.944 152.848C112.92 151.824 112.408 150.565 112.408 149.072C112.408 147.579 112.92 146.341 113.944 145.36C115.011 144.336 116.334 143.824 117.912 143.824C119.491 143.824 120.792 144.336 121.816 145.36C122.883 146.341 123.417 147.579 123.417 149.072C123.417 150.565 122.883 151.824 121.816 152.848C120.792 153.829 119.491 154.32 117.912 154.32ZM122.328 158.544V194H113.368V158.544H122.328ZM129.517 176.144C129.517 172.56 130.221 169.381 131.629 166.608C133.08 163.835 135.021 161.701 137.453 160.208C139.928 158.715 142.68 157.968 145.709 157.968C148.354 157.968 150.658 158.501 152.621 159.568C154.626 160.635 156.226 161.979 157.421 163.6V158.544H166.445V194H157.421V188.816C156.269 190.48 154.669 191.867 152.621 192.976C150.616 194.043 148.29 194.576 145.645 194.576C142.658 194.576 139.928 193.808 137.453 192.272C135.021 190.736 133.08 188.581 131.629 185.808C130.221 182.992 129.517 179.771 129.517 176.144ZM157.421 176.272C157.421 174.096 156.994 172.24 156.141 170.704C155.288 169.125 154.136 167.931 152.685 167.12C151.234 166.267 149.677 165.84 148.013 165.84C146.349 165.84 144.813 166.245 143.405 167.056C141.997 167.867 140.845 169.061 139.949 170.64C139.096 172.176 138.669 174.011 138.669 176.144C138.669 178.277 139.096 180.155 139.949 181.776C140.845 183.355 141.997 184.571 143.405 185.424C144.856 186.277 146.392 186.704 148.013 186.704C149.677 186.704 151.234 186.299 152.685 185.488C154.136 184.635 155.288 183.44 156.141 181.904C156.994 180.325 157.421 178.448 157.421 176.272ZM180.38 154.32C178.759 154.32 177.415 153.829 176.348 152.848C175.324 151.824 174.812 150.565 174.812 149.072C174.812 147.579 175.324 146.341 176.348 145.36C177.415 144.336 178.759 143.824 180.38 143.824C181.959 143.824 183.26 144.336 184.284 145.36C185.308 146.341 185.82 147.579 185.82 149.072C185.82 150.565 185.308 151.824 184.284 152.848C183.26 153.829 181.959 154.32 180.38 154.32ZM184.796 199.824C184.796 203.749 183.815 206.565 181.852 208.272C179.932 210.021 177.159 210.896 173.532 210.896H169.564V203.28H172.124C173.489 203.28 174.449 203.003 175.004 202.448C175.559 201.936 175.836 201.083 175.836 199.888V158.544H184.796V199.824ZM227.249 175.504C227.249 176.784 227.163 177.936 226.993 178.96H201.072C201.286 181.52 202.182 183.525 203.76 184.976C205.339 186.427 207.28 187.152 209.584 187.152C212.912 187.152 215.28 185.723 216.688 182.864H226.353C225.328 186.277 223.366 189.093 220.464 191.312C217.563 193.488 214 194.576 209.776 194.576C206.363 194.576 203.291 193.829 200.56 192.336C197.872 190.8 195.76 188.645 194.224 185.872C192.731 183.099 191.984 179.899 191.984 176.272C191.984 172.603 192.731 169.381 194.224 166.608C195.718 163.835 197.808 161.701 200.496 160.208C203.184 158.715 206.278 157.968 209.776 157.968C213.147 157.968 216.155 158.693 218.8 160.144C221.488 161.595 223.558 163.664 225.008 166.352C226.502 168.997 227.249 172.048 227.249 175.504ZM217.968 172.944C217.926 170.64 217.094 168.805 215.472 167.44C213.851 166.032 211.867 165.328 209.52 165.328C207.302 165.328 205.424 166.011 203.888 167.376C202.395 168.699 201.478 170.555 201.136 172.944H217.968ZM247.996 194.576C245.095 194.576 242.492 194.064 240.188 193.04C237.884 191.973 236.05 190.544 234.684 188.752C233.362 186.96 232.636 184.976 232.508 182.8H241.532C241.703 184.165 242.364 185.296 243.516 186.192C244.711 187.088 246.183 187.536 247.932 187.536C249.639 187.536 250.962 187.195 251.9 186.512C252.882 185.829 253.372 184.955 253.372 183.888C253.372 182.736 252.775 181.883 251.58 181.328C250.428 180.731 248.572 180.091 246.012 179.408C243.367 178.768 241.191 178.107 239.484 177.424C237.82 176.741 236.37 175.696 235.132 174.288C233.938 172.88 233.34 170.981 233.34 168.592C233.34 166.629 233.895 164.837 235.004 163.216C236.156 161.595 237.778 160.315 239.868 159.376C242.002 158.437 244.498 157.968 247.356 157.968C251.58 157.968 254.951 159.035 257.468 161.168C259.986 163.259 261.372 166.096 261.628 169.68H253.052C252.924 168.272 252.327 167.163 251.26 166.352C250.236 165.499 248.85 165.072 247.1 165.072C245.479 165.072 244.22 165.371 243.324 165.968C242.471 166.565 242.044 167.397 242.044 168.464C242.044 169.659 242.642 170.576 243.836 171.216C245.031 171.813 246.887 172.432 249.404 173.072C251.964 173.712 254.076 174.373 255.74 175.056C257.404 175.739 258.834 176.805 260.028 178.256C261.266 179.664 261.906 181.541 261.948 183.888C261.948 185.936 261.372 187.771 260.22 189.392C259.111 191.013 257.49 192.293 255.356 193.232C253.266 194.128 250.812 194.576 247.996 194.576Z" fill="#333333"/>
</svg>
